<svg id="Laag_1" data-name="Laag 1" xmlns="http://www.w3.org/2000/svg" viewBox="0 0 232.85 201.7"><defs><style>.cls-1{opacity:0.3;}.cls-2{fill:#00d66c;}.cls-3{fill:#fff;}.cls-4{fill:none;stroke:#00d66c;stroke-linecap:round;stroke-miterlimit:10;stroke-width:7.21px;}</style></defs><title>bundels-non</title><g class="cls-1"><path class="cls-2" d="M116.43,13.68a87.17,87.17,0,1,1-87.17,87.17,87.27,87.27,0,0,1,87.17-87.17m0-8a95.17,95.17,0,1,0,95.16,95.17A95.17,95.17,0,0,0,116.43,5.68Z"/><path class="cls-2" d="M144,49.22l.22,90.46H88.66V64.05L144,49.22m7.19-9.39L81.45,58.52v88.37h70l-.25-107.06Z"/><polygon class="cls-3" points="85.05 143.91 85.05 62.92 147.8 76.42 147.8 157.41 85.05 143.91"/><path class="cls-2" d="M88.66,67.38l55.53,12V153L88.66,141V67.38m-7.21-8.93v88.37l70,15.05V73.51L81.45,58.45Z"/><line class="cls-4" x1="94.21" y1="93.96" x2="123.32" y2="100.09"/><line class="cls-4" x1="94.21" y1="105.7" x2="136.85" y2="114.64"/><line class="cls-4" x1="94.21" y1="82.96" x2="136.85" y2="91.89"/><line class="cls-4" x1="93.96" y1="117.19" x2="136.6" y2="126.13"/></g></svg>