<svg id="Laag_1" data-name="Laag 1" xmlns="http://www.w3.org/2000/svg" viewBox="0 0 232.85 201.7"><defs><style>.cls-1{fill:#00d66c;}.cls-2{fill:#fff;}.cls-3{fill:none;stroke:#fff;stroke-linecap:round;stroke-miterlimit:10;stroke-width:7.21px;}</style></defs><title>Tekengebied 1 kopie 7</title><circle class="cls-1" cx="116.43" cy="100.85" r="95.17"/><path class="cls-2" d="M144,49.22l.22,90.46H88.66V64.05L144,49.22m7.19-9.39L81.45,58.52v88.37h70l-.25-107.06Z"/><polygon class="cls-1" points="85.05 143.91 85.05 62.92 147.8 76.42 147.8 157.41 85.05 143.91"/><path class="cls-2" d="M88.66,67.38l55.53,12V153L88.66,141V67.38m-7.21-8.93v88.37l70,15.05V73.51L81.45,58.45Z"/><line class="cls-3" x1="94.21" y1="93.96" x2="123.32" y2="100.09"/><line class="cls-3" x1="94.21" y1="105.7" x2="136.85" y2="114.64"/><line class="cls-3" x1="94.21" y1="82.96" x2="136.85" y2="91.89"/><line class="cls-3" x1="93.96" y1="117.19" x2="136.6" y2="126.13"/></svg>