<svg id="Laag_1" data-name="Laag 1" xmlns="http://www.w3.org/2000/svg" viewBox="0 0 232.85 201.7"><defs><style>.cls-1{opacity:0.3;}.cls-2{fill:#00d66c;}.cls-3{fill:#fff;stroke:#00d66c;stroke-miterlimit:10;stroke-width:10px;}</style></defs><title>gebruiker-non</title><g class="cls-1"><path class="cls-2" d="M116.43,11.68a89.17,89.17,0,1,1-89.17,89.17,89.27,89.27,0,0,1,89.17-89.17m0-6a95.17,95.17,0,1,0,95.16,95.17A95.17,95.17,0,0,0,116.43,5.68Z"/><ellipse class="cls-3" cx="116.14" cy="63.06" rx="29.08" ry="30.2"/><path class="cls-3" d="M171.59,141.41c-4.92,12.78-11.25,16.43-21.44,24.09-10.55,5.48-22,9.13-33.75,9.13-10.7,0-22.85-3.28-32.69-8-10.9-7.3-21.09-14.24-25.66-30.67,0-19.06,21.56-38.77,37.26-39.8,5.23-.34,13.92,5.11,20,5.11,5.46,0,13.74-4.25,18.63-4C151,98.05,171.59,121.67,171.59,141.41Z"/></g></svg>