<svg id="Layer_1" data-name="Layer 1" xmlns="http://www.w3.org/2000/svg" viewBox="0 0 159.83 51.59"><defs><style>.cls-1,.cls-2{fill:#231f20;}.cls-2{fill-rule:evenodd;}.cls-3{font-size:25px;fill:#fff;stroke:#fff;stroke-miterlimit:10;stroke-width:0.25px;font-family:AgencyFB-Bold, Agency FB;font-weight:700;letter-spacing:0.06em;}</style></defs><title>Artboard 2</title><rect class="cls-1" x="4.73" y="5.67" width="149.25" height="40.02"/><path class="cls-2" d="M28.17,8.34c0,.12-.46.08-.35.24h-.5c-.09-.09.66-.14.18-.18C27.55,8.32,27.92,8.35,28.17,8.34Zm2.22-.4c-.05.06-.34,0-.35.12-.35.06-.23-.11-.33-.13-.27,0-1,.1-.83-.12A5.08,5.08,0,0,1,30.39,7.94Zm-2.22.52H29C29,8.65,28,8.71,28.17,8.46Zm9.48-.84a1.42,1.42,0,0,1-.84.06c-.31,0-.12.2-.35.24H34.77c-.53-.06.31-.08.51-.06,0-.14-.58-.12-.49-.3-.31,0-.11.2-.35.23a2.25,2.25,0,0,1-1.5-.37,2.62,2.62,0,0,1-1.34-.07,12.89,12.89,0,0,1,2.69.2c-.11-.06-.39-.06-.33-.18.61,0,1.33,0,1.33.25a14.34,14.34,0,0,0,2.37-.17s.11.2.34.13c0-.17-.57-.12-.32-.37.54.13.74,0,1.18,0a4.61,4.61,0,0,0,1,.07c0,.06-.21,0-.34.06-.57.15-.44.57-1.38.59.42-.07.33-.33.69-.42,0-.07-.3,0-.5-.06a1.79,1.79,0,0,0-.36.42C37.62,7.83,37.67,7.72,37.65,7.62Zm-6.11.8c.11.21-.6.22-.85.12C30.72,8.41,31.12,8.41,31.54,8.42Zm3.71,0h-.34c-.54,0-.51-.1-.83-.13-1.49-.05.25,0,.51-.12C34.78,8.3,35.29,8.28,35.25,8.45Zm-2.53.1a2.38,2.38,0,0,1-.67-.06c.2-.11.89,0,.68-.3C33.11,8.22,32.85,8.51,32.72,8.55Zm-2-.61c-.46,0,0-.19.35-.12-.14-.15-1.18,0-1.35-.13.4-.12.6,0,1.19-.05,0,.14.58.12.49.3C31.08,8,30.84,7.76,30.72,7.94ZM27.18,8c-.19-.26,1.39-.25,1.18,0A3.89,3.89,0,0,0,27.18,8ZM48.94,45c-.18.2.52.1.84.13-.14.11-.8.17-.84,0-.32,0-.12.2-.35.24-.4-.11-1,0-1.35-.07-.07,0,.06-.16,0-.18s-1.19,0-.67-.12a1.46,1.46,0,0,1,1,.18,3.3,3.3,0,0,0,1-.11c-.21-.25-.55,0-1,0-.55-.29-3.07,0-4.21-.2,2.44-.07,5.59,0,7.93,0C50.9,45.1,49.35,44.86,48.94,45Zm5.44-.74c.22-.27.92-.08,1.35-.18.27,0,.17,0,.68,0C56.7,44.55,54.53,44.28,54.38,44.29Zm-1.51-.19c-.12,0-.27.16,0,.18s.41-.12.17-.12c.32-.18.8.07,1.35,0v.12c-1.29,0-2.52.23-3.56.21a4.7,4.7,0,0,0-1.34-.07c-.2-.08-.06-.09,0-.18-.15-.16-.85-.14-1.34-.18-.15-.24,1.38.07,1-.12.34-.18.5.18.67.25.42-.09.41.11.5.12s.51,0,.67,0,0,.18.33.13.08-.07,0-.12-.36,0-.84-.13c0,0,.25-.11.18-.12-.29,0-1,.1-.84-.12C51.2,44,51.89,44.05,52.87,44.1Zm-.35.17c-.32,0-.29-.17-.83-.12C51.47,44.33,52.38,44.41,52.52,44.27ZM29.39,7.69c-.7,0-.67-.24-1.51-.19a1.71,1.71,0,0,1,1.35,0,2.19,2.19,0,0,1,1.52,0c.39.14-.44,0-.85,0S29.56,7.61,29.39,7.69ZM57.77,44c.65,0,1.49.28.49.3C58.84,44.05,57.66,44.15,57.77,44Zm-1.37.41h.84C57.49,44.55,56.13,44.54,56.4,44.36Zm-29.75-36h.51v.24h-.51C26.93,8.52,26.63,8.56,26.65,8.39Zm21,35.49c.13-.16.77-.12.86-.29,1.17,0,2.63,0,3.54.08-1,.15-2.23,0-3.21,0C48.32,43.75,48.17,43.88,47.65,43.88ZM8.09,34.38a6.16,6.16,0,0,1,.16,2.71c-.19-.15,0-.83-.05-1.35S8.07,34.86,8.09,34.38ZM39.49,7.94c-.72,0,.27.25-.51.23.1.06.38.07.32.18a3.36,3.36,0,0,1-.84-.06c-.28,0-1,.07-.83-.13a3.06,3.06,0,0,1,.84.07c.36,0,0-.2,0-.18s.76,0,.51-.24c.78.15.95-.12,1.52,0-.09,0-.18.1-.18.18C40.09,8,39.46,8.07,39.49,7.94Zm5,35.68a1.31,1.31,0,0,1,1,0c.16,0,.13-.07.17-.12a4,4,0,0,0,1.19,0c.19,0,.76-.07.67.12a6.34,6.34,0,0,0-1.53.17C45.44,43.76,45.18,43.6,44.46,43.62Zm78.16,1.88c.23.25-1.53.4-1.35.06.34,0,.21.16.67.12s-.18-.16-.33-.18c-.73,0-.43.33-1.19.29a1.92,1.92,0,0,1,1.37-.41C122.2,45.38,122.19,45.5,122.62,45.5Zm-14-.27c-.41,0-1.07.15-1-.12.32,0,.3.17.84.12.14-.2-.68-.08-.49-.3.45,0,1.62.24,1.35,0,.25-.16.92,0,.83.18s-.49,0-.67,0-.14.11-.18.12C109.11,45.26,108.85,45.22,108.64,45.23Zm2.49.8a18.58,18.58,0,0,1-2.53,0c.22-.1.45-.19.35-.41.57-.06.26.18.33.3.44.06.2-.12.34-.18s.4-.06.34,0c.08-.09.06-.16-.16-.24s-.21.05-.17.06a2.47,2.47,0,0,0-1-.19,1.19,1.19,0,0,1,1,0c.9,0,.85-.18,1.69-.05,0,.15-.57.12-1,.11v.18c.66,0,.69-.2,1.35,0,.2,0,.15-.11.18-.18.47,0,.34.13.67.13.48,0,.34-.2,1-.11,0,.19-.49.22-1,.23s-.52.22-.69.41c-.65.09,0-.26-.67-.18C110.92,45.92,111,46,111.13,46Zm9.33-1.2c.25-.1.33.05.68.06s.5-.07.67,0c.46,0,.72.18,1.17.19-.45.32-1.17-.16-1.85,0A1.9,1.9,0,0,0,120.46,44.83Zm-2.37.16c-.07-.11.79-.18.85-.05a3.87,3.87,0,0,1,1.36-.17c-.86.09-.3.26.32.3-.74.32-1.42-.11-2.36,0C118.29,45.05,118.23,45,118.09,45Zm-15,.21h.51c-.1.15-.16.31-.69.3C102.76,45.33,103.14,45.34,103.07,45.2Zm.13.78c.32,0,.3.17.84.12.17,0,.18-.13.51-.11,0,.08,0,.17.16.18C104.29,46.23,103.25,46.29,103.2,46Zm1.68.13c.2-.24.8,0,1.52,0-.31-.26,1.14,0,1.7-.11.11.26-.89.15-1.36.17A7.07,7.07,0,0,1,104.88,46.11Zm-.32-.3c0-.06.21-.05.34-.06s-.12-.16-.33-.18c0-.08,1-.07.35-.18.09-.22.59,0,.67.06s.48,0,.67,0,.1.11.17.12c.25,0,.59,0,.5.12.3,0,.84-.05.67.13-.44-.09-1-.06-1.52-.13-.3,0-.58-.37-1-.13.29.12,1.11,0,1,.31C105.23,45.92,105.26,45.66,104.56,45.81ZM122.65,45c-.1-.05-.2-.1,0-.12.7,0,2.33,0,3.54,0,.61,0,.6.1,0,.06A30,30,0,0,1,122.65,45Zm-17,.07c.32-.08.22-.32.86-.29-.51.08.43.32-.35.3.1.12.85,0,.66.24-.63-.18-1.43,0-2.35-.13.44-.16-.27,0-.16-.24C105,44.84,104.92,45.07,105.61,45Zm.37-.59c-.55-.15,1.2,0,1.19-.12.47.1.72-.06,1.17.07a15,15,0,0,1-1.86.17C107.05,44.44,106.62,44.43,106,44.44Zm11.75,1c.35,0,.39-.11.52-.11.43,0,.2.15.66.18-.4.19,0,.31-.69.36-.11-.19.3-.18.19-.36-.44,0-1,.2-.53.29,0,.07-.17,0-.16,0h-.34c-.12-.19.47-.11.35-.3a4.4,4.4,0,0,1-1.52,0c0-.17.4-.22.69-.29C117.45,45.29,117.35,45.43,117.73,45.47Zm20.1-.47c-.32-.12,1.35,0,1.86,0C139.39,45.22,138.54,45,137.83,45Zm-6.64,1.16a3.77,3.77,0,0,0,1.34.13c-.07.19-1.17.18-1.18.05-.07.14-.68.08-.85.17a5.08,5.08,0,0,0,1.86,0s0,.11,0,.12a1.74,1.74,0,0,0,.69-.24.7.7,0,0,1,.5.12,8.72,8.72,0,0,1,1.18,0c.65-.08,0,.27.67.19.23,0,0-.11-.17-.13.14-.13.95,0,1.36,0-.22.09-.65.09-.86.18,0,0,.17.06.17.12a6,6,0,0,0,.85-.18c-.17.21,1.28.16,1.67.2a7.44,7.44,0,0,1-1,.17c.05.08.42,0,.68.06a19,19,0,0,1-3.56.22c-.28,0-.32,0-.33-.12-.18,0-.13.1-.34.12-.36,0-.27-.13-.33-.13s-.29.11-.52.12-.86-.12-1.34-.13c-.75,0-1.43.07-2.19,0s-1.3-.16-2-.2a2.32,2.32,0,0,0-.51.06,17.16,17.16,0,0,0-3.2,0,1.83,1.83,0,0,0-.5-.12c.14-.13,1,0,.86-.24a12.51,12.51,0,0,0-1.37.29,30.46,30.46,0,0,0-3.36-.14c-.41,0-.37-.12-.67-.18s-1,0-1.17-.19c.14-.28,1-.06,1.35,0s1.13,0,1.52,0a.84.84,0,0,0,.34-.06,4.37,4.37,0,0,1,.5.13c.2,0,.6-.07.85-.06a4.36,4.36,0,0,0,1.35-.05c0,.18-.69.22,0,.3.25,0-.06-.08,0-.18.38-.07.93-.06,1-.23,1.32.1,2.19,0,3.2.2A2.67,2.67,0,0,0,129,46a8.48,8.48,0,0,0,1.51.07v.24C131,46.35,131.24,46.32,131.19,46.16Zm-6.08.14c0,.07.19.09.33.12,0-.28-.47-.12-1-.12.15.1,0,.3.32.36C125.13,46.52,124.55,46.39,125.11,46.3Zm1.18.13c-.53,0-.46.16-.86.17,0-.06-.29-.08-.33,0,.63-.06.25.23.83.19C125.76,46.56,126.36,46.62,126.29,46.43Zm1.17.13c-.07-.18-.63-.18-1-.25-.15.17.23.16.15.3C127,46.64,127,46.5,127.46,46.56Zm7.23.4c.13,0,.2,0,.17.12.41,0,.87,0,.85-.23A2.2,2.2,0,0,0,134.69,47Zm-5.05-.21c-.54.06-1.65-.16-1.35,0S130,46.87,129.64,46.75Zm.53-.42c-.1-.35-1.72,0-1.86.17C129.27,46.57,129.12,46.23,130.17,46.33ZM58.94,44.07c.57,0,.23-.24.85-.17-.07.18-.7.15-.52.42C59,44.3,58.89,44.21,58.94,44.07Zm95,1.64c-.23.25-.83,0-1.52,0C152.06,45.64,153.58,45.72,154,45.71Zm-31-.14c.64-.09.31.16.83.12-.24.19-.82-.09-1,.05C122.21,45.68,123.25,45.73,123,45.57Zm1.15.54c.09.14-.33.09-.35.18a3.89,3.89,0,0,0-1.18,0C122.85,46,123.34,46.19,124.11,46.11Zm3.77-1.23h.68c-.09,0-.18.1-.18.18h.34c.21,0,.17-.12,0-.12.22-.18.65.05.84.07,0-.11-.2-.13-.15-.24a3.46,3.46,0,0,0,1.68.13c-.06.14-.8,0-.69.23a2.62,2.62,0,0,1-.5-.12.24.24,0,0,0-.17.12,14,14,0,0,0-1.52,0C128.21,45,127.75,45,127.88,44.88ZM42.52,8.14c0,.17-.61.2-.85.11C41.7,8.12,42.1,8.12,42.52,8.14Zm84.16,37.27c.69,0,1.21.25,1.52,0,.63-.06.47.15,1,.13s.89-.22,1.35-.05a3.85,3.85,0,0,1-1.35.17C128.35,45.63,126.82,45.69,126.68,45.41Zm-.34.06c-.16.47-1.45,0-2.21.22.21-.26.11-.07-.33-.18C124.4,45.21,125.44,45.69,126.34,45.47Zm1.32.55c.3,0,.36-.07.67-.06.26.24-.72,0-.68.18-.8-.06-1.52-.15-2.52-.14C124.86,45.83,127.19,46,127.66,46Zm25.54-4.76c-.44.25-.62.61-1.39.77-.12,0-.58,0-.85.06a4.36,4.36,0,0,1-1.52.11,8.51,8.51,0,0,0-.85.17c-2.42-.07-4,.1-5.57,0a2.59,2.59,0,0,1,.52-.11c-.11-.19-.45-.08-.84-.07a2.12,2.12,0,0,0-1.34-.25,4.53,4.53,0,0,0,1.5.37c-.67.15-1.24-.05-2,0,.3-.2-.48-.21.35-.24a2.34,2.34,0,0,0-1-.06c0,.18.66.16.49.42h-.85c1.1-.07-.18-.39-.66-.24,0,.09.37,0,.5.06.4.12-.93,0-1.35.11-.11-.06-.39-.06-.33-.18a5.14,5.14,0,0,1-1.84-.19c.87-.09,1.91-.11,2-.47.19,0,.11.12.33.13.51,0-.15-.13,0-.24.63.05.81-.07,1.35-.06.16.19-.38.11-.68.12-.17.28,1.18.14,1.35,0,.53,0,.37.18,1,.12l.52-.17c0-.14-.55,0-.51,0-.22,0-.26-.11-.5-.12a5.49,5.49,0,0,1-1.35,0l4.57-.15c-.22.25-.21.42,0,.6.52,0,.5-.1,1-.05s-.44-.12-.16-.3h.85c-.06-.27-.53-.23-1.17-.18a11.64,11.64,0,0,1,2.54-.23c-.09.05-.18.1-.18.18a5.72,5.72,0,0,0,.85-.11.51.51,0,0,0-.33-.13,23.37,23.37,0,0,1,3-.22c-.2.09-.19.15.16.18s.7-.21.35-.23c0-.14.71,0,1-.06C152.65,40.78,152.7,41.09,153.2,41.26Zm-12,.58c0-.19-1.25-.27-1.34-.07C140.32,41.87,140.54,41.76,141.19,41.84Zm3,0c-.5-.16-.7-.16-.48-.48-.87-.07-.26.35-.52.36-.25-.16-1.57-.19-1.53.11.53.07.42-.1.68-.12C143.06,41.74,143.65,42,144.23,41.8Zm3.56-.34a2.9,2.9,0,0,0-1.18.06c-.24,0-1.08-.08-.85.11,0,.13.74,0,.83.13C146.83,41.47,147.37,41.62,147.79,41.46Zm-.36.36c-.05.16.35.16.67.19C148.28,41.81,147.88,41.81,147.43,41.82Zm1.21-.47a1,1,0,0,0-.68.18,2.83,2.83,0,0,0,.67.06Zm.51-.18c-.14,0-.47.42.15.36C149.56,41.54,149.7,41.09,149.15,41.17Zm2.38-.22c.17,0,.13-.08-.17-.06-.05.19.19.29.66.3C152.18,41,151.47,41.11,151.53,41ZM71.59,44.16c-.42-.08-1.32,0-1.34-.19.74,0,.94.11,1.68.07C71.88,44.1,71.59,44.08,71.59,44.16Zm-.5-.25c-.56-.13.79-.26,1-.11C71.92,43.93,71.29,43.7,71.09,43.91Zm5.57-.08a3,3,0,0,1-2,.11c-.31,0-.62.09-1,.11,0,0,.06-.06.17-.06s-.06-.06-.17-.06c.53-.27,2.22.28,2.2-.17C76.3,43.72,76.26,43.85,76.66,43.83ZM69.74,44c-.82-.05-.88.17-1.69.11,0-.25,1.06-.13,1.36-.29.26,0,1,.24.49.37,0,.18.66-.19.67,0s-.76.17-1.18.11C69.25,44.13,69.66,44.14,69.74,44Zm4.53.39c-1.07-.06-1.54,0-2.69-.07.15-.27.82-.35,1.7-.35.26.23-.73,0-.68.17C73.11,44.37,74,44.1,74.27,44.41Zm36.09.12c0-.11.3-.16,0-.18.26-.18.75,0,.67.18Zm-43.5-.28c.46,0,.83.1,1.69,0-.06.14-.81,0-.69.23C67.46,44.43,66.79,44.47,66.86,44.25Zm-6.54-.71a4.9,4.9,0,0,1,2.19,0c.14.22-.31,0-.51,0A13.38,13.38,0,0,1,60.32,43.54Zm15.81.83c1.07,0,.14-.39,1.2-.36-.11.17-.54.21-.53.42-.69,0-1.48.15-1.68-.13C75.63,44.35,76.55,44.12,76.13,44.37Zm-12.77-.93a15.1,15.1,0,0,1,2.19,0A8.1,8.1,0,0,1,63.36,43.44Zm1.83.55c.43.12.51,0,1,.07,0,.12-.63,0-.68.18C65.29,44.2,65.2,44.11,65.19,44Zm-4.4.16c.06-.16-.22-.2-.66-.19.4-.27,1.34,0,2-.1.16.08.14.22.49.24.51,0-.15-.13,0-.24a2.06,2.06,0,0,0,.67.06c.16.12-.51.2,0,.24a1.5,1.5,0,0,1-1,.06c-.34,0-.23.16-.68.11-.08-.13.24-.11.51-.11,0-.1-.16-.11-.16-.19a6.73,6.73,0,0,1-1.71.35c.44-.27-.23-.11-.67-.06,0-.11.22-.13.18-.24C60.3,44,60.27,44.19,60.79,44.15Zm6.46-.86a6.59,6.59,0,0,0,1.68,0c.3,0,.36.06.67.06s.36-.06.68,0c1.31,0,3.06,0,4.72,0-.06.33-1.13.1-1.52.11a4.08,4.08,0,0,1-1.19,0c-.21,0-.17.12,0,.12-.18.15-.75,0-.67-.18-1.44.06-2.48,0-3.54.09C67.76,43.46,67.31,43.44,67.25,43.29Zm44.63,1.12c-.43-.15,1-.2,1.36-.11C113.15,44.48,112,44.24,111.88,44.41Zm2,1.52a5.47,5.47,0,0,0-1-.13c-.09-.24,1.14.07,1,.07.14,0,.82,0,1.36,0a8.55,8.55,0,0,0,1.34,0c0,.11.29.14.67.13a8.44,8.44,0,0,1-2-.07C114.67,45.87,114.27,46,113.83,45.93Zm-1.46-1.15c.12.18-.58.07-.35.3-.29,0-.43,0-.5-.13C111.82,44.9,111.75,44.71,112.37,44.78Zm-.85.17c-.48,0,.18.4-.52.3-.21-.15.51-.25,0-.3C111.07,44.81,111.48,44.81,111.52,45Zm.63,1c.51,0,.64.19,1,.06C113.7,46.05,111.76,46.27,112.15,45.92Zm-27.34-3a7.84,7.84,0,0,0,1.18,0c0,.34-1-.08-.86.29C84.56,43.28,84.87,43,84.81,42.92Zm18.55,0a18.05,18.05,0,0,1,3,0,8.43,8.43,0,0,1,1.7-.11c0,.17-.65.09-1,.11s-.6.11-.85.12S106,43,105.88,43s-.67.13-.84-.07A4.52,4.52,0,0,1,103.36,42.92Zm11.33,2.65a3,3,0,0,1-.85.12C113.74,45.48,114.45,45.48,114.69,45.57Zm1.73-.83a7.44,7.44,0,0,0,1,.19c-.54.45-2.07.21-3.21.22-.2,0-.15.11-.18.18-.46-.23-.91,0-1.52.05s-.44-.17-.83-.19c.55-.15,1.18.09,1.85,0,.31-.1.32-.3.86-.3,0,.1-.16.1-.18.18C115.21,44.94,116.39,45.23,116.42,44.74Zm-3-1.34c.18-.25.83-.24,1.53-.17.2-.11,1.45-.22,1.35.07C115.36,43.31,114.05,43.46,113.45,43.4ZM124.18,7.64c-.81.11-2.13,0-3,.1A15.16,15.16,0,0,1,124.18,7.64ZM48.46,47.91c.11-.2.64-.08,1-.06C49.37,48.05,48.83,47.94,48.46,47.91Zm1.19-.29H48.14C48.09,47.45,49.75,47.4,49.65,47.62Zm-.19.59c-.13.19-.46.08-.85.06C48.63,48.12,49.24,48.13,49.46,48.21ZM39.2,47.49c-.08.13-.83,0-1.18,0C38.18,47.31,38.7,47.5,39.2,47.49Zm10.56,1.27c1.2-.08,1.79,0,2.7,0-.26.23.75,0,.5.25-.56-.08-1.08,0-1.52-.07,0,0,0-.11,0-.12s-.67,0-.85,0,0,.09-.18.24c-.4-.2-.89,0-1.51-.13-.19,0-.09.06,0,.06-.18.18-.45-.07-.67-.06s1-.15.52-.24c.32-.14.85.1.49.24C49.41,48.87,49.87,48.92,49.76,48.76Zm3.44-1.24c-.13.22-1.23.07-1.86.11C51.7,47.37,52.53,47.66,53.2,47.52Zm-16.74.79c0-.15-.25-.19-.49-.24a.88.88,0,0,0-.35.18,6.61,6.61,0,0,0-1.17-.07c.41-.15.08-.19.52-.3.66.1,0,.07,0,.24.59,0,.59-.27,1.53-.17-.07.33.32.17,1,.19,0,.26-.63.29-1.36.29C36.06,48.33,36.26,48.32,36.46,48.31Zm16.19.11c.19-.12.9.07,1.52,0C54.11,48.62,53.06,48.46,52.65,48.42Zm-1.73.82c0,.13-.6,0-.85.06C50.15,49.07,50.66,49.14,50.92,49.24Zm-17.67-.83a2.41,2.41,0,0,1-1,.17C32.24,48.4,32.83,48.44,33.25,48.41Zm-4.71-.09a1.93,1.93,0,0,0,.5.06,2.41,2.41,0,0,1-1,.18C28.07,48.44,28.48,48.44,28.54,48.32Zm25.33-.8c2.31,0,2.93,0,5.23.1.52.09-.61.05-1,.05l-4.55,0C53.47,47.54,53.67,47.53,53.87,47.52Zm-32.26.94c-.73,0-.64-.16-.49-.31C21.64,48.13,21.46,48.35,21.61,48.46ZM14,49.13c-.44,0-.73,0-.67-.19C13.77,48.93,14.05,49,14,49.13Zm6.58,0A17.48,17.48,0,0,1,17.2,49c-.53,0-.39.18-1,.11,0,0,.17-.06.18-.12a9.08,9.08,0,0,0-1.87.11c.23-.29-.41-.29-.82-.37.42-.28,1.54,0,1.85.14a1.68,1.68,0,0,1,1.37-.35c.06.16-.64.05-.69.17.16.19.57,0,.68,0s.8-.08,1,0c0,0,0,.12,0,.12.22,0,.4-.09.68-.11s.24,0,.34.06.44-.14.84,0c.07,0,.27,0,.34.07S19.7,49.11,20.57,49.11Zm-.67-.18c-.76,0-1.32-.33-1.35.11C19.06,49,19.86,49.11,19.9,48.93ZM34,47.52c.1-.21.82-.09,1.19-.06C35.08,47.6,34.32,47.48,34,47.52Zm-.35.29a12.91,12.91,0,0,1,2,0A12.91,12.91,0,0,1,33.62,47.81Zm-22.91-.44a.92.92,0,0,1-.55.09l-.37,0a5.8,5.8,0,0,0-.6,0c-.29-.06,0-.07.5-.06Zm5.73,0a16,16,0,0,1-2.37.05c-.76,0-3.48-.05-2-.08C13.17,47.35,15.21,47.42,16.44,47.4Zm-7.87-41c.46.27-1.11,0-1.54.1a1.37,1.37,0,0,1,1.12,0C8.36,6.42,8.56,6.43,8.57,6.36Zm2.32.19L10,6.49c-.31,0-.58,0-.92,0a3,3,0,0,1,1-.11C10.46,6.37,10.86,6.42,10.89,6.55ZM12.05,7c.42,0,0,.2,0,.24a4.39,4.39,0,0,1-.83-.13C11.34,7,12,7.29,12.05,7ZM60.44,47.69a10.7,10.7,0,0,1,2.53,0A14.07,14.07,0,0,1,60.44,47.69Zm-46.93.89c-.1.53-1.5.51-2.54.29-.24,0,0,.1.16.12a1.51,1.51,0,0,1-.79,0,4.85,4.85,0,0,0-.86-.15c-.34,0-.13.07,0,.06a14.69,14.69,0,0,1-3-.07c-.46.09-1.57,0-1.52.23A20.51,20.51,0,0,0,1.42,49v-.29a11,11,0,0,0,.31-1.88c-.12-.58-.14,1.61-.37.81,0-.55,0-.89.13-.92,0-1.88.08-4.38,0-5.8,0-.14,0-.3,0-.37a.35.35,0,0,1,0-.16c0-.08.08-.12.14-.1a3.86,3.86,0,0,1-.1-2c-.16-.18-.11-.92-.18-1.35.13-.08.12.24.12.51.18-.43-.08-1.06.07-1.52,0-.19-.06-.09-.06,0-.23-.18.05-.27.06-.5v-.85c0-.27,0-.57,0-.84a2.64,2.64,0,0,1,.13-.5c0-.19-.15-.43-.18-.68s.07-.3.07-.51-.07-.16-.06-.34a7.56,7.56,0,0,0,.07-1.51.94.94,0,0,0-.07.42,17,17,0,0,1,.08-2.27c0-.27-.06-.55-.06-.85a3.55,3.55,0,0,0,.07-.67c0-.24-.09,0-.12-.18-.06-.3.06-.86,0-1.18.1,0,.13.3.11.68.1-.67.22.24.36-.15a2.49,2.49,0,0,1-.05-.34c0-.5-.13.16-.24,0s0-.36,0-.67c0-.07-.12-.48-.12-.52s.2-.76-.05-.67c0-.38.11-.24.12-.5s0-.32-.12-.35a4.74,4.74,0,0,0,0-2,8.61,8.61,0,0,0,.19-1.34c-.11-.07-.12.13-.13.33-.09-.29,0-.61-.05-1.18,0-.31-.2-.11-.24-.35.09-.53-.14-.73-.17-1s0-.56,0-.84c-.1-1.21,0-3.54,0-5.4l0-.88a1.81,1.81,0,0,1,.12-.89c0-.62-.12-.44-.12-.9,0-2.51,0-4.54.06-6.31.59,0,1.16,0,1.74.09a7.75,7.75,0,0,1-1.62,0A11.61,11.61,0,0,0,1.31,4c.21.56.13-.88.12-1.56V2.37c.34,0,.87.06.83.06.64,0,.84-.14,1.3-.11a15.64,15.64,0,0,0,4.18,0c.62,0,1.21,0,1.78,0h1.1a7.16,7.16,0,0,1,1.66.12,19.66,19.66,0,0,1,4,0C16.72,2.2,18,2.4,19.2,2.4c.9,0,1.77-.11,2.53-.1l3,0a10.46,10.46,0,0,0,2.53,0c.44.19.81,0,1.35,0a3.11,3.11,0,0,1,.5.06c.93,0,2.1-.09,3.21-.1.6,0,1.14.08,1.68.07.35,0,.66-.1,1-.11s.78.07,1.18.06a8.73,8.73,0,0,1,1.69,0c.16,0,.13-.07.17-.11a9,9,0,0,0,1.35.06,4.22,4.22,0,0,0,1.84.32c.33.18-.71.28-.54.59s.88,0,1.18,0,0-.09.18-.24c.64,0,.36.23.83.25.63.07.49-.15,1-.12,0,.11.2.13.16.24.58.06.65-.08,1.18-.05,0,.1-.16.1-.18.18a3.61,3.61,0,0,1,1.52.07c.2,0,.08-.07,0-.06a7.1,7.1,0,0,1,2,.07c.32,0,.13-.17.51-.05a2.72,2.72,0,0,0,1-.24c.23.06.21.21.5.25a2.09,2.09,0,0,1,.51-.06c0-.14-.28-.18-.15-.36.43,0,.2,0,.16.12.47.07.45-.1.85,0s.82.49,1.17.12c0-.07-.5-.08-.51,0-.27-.06-.17-.26-.32-.36a8,8,0,0,1,1.36,0c-.08.13-.93,0-.86.17a4.51,4.51,0,0,0,2.21-.17c.54.07,1.61,0,1.5.25.63.07.49-.14,1-.11.3,0-.11.07-.34.06.06.19,1.07.25.48.48a2.76,2.76,0,0,0,1.18,0,3.22,3.22,0,0,0-.84-.13c.28-.08-.25-.34.53-.35s-.19.08,0,.24c.58,0,.75-.2,1,0,.5,0-.16-.12,0-.24A9.12,9.12,0,0,0,61.33,3c.32.09-.31.25.32.3.29,0,.44,0,.52-.12s-.51,0-.5-.12c-.17-.21.52-.09.84-.12-.14-.23-.67,0-1.17-.06.29-.32,1.15-.07,2-.11-.07.08-.3.09-.35.18,1.1-.11,1.07.18,1.5.31a2.63,2.63,0,0,1,.34-.06c-.24-.19-.71-.31-.81-.55.37.05.66.13.66.31a1.13,1.13,0,0,0,.85-.18c.22,0,.31.13.32.24.54,0,.21-.13,1-.05.26,0,.67,0,.67.13.62,0-.07-.19.35-.3h-.51c.18-.11,1.23,0,1,.19.75,0,1,.09,1.68.07C69.7,3,68.31,3,68.77,2.72c.48,0,.38.19.83.19a2.63,2.63,0,0,1,.34-.06c0-.11-.2-.13-.15-.24a3.14,3.14,0,0,0-.68.05c-.3-.15,1-.1,1.35,0,0,.11-.22.13-.18.24a3.87,3.87,0,0,1,2,.14c.33-.11-.13-.21-.32-.31.94-.16,1.73.35,2.86.14.52,0,.2.21.84.13s.36-.16.68-.18A16.66,16.66,0,0,1,78.2,3c.17,0,.18-.13.51-.11s.23-.2.52-.24c-.19-.08-.14-.12.17-.12,0,.18-.49.36.15.42.44,0-.23-.1,0-.24a14.75,14.75,0,0,0,1.53-.11c.62,0,1,.22,1.84.19.4,0-.08-.27.52-.17s.08.07.16.12.54,0,.5.18c.68-.07.22-.2.52-.36a7.16,7.16,0,0,0,1.85,0c.36.12,0,.19-.18.3a5.52,5.52,0,0,0,1.69,0c-.15.2.1.26-.52.35,0,.08.42.06.67.07s.08-.26.18-.36c.52,0,.42-.22,1-.18.19,0,.14-.1.17-.17,1.1.09,2.11,0,3,.08.17,0,.14-.08.18-.12.71,0,1.23,0,1.69,0,0,0,0,.11,0,.12s.67,0,.84,0,.12-.12.35-.12c.21-.19-.55,0-.33-.24.77-.16.4.36,1.34.13,0,.1-.16.1-.17.18.51.08.94-.17,1.18,0,.19,0,.14-.11.17-.18a13.35,13.35,0,0,0,2.54,0c0,.08-.51,0-.52.11.21.2,1.87-.23.69-.17.08-.14.83,0,1.18-.06-.08.13.11.16.16.24s.09,0,0-.06c.41-.2,1.63.21,1.86-.1.53,0,.37.18,1,.12.08-.12-.24-.11-.5-.12.17-.13,1,0,1.17.07s-.2-.21.52-.18c.36,0,.32.09.33.18a11.65,11.65,0,0,0,1.69-.17c.1,0,.2.06.34.07a.94.94,0,0,0,.34-.06c.41,0,1.15,0,1.85,0,.31,0,.86,0,1.18,0s.83-.16,1.18,0a1.74,1.74,0,0,0,.67.06.93.93,0,0,0,.18-.12c.06,0,1.17.29,1.35,0l2-.05c.19,0,.72,0,.67,0,.23,0,.26.12.5.12.54,0,.47-.2.85,0l.51-.18c2.49,0,4.92-.06,7.1-.2A.8.8,0,0,1,127,2a36.93,36.93,0,0,1,4.91-.33c.44,0,.15-.23.68-.18-.08.19.2.25.5.31.13-.19-.46-.12-.33-.31.42,0,.82,0,.84.13.23,0,.32-.13.35-.24,1.17,0,1.57,0,2.87,0-.47.27-.45.31-.54.66.35,0,.32-.09.34-.18.47,0,.46.23.66.36.83-.11,1.56.12,2-.1.37,0,.23.11.5.12s.12-.12.34-.12c.59,0,.65.09,1.18.07.09.12.25.23.83.18.4-.19-1.37-.07-.33-.18a4.37,4.37,0,0,1,.68,0,6.73,6.73,0,0,0,.68-.12c.3,0,.36.06.67.06,1.31,0,3-.1,3.71,0,.2,0,.15-.11.18-.18a7,7,0,0,0,.71.05h1.1c1,0,1.93-.1,2.68-.2s.93.06,1.44.06a6,6,0,0,0,1-.11c.36,0,.32.11.49.12s1.41,0,1.52,0l1.24-.06c0,.17,0,.37,0,.61a2.14,2.14,0,0,0,.06-.67h-.57c-.27-.05.09-.07.64-.06V3.79c-.15-.59-.2,1-.3-.09-.17.38.16.44.05,1.43.14.33.23-.9.24-.14,0,1.19-.09,0-.18.69,0,.57.14.3.18.52s-.08,1.62.11,1.17c0,.84,0,1.56,0,2.24L158,11.25c-.19-.09-.24.36-.36,0a16.22,16.22,0,0,0,0,3c0,.14.06.15.12.17a31.11,31.11,0,0,0,0,3.71c-.05.73-.17,1.84.11,1.86a10.43,10.43,0,0,0,.05,1.36c0,.32-.07.74-.06,1a4,4,0,0,0,.11.51c.07.67,0,1.5.05,2.19s0,1.63,0,2.53c.05.58.16,1,.17,1.53a16.57,16.57,0,0,0,0,1.86c-.18-.13-.22.16-.36.15,0-.63-.23-.38-.23-.86-.17.15.08.54,0,1-.19-.43-.53-.58-.66.13a4.55,4.55,0,0,0,.12.51c0,.36-.05,1.17,0,1.86a4.86,4.86,0,0,1,.05,1.52,18.88,18.88,0,0,1,.22,3.21c0,.34.14.51.18.86a20.7,20.7,0,0,1-.08,2.86c-.23-.1-.25.42-.42.48-.1.93-.49,1-.62,1.83-.21-.35-.23,0-.3.49-.29-.64-.42.42-.66.47,0-.27-.06-.29-.06-.51-.08,0-.05.42-.06.67-.15-.41-.19-.08-.3-.52-.1-.07-.11.13-.12.33,0-.22-.17-.13-.24-.35,0,0,0-.3,0-.33s-.27.07-.3-.19.09-.19.07-.33a1.22,1.22,0,0,0-.3-.69c.05-.58-.09-.65-.05-1.18,0-.2-.11-.15-.18-.18a27.34,27.34,0,0,1,.5-3V37.89c-.36-.08-.5.5-.79.63,0-1.12-.37.1-.54-.36v-.68c-.14,0-.18.29-.36.15l.07-1.85q.2-.14.24-.66c0-.59-.16,0-.17-.35V34.1h.24c-.06-.67.19-1.16,0-1.35-.09,0,.11,1-.19.83l0-5.22c0-.23-.11-.27-.12-.51-.14,0-.18.28-.36.15a5.75,5.75,0,0,1-.11-1.7c-.18-.18-.11.37-.12.67-.06.53-.08-.3-.06-.51.07-1.16-.14-3.15.2-3.53a2.64,2.64,0,0,1-.17-1.36c.09.05,0,.51.12.52s.06-.17.12-.17c0-.4-.08-.79-.24-.85a28.33,28.33,0,0,0,0-3c.18.87.15-.7,0-.84,0-1.06.05-2.29,0-3.2,0-.62,0-1.28,0-1.95l0-1.78A9.87,9.87,0,0,0,152.24,8c0-.24.11-.11.18-.14a.42.42,0,0,1,.06-.29.44.44,0,0,0-.09-.31l-.21,0c-.2,0-.37-.13-.59-.13s-.42.14-.67.12-.34-.06-.25-.19c-.3.07-.4.26-.9.18,0-.07.24,0,.27-.12s-.5,0-.83-.07c0,0-.22-.12-.24-.12-1.16-.06-2.58.09-3.34,0a.88.88,0,0,0-.35.17,8.92,8.92,0,0,0-2.69,0V7c-.38,0-.92,0-1,.17-.52-.06.2-.16.18-.24a4.89,4.89,0,0,0-1.19.17,8.72,8.72,0,0,0-2.37.11c-.25,0-.42-.09-.67-.13a50.27,50.27,0,0,1-7.94.19c-.4.06-.82.11-1.18.18-.67,0-1.2-.14-2-.14V7.05a4.87,4.87,0,0,1-2.2.11c.21-.16.88,0,1.18,0s.39-.27,1-.24a1.44,1.44,0,0,0-.67-.12c.55-.1.27-.37.53-.48a14.18,14.18,0,0,1,2.37-.22c.32,0,.73,0,.67.18.25,0,.43-.08.68-.11,0-.11-.29-.14-.67-.13a7.21,7.21,0,0,1,2,0c-.19.18-.09.15.16.3.42,0,.57-.23,1-.06,0-.07,0-.1.17-.12,0-.18-1.39.09-1.17-.18a15.33,15.33,0,0,1,2,.07c.64,0,0-.21.36-.3a4.31,4.31,0,0,1-1.35,0c0-.11.12-.2.35-.24a1,1,0,0,0-.5-.18c-.62.11.29.17.15.3-.35,0-.32.09-.34.18a5.84,5.84,0,0,1-1-.07c.05-.08.42,0,.68,0-.25-.27-.91,0-1.19.11a3.05,3.05,0,0,1-1.17-.25c-.34,0-.06.31-.69.24a1,1,0,0,1-.49-.3c-.23,0-.22.2-.51.23-1.59,0-3.7,0-5.74,0-.38,0-.19.17-.51.17a1.39,1.39,0,0,0,.67.13c-.47.19.17.37.31.54h-.68c.25-.18.16-.34-.49-.36-.13.19.58.08.33.3a3.2,3.2,0,0,0-1.69,0c.29.13.64,0,1,0a12.3,12.3,0,0,1,1.5.25c-.24.08-.62.31,0,.36a13.28,13.28,0,0,0-1.54.29c-.46,0-.33-.12-.66-.13a10.47,10.47,0,0,0-1.36.06c-.27,0-.28-.07-.5-.07-.57,0-1,.08-1.52,0-1-.06-3.11,0-4.22,0-.3,0-.82-.17-1,0-.46,0-.33-.12-.67-.13s-.32,0-.34.12c-.55,0-.22-.2-.67-.18-.61-.05-.94.14-1.35,0-.19,0-.14.11-.17.18a10.19,10.19,0,0,0-2.19-.14,1,1,0,0,0-.35.18c-1.86,0-6.47-.07-9.61,0-.48,0-.84.09-1.35.11-1.1,0-2.15-.07-3,0,.86.06.59.17-.35.18.55,0-3.46-.05-4.89,0-.28,0-.28-.06-.5-.06s-.76.06-1.18.05-.66-.07-.84-.07a7.41,7.41,0,0,1-1.53.11,2.2,2.2,0,0,1-.5-.12c-.26,0-.56.15-.85.17-.09,0-.3-.06-.5-.06-.44,0-.88.11-1.36.11s-2.25-.06-2.86,0c-.19,0-.17.16-.52.12,0-.1.17-.1.18-.18-.3,0-.36.07-.68.06,0,.07,0,.1.17.12-.08.16-.53,0-.33-.12a3.48,3.48,0,0,1-1,.05c-.13,0-.93.11-1.19.11s-.63-.07-1-.06c-1,0-2.31.06-3.21,0-.43,0-.93.1-1.36.11a3.17,3.17,0,0,1-.5-.07c-.5,0-1,.07-1.35,0s-.61-.1-.84-.12-.79-.07-1-.07-.44.12-.51.12c-.28,0-.28-.06-.5-.06s-.36.06-.68,0-.67-.07-1-.06a11.13,11.13,0,0,1-2.7,0,10.57,10.57,0,0,1-2.37.16c-.24,0-.58-.07-.84-.06-1.8,0-3.68.18-5.23.08a2.4,2.4,0,0,0-1-.06c0,.07.31,0,.5.06-.37.1-1.94.12-1.84-.13-.13.15-.42.06-1,.11a4.69,4.69,0,0,1-1.53.11c-.07-.13.25-.11.52-.11-.1-.06-.38-.23.17-.18-.1-.18-.36,0-.67,0q.2-.07.18-.24c-.47,0-.44.09-.85.06.21-.24-.5-.3-.83-.19.2.21.92.24,1,.49-.26.09-.72.1-.86.23-.24-.07-.24-.23-.49-.3-.49,0-.42.28.16.24a1,1,0,0,1-1.17-.31c-.32.13-1,.12-.86.42-.24,0-.48,0-.51.06-.34-.12-1.11-.1-1.16-.31.44,0,.84,0,.66.18h.84c.15-.23-.81-.08-.66-.31a1.47,1.47,0,0,1,.84.07c0-.2-.73-.18-.82-.37-.52,0-.77.21-1.18.06,0-.28,1.23-.44,1-.6.4-.11.9.06,1.52,0-.29.12,0,.08,0,.24.79,0,.34-.4,1.2-.35.43,0,.2,0,.16.12.37,0,.24-.11.51-.12.77-.06.65.17,1.34.13s-.34-.15-.15-.3c.1.11.8,0,.84.13.4,0-.18-.17-.33-.19a12.71,12.71,0,0,0,1.69-.1c-.31-.21-.6.09-1,0-.07-.14-.74-.17-.33-.3-.76-.08-.67.16-1.35.11s-.13-.15-.84-.07c-.33,0-.53.11-.85.12a6.81,6.81,0,0,0-1.17-.19c-.58.06.47,0,.16.18-.66.19-2.11-.12-2.37.11a2.71,2.71,0,0,0-1.17-.13c.3-.32.93.13,1.35,0-.57-.24-1.37-.4-2-.62-.62.2.42.33.82.37-.08.22-1.31,0-1,.35-.29,0-.43,0-.5-.12a6.42,6.42,0,0,1-1.86.11c0-.13.75,0,.68-.18-.36-.07-.76-.13-1.17-.19s-.34.2-.35.36c-.4,0-1.23.07-1.35-.07s.74.09,1-.11c-.46-.28-1,.06-1.51-.07,0,.11.19.13.15.24H31.13c-.51-.13,1.21,0,1-.17a9.17,9.17,0,0,0-1.85,0c.9.2-.94.09-1.53.11s.87,0,1.19-.06c-.24-.25-1.3-.06-1.69,0a4.61,4.61,0,0,0-2.19-.07,8.34,8.34,0,0,0,1.68.07c0,.13-.59,0-.84,0a4.25,4.25,0,0,0-1.53.11,22.37,22.37,0,0,0-2.86-.13c-.18,0-.12.12-.34.11-.44,0-.55-.08-.49-.24-1.14.19-1.84-.13-2.87,0-.33-.12.08-.11.18-.24-.27,0-.29,0-.5-.06s-.23.18,0,.18a6.58,6.58,0,0,1-1.86.17c0,.08,0,.17.16.18-.4.11-.91-.06-1.52,0,.36-.13.07-.33-.32-.36.12-.18.35.06.67,0,0-.13-.13-.19-.5-.18-.74,0,.08.31-.35.42a9.45,9.45,0,0,0-1.85-.13V6.15c-.84,0-1.1.2-2,.16.25-.15-.26-.14-.32-.18s.12-.25-.33-.24.6.18.32.42c-.66,0-.5-.23-1.13-.19-.22,0,0,.11.15.12-.31.16-.65-.06-1.06-.06s-.8.1-1.16.11a4.64,4.64,0,0,0-1,0c-.11-.1.07-.1,0-.18-.5,0-.45.19-.88.05C5.3,6,5.86,6.09,5.78,6c-.53-.06-.41.07-.63.11a.74.74,0,0,1,0,.21c.06,0,.09,0,.12-.09a1.2,1.2,0,0,1,.61.24,2.3,2.3,0,0,0-.36,0,.37.37,0,0,1,0,.2s-.08-.31-.12-.27a2.27,2.27,0,0,0-.31,1.25c.06.46.14-.37.24.17L5.2,9,5,8.87c-.09.31,0,.36,0,.63,0,.55-.22.57,0,1,.06-.33.22-1,.25-.13a8.45,8.45,0,0,0,.07-1.61c.2,0,.11.7.11,1.07v1.34h-.3c0,.7.11.92.3.68v1c-.08-.07-.09-.3-.18-.35,0,.77-.11,1-.07,1.85,0,0-.06-.17-.12-.17-.08,1.3,0,2-.08,3.2.21.15.29.66.23,1.53.24,0-.06-1,.13-1.34a11.58,11.58,0,0,1,0,1.85c-.11.06-.12-.14-.12-.34-.07.59-.22,0-.3.32-.06.78.15-.22.17.35.07.76-.26.36-.18,1.17,0,.32.22-.25.3.18-.16.4.1,1.45-.13,1a10.42,10.42,0,0,1,0,2.36c.29.26.16-.7.19-1.17.24.15,0,.73,0,1.18a6.62,6.62,0,0,1,.12,1c-.2.16-.2-.24-.18-.68-.13,0-.13.42-.12.84-.16-.1-.21-.24-.3.15,0,.22.26-.19.29.35.16.19.22-.71.3-.15s0,.2-.12.16a15.17,15.17,0,0,1,0,2c-.3,0,.09-.85-.17-.85-.17.35,0,.49-.13,1s.2,0,.18,0c.21.16,0,.6.24.51a6.88,6.88,0,0,1,0,1.52,18.56,18.56,0,0,1,.1,3.21,3.63,3.63,0,0,1-.07,1.35c0,.18.12.12.12.34-.07,2.17.13,3.44,0,5.23,0,.18.12.1.12.29s-.11.3-.07.68c-.22.19-.19-.26-.29-.39a2.46,2.46,0,0,0,.16-.58,2,2,0,0,0,0-.85c-.18.08,0,.62-.13,1,0,.08-.17.09-.18.15-.06.27,0,.6-.07.93.2.15,0-.5.25-.34s.19,1,.29.36c.08.06.14,1.16-.07,1.13a5.73,5.73,0,0,1,.08,1.85c.29,0,.61,0,1,0,.63,0,1.35,0,2,0l2-.06c.46-.05.34.12.67.12a4.31,4.31,0,0,1,.84,0c.28,0,.27-.2.85-.11.31.2-.29.11-.51.18s-.23.16-.35.17-.93-.17-.84.06.24,0,.5,0c.07,0,.11.3.67.19.07-.15-.77,0-.5-.19.8-.06,1.79.15,2.52.14,0-.22-1.1,0-1.34-.19s.38-.19.36-.36a31.4,31.4,0,0,1,4.38.15,11.84,11.84,0,0,1,3.21-.1c.13-.22-.18-.29-.66-.3.06-.14.74-.06.85-.18s-.48,0-.67,0c-.56,0-1.16-.08-1.86-.07-.18,0-.12.12-.34.11a3.94,3.94,0,0,1-1.17-.12c-.39,0,.2.09-.18.18-1.15-.13-2.43.07-3.54-.09.47-.2-.93-.16-1-.36-.45,0,.14.33-.52.23,0,.07.3.06.5.07.54,0-.3.07-.51,0a4.57,4.57,0,0,0-1.17-.18c-.18.18.37.11.67.12,0,.2-.5.05-.85.05-.81,0-1.51.1-2.19,0,0-.13.22-.11.4-.12-.11-.29-.65,0-.88.11-1,0-.85-.28-1.62-.26V44a.27.27,0,0,0-.12.18c.13,0,.58,0,.74,0a3.79,3.79,0,0,1-.87.12c0-.75.14-1.66.09-2.18,0-.08-.12-.18-.12-.2,0-.19.12,0,.12,0,0-.23-.12-.47-.11-.7a1.33,1.33,0,0,1,.1-.52A1.7,1.7,0,0,0,6.31,40c0-.19-.1-.14-.17-.17a33.85,33.85,0,0,1,.08-4.05c0-.2-.07-.07-.06,0a8.38,8.38,0,0,1,.08-2.53,6.7,6.7,0,0,0-.18-1c0-1.35.18-3.2.33-4.7.28-.22.37-.71.61-.65-.06-1.45,0-2.12,0-3.54A.77.77,0,0,0,6.84,23a3,3,0,0,1,.07-.84c0-.41-.16.18-.18.32-.08.77.24.95,0,1.53a4.69,4.69,0,0,1-.17-1.53.47.47,0,0,0-.12.33c-.11-.11,0-.26,0-.34s.07-.44.24-.32c0-.22,0-.46,0-.68a2.42,2.42,0,0,1,.13-.5c0-.3-.19-.33-.12-.85.23,0,.15-.93.37-1-.07-.52-.23.24-.3-.18s.08-.82.18-.5c-.18-.42.16-1.24-.17-1.19s.18.8,0,.84-.1-.73-.12-1-.11-.44-.11-.52a9.5,9.5,0,0,1,.13-2.69c-.08-.45,0-1.19,0-1.85a5.37,5.37,0,0,0-.17-1,15.16,15.16,0,0,0,0,2,3.42,3.42,0,0,1-.17-1.53c0-.24,0-.62,0-.85a3,3,0,0,0,0-.74c.19,0,.12.32.24.38-.06-.33-.18-.56-.23-.93.18-.16,0-.46.13-.91-.16-.15,0,.64-.19.31,0-.36.08-.81-.11-1,.06-.13.09-.3.15-.41a1.45,1.45,0,0,1,.4.16c.11,0,.38,0,.13-.23.26-.07.62.19.42-.06.44,0,.57.22.84.31s-.34-.12-.25-.3a4.31,4.31,0,0,0,1.15.08,7,7,0,0,1,1.22,0c.17,0,.18-.14.51-.12-.46.26.38.11.49.3.2-.11,1.38-.17,1-.29.17-.2.33.07.5.06.47,0-.24-.16.18-.23,1.63,0,3.08,0,4.39,0,.27,0,.29.07.5.07A12.5,12.5,0,0,1,19.3,7a1.42,1.42,0,0,1,.67.12l2,0a9.45,9.45,0,0,1,4.19.45c-.07.24,0,.44.48.48,0,.11-.29.14-.68.12.36.12-.41.46.48.48-.58,0-.55.31-.86.42-.14,0-.68-.05-.51.11-1.71-.16-3.66-.11-5.39-.21-.28,0-.52-.12-.84-.13s-.87.08-1.35.05c-.29,0-.36-.06-.67-.06-.59,0-.93.19-1.35,0-.18,0-.12.12-.34.12-.46,0-.91,0-1.35,0a2.2,2.2,0,0,1-.5-.12c-.18,0-.32.1-.51.11-.4,0-.83-.07-1.18-.06s-.39.09-.68.11a3.65,3.65,0,0,1-1.32-.07c-.11,0-.12,0-.11.12a5.48,5.48,0,0,0-1.42,0c-.21-.09-.11-.24-.41-.3h0c.07.28.23.14.29.36a8.14,8.14,0,0,0,0,1.11.27.27,0,0,1-.11-.25c-.23.14.15.4.17.39.05.3-.15-.13-.18.08s.08.14.18.16v.63c-.12.27-.08,0-.24,0v.5c0,.36.25-.61.24.35,0,.69-.09,0-.25.16,0,.46-.1.33,0,.67s.25.09.36.19v1.18Q8,13.95,7.86,14c.08.22,0,.89.24.69a2.74,2.74,0,0,1-.25,1.67c0,.32.29.79,0,.84,0,.47.25-.38.18.52a.52.52,0,0,0,.12-.33c0,.09.18,1.54-.13,1.17,0,.52.22.42.18,1H8c.1.11.09.52.17.69a1.48,1.48,0,0,1-.24.83c.27,0,.14,1.26.17,1.52a1.27,1.27,0,0,0,.06-.5,26.64,26.64,0,0,1,0,3.21,2.58,2.58,0,0,0-.55,1.15c0,.52.16.33.12.85.22-.49.26.54.36-.15.12.21,0,1.2.29.86.15,2,0,4.6,0,6.41-.22-.12-.1-1-.11-1.7a12.42,12.42,0,0,0,0-1.69c-.08.32-.1.85-.24,1,0,.68.25.43.23,1H8.1a5.39,5.39,0,0,1-.19,1.68c0,.18.12.12.12.34v1.18c-.08.41-.12.1-.18.33,0,.67.09-.05.18.35S8,38,8.19,37.76a13.9,13.9,0,0,0-.07,1.76v1.13a.49.49,0,0,1,0,.12.36.36,0,0,1-.06-.19c0-.21,0-.45,0-.7,0-.5,0-1,0-1.45-.09-.2-.15-.5-.3-.52,0,.44,0,.72.17.68-.12.63,0,1.14,0,2-.08-.17-.09,0-.18,0,.06.59.08,1.12.09,1.85-.08.25-.18,0-.24.3,0,0,0,.06,0,.07.19-.06.18-.29.48-.22,0,.14-.35.3-.61.35h0L7.43,43c0,.16.48,0,.57-.22.12,0,.29,0,.19-.06H9.32l2.25,0c2,0,4,0,5.61,0,.19,0,.1-.06,0-.06.39,0,1.09,0,1.86-.05.1.19-.61.08-.18.24a2.5,2.5,0,0,0,.84.06c.44.07-.61,0-.85.12.64.07,1.16.19,1.84.25.19-.28.81-.4,1.38-.53.41,0,.87.05.83.24a24.51,24.51,0,0,1,3.38,0,.22.22,0,0,1,.15.25c.36,0,.33-.09.35-.18.77.06,1.67,0,2.7,0,1.5,0,2.95.16,4.2.2.61,0,1.22-.11,1.52.07.22,0,.27-.1.51-.11a2.23,2.23,0,0,1,.83.18,51.44,51.44,0,0,1,5.23,0c.41.15-.25.11-.18.3.81,0,.66-.37,1.7-.29-.15.11-.48.15-.35.36.6.05.66-.24,1.18,0-.11.12-.79,0-.85.17.39.14.88-.2,1.69-.11,0,.16-.24.2-.69.18.31.21.6-.1,1-.05,0,.12.74,0,.84.12a4.41,4.41,0,0,1,1.53-.29c-.18.08-.18.22-.35.3s-.36-.08-.67-.06c-.11.28.94.17,1.34.12,0,.18-.39.19-.36.36.27-.06.43-.17.69-.23.59,0,.58.15.83.24a11.44,11.44,0,0,1-3.37-.08c-.38,0,.2.1-.18.18a16.18,16.18,0,0,1-2.19-.07c-.16,0-.13.07-.17.11a8.2,8.2,0,0,0-2.36,0,9.59,9.59,0,0,0-2.87,0,5.51,5.51,0,0,0-1.51-.19c0,.23.68.2,1,.31-.22.24-.34,0-.84,0s-.08.21-.18.3a4,4,0,0,0,1.87-.29c2.12.07,3.34,0,4.88.09-.41.07-.34.33-.86.36.07.13.9,0,1,.12.06-.12,0-.18-.33-.18,0-.18.85-.09,1.36-.11,0,.1-.1.23.15.24.61.06.09-.29.85-.17-.3.19-.3.14.16.3.29,0,.11-.14-.16-.12,0-.09.5,0,.51-.12.4.1.78.17.48.36.69,0,.7-.19,1.53-.11.66,0,.5.26,1.17.25.48-.08,1-.14.69-.35.94,0,1.4-.1,1.36-.3.48,0,.44.09.84.07.08.13-.24.11-.51.12,0,.17.38.22.66.3a2.25,2.25,0,0,1,1.18,0c.2.19-.55,0-.35.24,0,.14.46,0,.34-.12a14.46,14.46,0,0,1,1.53,0c.06-.14,0-.23-.16-.3a5.1,5.1,0,0,1-1.18,0c.12-.3-.9-.2-.82-.49,1.93.07,5.33,0,7.08.11,0,.27-.4.06-.68.06L54,45c.46.12,1.33.1,1.5.31.58,0,.23-.24.86-.17.37,0,.23.11.5.12a.46.46,0,0,0,.51-.12c.08,0,.22.06.33.07a.89.89,0,0,0,.34-.06,11.51,11.51,0,0,0,2.2,0c.28,0,.31.05.33.13.5,0-.16-.13,0-.24.42,0,.4.13.66.18s.09-.21.19-.3c1.33,0,2.57-.1,3.71-.1.19,0,.25.12.33.13s.74-.05,1-.06a2.85,2.85,0,0,0,1,0c.14,0,.46,0,.5.12.85-.17,2.77.05,4.06-.09.13.19-.45.12-.52.24a8,8,0,0,0-1.69,0c-.32,0-.14.24-.68.18.52.21,1-.11,1.52-.11.17.14,1.13,0,1,.25.3-.09-.16-.26.36-.36s.43.09.84.06c.18-.17-.37-.1-.67-.12a5.66,5.66,0,0,1,1.69-.17c.48,0,1,0,1.35,0a2,2,0,0,1,.5.12c.2,0,.24-.11.35-.11.37,0,.65.14,1-.06.29,0,.32.05.33.12.49,0,.53-.13,1-.11,0,.11-.3.14-.68.12.11.12.51.14.66.24.39,0,.79,0,.69-.24.11,0,1,.17.84-.05s-.65.08-1.18,0a3.08,3.08,0,0,1,.85-.11c-.09-.19-.9-.13-1-.31a2.45,2.45,0,0,1-1.35-.13c.09-.13.72.24.85-.05,0-.08-.33-.06-.34,0-.54-.15.8-.39-.49-.37.1-.28,1.35.14,1.53-.17A11.1,11.1,0,0,0,77,43.53c-.5,0,.21.15,0,.3-.42,0-.42-.25-.66-.36a2.62,2.62,0,0,1-1,0c.64-.3,1.76-.05,2.88-.16-.08.09-.53.05-.35.24.65.05.29-.26,1-.18,0-.07,0-.1-.16-.12.56-.12,1.25-.19,1.37-.47.54-.05.52.1.84.13.74.05,1-.08,1.69,0,0,.13-.15.19-.52.17.49.3,1.79,0,1.84.38.71-.08,0-.35-.32-.43,0-.13.6,0,.85,0-.51.18.24.26.31.42A10.83,10.83,0,0,1,87.16,43c.46,0,.32.12.5.18a2.63,2.63,0,0,1,.34-.06c.35-.07-.48-.16.18-.24.36,0,.32.09.33.18a8.34,8.34,0,0,1,1.69-.16c.44,0,.46.19,1.18.12,0-.07-.31-.05-.51-.06.51-.18,2.37,0,3.38-.1.35.06.13.31.66.31.25,0-.06-.08,0-.18,1,0,2,0,2.7-.05,0,.18.2.29.83.25-.1-.06-.38-.07-.32-.18.33-.07.25.11.33.12.35,0,.78-.17,1.18,0a8.76,8.76,0,0,1-2,.1c-.4,0-.33.21-.85.18.52-.23-1.23-.06-1.51-.19l-.52.17c-.42,0-.42-.25-.65-.36-.52.17-.59-.15-1.35-.07-.25.36,1,.25.48.54-.44-.1-.85-.22-.82-.48-.73-.06-.78.16-.35.24-.11.1-.39,0-.33-.06a4.31,4.31,0,0,1-1.18-.13c-.32,0-.26.27.16.18-.23.18-.74-.12-1,.05-.06.1.15.11.16.18.28-.08,1.07,0,1-.17.67-.06.5.18,1.17.13.09.13-.33.08-.35.18s.31-.06.35-.06c.21,0,.26.13.49.12a5.54,5.54,0,0,1,.85-.11c.23,0,.15-.15.18-.24a3.19,3.19,0,0,1,1.17.24c.53,0,.49-.14.69-.23a4.2,4.2,0,0,1,.82.36,6.46,6.46,0,0,1,2.21-.28c-.17.21.66.09,1,.12.52,0,.35-.31,1.19-.23a2,2,0,0,1-.51.12c0,.14.74,0,.84,0-.13,0-.19-.12-.33-.18-.46-.18-.79-.07-.49-.24H98.63c.31-.21,1.06,0,1.86,0,.6,0,1.65,0,2.7,0-.13.18.16.22.15.36.88.08,1.27,0,2,.07-.08.14-.31.21-.69.24.47.19.75-.21,1.19-.23.6,0,.41.21,1,.18.31,0,0-.25-.5-.18.35-.3.59.09,1,.13.69-.07.22-.21.53-.36.66,0-.22.26.49.3.1-.14.86-.05.69-.29.51.11,1.45-.06,1,.12.46,0,1.34.09,1.52,0,.3,0,0,.11,0,.18.54.06.24-.19.51-.23.27.22.47-.11,1.35,0-.1.13-.36.2-.52.3-3.18-.09-4.46.18-7.26.19-.24,0,0,.11.16.13-.59,0-1.22.12-1.69.11a5,5,0,0,0-.5-.13c-.12,0-.41,0-.34.06-.27,0,.23-.17-.67-.12.3-.38,1.18-.09,1.7-.17a12.06,12.06,0,0,0-3-.38c.09-.05.18-.1.18-.18-.69,0-.4.29-.2.48.74.06.57-.2,1.19-.18-.1.28-.76.55.31.61a36,36,0,0,1-4.89,0,13.71,13.71,0,0,1-2.71.1c-.32,0-.14.23-.68.17a.73.73,0,0,1-.48-.42c-.81,0-.64,0-1.69,0-.08.12.1.16.15.24.28-.12,1-.1,1.2-.23,1,.39-.71.52-1.54.41a.83.83,0,0,0,.17-.12c-.08,0-1,0-.85.11-1,0-3.06,0-4.56.09-1,.06-2.14,0-3,0-.43,0-1,.15-1.53.17a5.39,5.39,0,0,0-1.69.16c.09.21,1,.14,1,.37a3.87,3.87,0,0,1,2.18.19,2.37,2.37,0,0,1,1.37-.35c.15-.17-.23-.15-.15-.3,1-.06.52.34.31.48.16.05.85,0,1.35.07.32,0-.25-.22.18-.3-.06-.11-.81.2-1.18,0,.17-.08.46-.12.52-.24,1.23.09,2.67,0,4.55,0,.53.12-1.05,0-.85.17,0,.16.56.13,1,.13s.15-.23.69-.18c-.42.18.21.24.49.19s0-.27.34-.06a1.64,1.64,0,0,0,1.18.13c-.17-.12-.74-.1-.66-.31.53,0,.44.17.83.19a2.63,2.63,0,0,1,.34-.06c.13-.16-.34-.12-.49-.18s.49-.06.5-.06c.39,0,.4-.1.69-.11.74,0,1.76,0,2.69,0-.43.16-.65,0-1.35,0,0,.16.56.13,1,.13,0,.18.37.23.66.3.55-.1-.43-.15-.15-.36,1,0,.66.37,1.15.49a10,10,0,0,1,1.51.13c.32,0,.12-.2.35-.24.87,0,.69.28,1.68.19-.11.28.62.26.48.55a2.64,2.64,0,0,0-1.53.17c.05.08.42.05.67.06a.24.24,0,0,0-.18.24c-.37,0-.53-.05-.49-.18-.25,0-.43.23-.51,0-.24-.1-.15-.13.34-.11-.31-.11-.16-.32.19-.36-.23-.18-.59.1-1,0,0-.14-.25-.23-.15-.42-.51,0-.17.3-.69.3-.05.15.66.05.5.24-.25,0-.88.06-.84-.07a2.14,2.14,0,0,1-1,.18c.3-.2.22-.37-.66-.31-.44-.14.45-.16,0-.3a1.4,1.4,0,0,1-.85.12c.07-.1-.12-.12-.33-.13.12-.13.36-.35,0-.47-.3.05-.23.24-.85.17-.21-.24.56-.12.35-.36-.66-.08-.44.16-.69.24s0-.28-.66-.19c-.1.07-.06.23-.52.3.13.14.42-.16,1-.05-.27.16.37.11.5.18s0,.14,0,.18.42.06.33.18a2.85,2.85,0,0,1-.85.06c.07-.08.3-.1.35-.18a1.77,1.77,0,0,0-.85.11c.06.29.86.24,1.51.19.16.18-.38.11-.68.12.3.15.47.28,0,.42,0,.06.33,0,.33.12.42,0,.57-.22,1,0-.14.26-1.53.14-2.54.16a13.22,13.22,0,0,1-1.52.05,1.64,1.64,0,0,1,.68-.05c-.53-.14-.58.05-1,.05a1.33,1.33,0,0,1-.5-.12c-.3,0-.53.15-.86.17s-.37-.06-.67-.06a6.22,6.22,0,0,1-1.68,0c.14-.31.81-.42,1.7-.29,0-.21-.76-.18-1.34-.19s-.2.09-.18.24c-.34,0-.53,0-.51.11-.3,0-.85-.06-.68.12,0,.11.63-.09.83.06a23.54,23.54,0,0,1-2.7.05c-.21,0-.42.1-.68.11l-2.53,0c-1.27,0-2.68,0-3.54,0,0,0,0-.11,0-.12-.17-.06-.47.11-.68.06.37-.39-.36.11-1.18,0-.2,0-.15.11-.18.18A5.79,5.79,0,0,1,75,46.64c-.53,0-.39.18-1,.11-.12-.21.11-.28.69-.23,0-.19-.5-.19-1-.19-.13.18.16.22.15.36-8,.2-16.15,0-23.95,0-1.32,0-2.39,0-3.71,0-.27,0-.29.07-.51.06-.57,0-1.68-.07-2.69-.08-.57,0-1.09.08-1.69,0-.8,0-3.21-.09-4.55,0a9.87,9.87,0,0,1-2.87,0,7.25,7.25,0,0,1-2.19,0c.1.06.38.06.33.18-1.26-.09-2.2,0-3.71,0,.06-.08.3-.09.34-.18-.68-.07-.44.2-.85.24s-.09-.27,0-.3c-.47,0-.72.14-1.19.17a7.54,7.54,0,0,0-1.51,0c-.31,0-.57-.07-.84-.07a12.56,12.56,0,0,1-2,.11,3.64,3.64,0,0,1-.5-.12c-.3,0-.45.2-.85,0-.57,0-1.93.2-2.71.22a4.64,4.64,0,0,1-.67-.06c-.3,0-.35.06-.67,0s-.35-.1-.5-.12-.32.06-.51.06c-.73,0-1.86-.12-2.53-.08-.3,0-.49.1-.85.12a1.8,1.8,0,0,0-.5-.13,5.71,5.71,0,0,1-1.52.05c-.18,0-.37,0-.59,0s-.5.06-.73.07-.42-.07-.81-.07l-4.69.1v-.09c0-.33.06-.42.06-.67,0-1.37-.13-2.56-.1-3.46,0-.45.08-.32.12-.64L3.6,40.43c0-.43,0-.88,0-1.39.06-.11.07-.38.18-.33,0-.2-.11-.14-.18-.17,0-1.1-.26-1.9,0-2.7,0-.6,0-.62-.05-1.35.07-.19.11-.48.3-.33,0-.75-.13-.22-.23-.51-.06-.78.15-.81.12-1.52,0-.31-.2-.11-.23-.34.11-.84,0-2,0-3.21,0-.35.12-.77.13-1.17,0-1-.22-2.92.08-3.54a1,1,0,0,0-.18-.35c.16-1.11-.14-1.78,0-3-.26-.28-.11-.66-.17-1.36-.07-.06-.18.27-.18.33s.11.31.11.51-.08.32-.06.5.11.46.12.68c0,.37-.06.62-.07,1a16.06,16.06,0,0,1,0,1.69,2.54,2.54,0,0,1-.13.5c0,.18.07.74.06,1.18s0,.65,0,1.35,0,1.43,0,2.36c-.09,0-.1-.16-.18-.18,0,.52,0,1.11-.18,1,0,.19.11.14.18.17s0-.59.06-.84a6.58,6.58,0,0,1,0,2.54c-.09.41.23.54.05.67-.12.35-.11-.08-.18-.34s-.13,0-.11-.35c0-.13.06-.16.06-.33.07,0,0,.31.06.51.16-.54,0-1.11.07-1.68-.33-.27,0,1.31-.37,1a8,8,0,0,1,.22,2.37c.26.23.08-.8.31-.66A7.12,7.12,0,0,1,3.11,35c-.09-.29-.08-1.25-.3-.69,0,.33.23.15.18.68-.35-.16-.23,1.11-.07,1.35a2.21,2.21,0,0,0,.12-1c.24.18,0,.86.06,1.36-.24-.4-.24.3-.37.65.23.2.22-.58.36-.15,0,.46-.25.41-.24,1s.09-.27.12-.33c.06.85.08,1.78.08,3v4.42c0,.25-.16,1.36.05,1.52l0,.61c1.21.07,3.22.06,4.09,0a10.18,10.18,0,0,1-2.57.11H2.91c0-.74,0-1.41,0-1.94-.22.21-.15.75-.36.47a16,16,0,0,0,0,1.7l.12-1.3c.19.2.13.7.06,1.3a4.6,4.6,0,0,0,.95.07c.23-.14-1.1,0-.52-.18l15.34.09c.28,0,.56.06.84.06s.66-.07,1-.05c.57,0,1.24.29,1.68.07.06.14.67.08.84.18s.17-.11,0-.12c3-.29,6.25.12,8.61-.12.25,0,0,0,0,.12a14.68,14.68,0,0,1,2-.11c0,.16-.66.08-.68.24.53,0,1.28-.22,1.69-.05,0,.26-.71-.07-.85.17-.54,0-.59-.11-1.18-.06a2.75,2.75,0,0,1-.34.05c-.06.14,0,.23.32.25-.54.06-.65.33-.69.41.26.23,1,0,1.34.13.08.19-.54,0-.68.06s-.09.11-.17.11c-.49,0-1.12,0-1.86,0-.28-.11-.24-.44.19-.48.13-.13-.61-.25-.67-.12-.52-.1.36-.19.36-.3-.37,0-.54,0-.52.18-.53,0-.37-.19-1-.13.3-.24,1.08.08,1.35-.17a5.8,5.8,0,0,0,1.86.07c.23-.25-1.34,0-.67-.24-.7.14-1.17,0-1.69.17-.32,0-.73,0-.67-.19a15.81,15.81,0,0,1-3.37,0,6.23,6.23,0,0,1-2,.11,8.55,8.55,0,0,1-1.52.17c0-.11.21-.13.18-.24-.43,0-.42.13-.69.17a10.84,10.84,0,0,0-1.69,0,1.3,1.3,0,0,0,.67.13c-.32.1-1.08,0-1.36.17-.76,0-1-.22-1.67-.25-.25,0,.06.08,0,.18-.72,0-.9-.16-1.68-.13-.17,0-.18.13-.51.11-.07.11.12.12.33.13a2.81,2.81,0,0,1-1.35-.07c-.38,0,.2.09-.17.18-.56-.05-.22-.4-1.17-.31.11.06.39.06.33.18-.57-.11-.63.14-1,0,.05,0,.19-.15,0-.17s-.46.13-.17.11c.07.17-.92-.05-.85.12s1.57-.07,1.34.25c.23,0,.14-.15.18-.24Zm17.69.48c0-.19-.1-.36-.66-.37l0,.36Zm-.13-.78h-.51c.16.18.16.42,1,.37C31.85,48.36,30.77,48.56,31.07,48.28Zm-12.81-.21c.49,0,.13.35,1,.25.2-.19-.26-.15-.33-.24C19.06,48,18.14,48,18.26,48.07ZM98.5,45.59c.39-.08,1.09-.05,1-.29-.54-.06-.36.15-.69.17,0-.15,0-.29-.32-.3Zm-7.92-.17h-.5c.11.18-.19.21-.19.35C90.51,45.8,90.41,45.56,90.58,45.42Zm.31.54c-.37.18-.19.28-.86.41C90.62,46.37,91.66,46.09,90.89,46Zm3-.28c0,.18-.73.34.15.36-.16-.22.37-.19.52-.3C94.29,45.76,94.24,45.67,93.94,45.68Zm-.15-.36c0-.09.28-.1.35-.18a2.46,2.46,0,0,0-.67-.06C93.41,45.21,93.5,45.3,93.79,45.32Zm-.88.65c0,.08-.24.12-.18.24a2.35,2.35,0,0,1,.68.07C93.45,46.1,93.44,46,92.91,46Zm-3.16-.8a12.29,12.29,0,0,0,1.86,0c0,.08.27.1.32.18s-.29.05-.34.11c.41.06.36.27,1,.25a2.49,2.49,0,0,0,.68-.17c0-.3-.35-.51-1.15-.55-.12.12.22.08.33.12s.5.26.15.3-.72-.14-.65-.36A14.32,14.32,0,0,0,89.75,45.17ZM89.47,44a2.18,2.18,0,0,0,1-.11c-.61.1-.5,0-1-.07ZM86,43.29c.13.05,1.31.17,1.18,0S85.91,43.14,86,43.29Zm-1.72.65a11.74,11.74,0,0,0,2.19.07c.19-.32-.74-.26-1-.13C84.77,43.91,84.56,43.75,84.25,43.94Zm-2.36,0c.55.2,1.3-.18,1.85,0C83.46,43.61,82.41,43.83,81.89,43.92Zm-.64-.66c.76,0,1.62.29,2.19,0A20.12,20.12,0,0,0,81.25,43.26Zm6.27,2.68s0,.07-.17.06c-.06.16.22.2.66.18C88.07,46,88,45.92,87.52,45.94Zm-.11-1.08c-.12.23.92.07,1.34.13-.29.19,0,.23.66.24C89.58,44.84,87.93,44.82,87.41,44.86Zm0,.42c.55-.05.53.09.67.18a1.42,1.42,0,0,0,.68-.11c-.66,0-.73-.11-.32-.25C88,45.09,87.15,45.25,87.38,45.28Zm-.21.9c-.47-.08-.29-.38-1.17-.31-.18.13.31.12.33.24s-.4.07-.35.18.06.15.67.12C86.5,46.08,86.92,46.29,87.17,46.18Zm-3.86-.39c-.16-.36,1.4.11.86-.29a2.44,2.44,0,0,0,1-.12A12.64,12.64,0,0,0,87,45.7v-.24c-.75,0-1.19,0-.83-.25-.9,0-1.52.13-2.37.16C84,45.64,82.24,45.57,83.31,45.79Zm-1.9.83a14,14,0,0,0,1.7-.23,14.43,14.43,0,0,0,2.36.14c.06-.14,0-.23-.16-.31a11.7,11.7,0,0,0-1.18.12c.42.1.59-.07.84.06a2.13,2.13,0,0,1-1.35-.13c.89-.09.28-.23.86-.35.32,0,.37.07.68.06,0-.17-.5-.14-.49-.3s.82-.08.34-.12-.55.33-1.37.29c.44.27-.25.29-.52.3.32,0-.11.23-.35.24.08-.3-1.17-.15-1.33-.37v.3c.45,0,1,0,1,.13C82,46.46,81.19,46.35,81.41,46.62Zm-.79-1.09c-.47,0-.43-.08-.84-.06C79.47,45.74,80.67,45.69,80.62,45.53Zm-1,.6c.73,0,.23-.16.52-.18.44,0,1,0,1-.11-.65-.06-1.09.09-1.35,0C79.9,46,79.52,46,79.58,46.13Zm-1,.29c.29,0,.83.18,1,0-.13,0-.2,0-.17-.12C79,46.3,78.59,46.29,78.56,46.42Zm-1.18-.13c-.55.07-.12-.19-.67-.12-.26,0-.15.19-.68.11-.22.2.55,0,.33.25-.5,0-.82-.25-1,0,.49,0,.51.14,1,.13a9.82,9.82,0,0,1,1.87-.29c0-.07,0-.17.18-.18.83-.07-.46-.06-.51.06-.23,0-.5-.25-.67-.07C77.4,46.19,77.62,46.27,77.38,46.29Zm-2-.43a3.89,3.89,0,0,0,1,.07c.22-.2-.55,0-.33-.24a6,6,0,0,1,1,.06c.29-.12,0-.07,0-.24-.5.06-1.34,0-1.52.17C76.34,45.69,75.43,45.79,75.38,45.86Zm-.69.36c-.15-.13-.31-.56-.83-.37.3,0,.38.11.33.24-.3,0-.84-.06-.68.12a8.59,8.59,0,0,1,1.34.07c.22,0,1.22,0,.68-.06Zm.54-.78c-.21,0-1.61-.17-1.18-.07A1.76,1.76,0,0,0,75.23,45.44Zm-1.33-.25c.54.08.13-.19.68-.11.26,0,.12.15.5.12V45c-.64,0-.8-.08-1.35-.07C73.65,45.08,74.32,45.05,73.9,45.19Zm-1.38.59c-.21.2,1.44.23,1,.13C72.85,46,73.19,45.71,72.52,45.78Zm-.65-.54a7,7,0,0,0,1.34.19C73.3,45.21,72.23,45.1,71.87,45.24ZM70,45.41c.41,0,1.33.24,1.51,0C71.11,45.38,70.06,45.22,70,45.41ZM69.3,46c.43,0,.77.28,1,.13C70.1,46,69.51,45.76,69.3,46Zm0,.54a12.41,12.41,0,0,0,2,.07c.18-.23-.94,0-.83-.24.24,0,.19-.15-.16-.12-.1.08.18.31-.18.3A.91.91,0,0,0,69.27,46.54ZM63,46.44a8.88,8.88,0,0,0-1-.07C61.78,46.57,63,46.53,63,46.44Zm5.79-1.16c-.13,0-.33,0-.34.06.67.06.53-.17.69-.3h-.67C68.37,45.2,68.84,45.16,68.83,45.28Zm-.56,1.13c0,.16.25.19.49.25.06-.08.25-.11.18-.24ZM66,45.26a8.22,8.22,0,0,0,1.7-.11c0,.16-.48.15-.69.24a1.58,1.58,0,0,0,1.19-.24,7.51,7.51,0,0,1-2-.19C66.28,45.13,65.9,45.12,66,45.26Zm.47.9c-1.71.05.67.18.67,0C66.79,46.11,66.72,46.15,66.43,46.16Zm-2.19-.07,0,.3c0,.08-1.21,0-.68.11a11.72,11.72,0,0,1,1.68.08c.28-.3-.86-.1-.65-.37.31,0,.37-.06.67-.05-.11.31,1.57.54,1.85.19-.68,0-1.3-.05-1.51-.07-.31-.3.56-.16.52-.36C65.31,45.92,65.16,46.14,64.24,46.09Zm-2.49-.86c.46,0,.33.12.67.13s-.21-.15.18-.18c.06.1.21,0,.5,0,.09.19-.32.19,0,.3s.62,0,.67,0-.18,0,0-.06c.86-.08.71.18,1.16.24,0-.24.32-.33.2-.6a5.85,5.85,0,0,1-1.51-.07c0,.08-.06.15-.34.12-.53,0-.48-.19-1.18-.12C62,45.05,61.61,45,61.75,45.23Zm.15.36c.63.16.3.22.84.07-.19.22.41.17.32.36.34.06.65-.19.35-.18,0,.06-.3.08-.34,0v-.12c.36,0,1.11.08,1.19,0a3.11,3.11,0,0,0-1.18,0,5.11,5.11,0,0,0-1.68-.19C61.28,45.63,61.69,45.54,61.9,45.59ZM60,46.06a3.22,3.22,0,0,1,.84.13H59.68c-.15.07-.23.16-.19.3,1,.08,1.06-.18,1.87-.17.11-.12-.3-.12-.33-.18s.34-.08.34-.12S61.05,46,61,46s.35-.14-.16-.12C61.2,46.13,60.1,45.91,60,46.06Zm-1.49-.49a9.25,9.25,0,0,0,1.68.07C60.11,45.29,59,45.44,58.53,45.57Zm-.57.28-.29,0c-.19,0-.11-.12-.5-.13-.12,0-.64,0-.68.12.3,0,1-.07,1,.07-.8-.06-.47.14-.68.17a3.93,3.93,0,0,0-1-.07c.09.27,1.32.14,1.84.26,0,.06-.14.07-.17.12a3,3,0,0,0,.84,0c.26-.23-.75,0-.49-.24h.84c.19-.25-.76,0-.83-.18s0-.08.12-.08S58.06,45.84,58,45.85Zm-2.64-.24c.9.07.41-.1.68-.11.7,0,1.47.14,2,.07-.25,0-.15-.15-.15-.24a12.83,12.83,0,0,1-2.54,0Zm-4.55-.15c0,.09.08.13.16.18a1,1,0,0,0,.69-.17A1.63,1.63,0,0,0,50.77,45.46ZM48.89,46c.3,0,1,.08,1-.05C49.7,45.85,48.9,45.83,48.89,46Zm-3.73.4c.33.1.22,0,.68,0C46,46.16,45,46.15,45.16,46.39Zm-.14-.6a4.51,4.51,0,0,0,1.69.07A6.6,6.6,0,0,0,45,45.79ZM41.86,45c.26,0,.14.19.67.12v-.18C42.28,44.94,41.92,44.9,41.86,45Zm-1.36.23c.56.1,1.27.06,1.19-.24-.1,0-.64-.15-.67,0s.2,0,.16.06C40.64,45,40.65,45.13,40.5,45.22ZM38.15,45c-.08.29.68,0,1,0s1.16.17,1.35,0A17.69,17.69,0,0,0,38.15,45Zm-1.38.65c.21.09,1,.11,1,0C37.48,45.59,36.8,45.48,36.77,45.61Zm9.34-1.32a8.1,8.1,0,0,0,1.34.13C47.48,44.12,46.62,44.19,46.11,44.29Zm-1.85-.07c.57-.07.88.24,1.18.07-.68-.07-.39-.14,0-.24A2.81,2.81,0,0,0,44.26,44.22Zm-2-.55c.16.14,0,.38.66.36C43,43.81,42.58,43.76,42.26,43.67Zm-.52.29c.91.09-.64.36.49.37C42.5,44.14,42.16,43.85,41.74,44Zm-4.56.22c-.2,0-.18-.1-.16-.19a2.46,2.46,0,0,0-.68.06C36.22,44.2,37.05,44.31,37.18,44.18Zm-1.31-.79c0,.09-.07.22.16.24-.05-.12.48,0,.5.06s-.43.05-.35.18c.75,0,1.77-.11,2.53,0,.42,0,.6.23,1,.25-.53,0-1.49.18-1.19.29.35-.19,1.5-.17,1.7-.35,0,0-.54,0-.33-.12s.71-.17.84,0c-.19,0-.47,0-.5.05a4.88,4.88,0,0,1,.83.19c-.19.09-.19.15.16.18-.12-.18.58-.07.35-.3-.42,0-.53.11-.67-.06l.53-.54h-.67c-.23.15.66.19.16.24-.17,0-.75,0-.68-.07s.47,0,.34-.05a9.45,9.45,0,0,0-1.51,0c-.35,0-1-.17-1,0a13.69,13.69,0,0,1,1.68.25c-.5.19-1-.13-1.34-.19a4.29,4.29,0,0,1-1.52,0c0-.17,1.1.08.85-.17A9.61,9.61,0,0,1,35.87,43.39ZM32.6,44.75a1,1,0,0,0,1.16.3.52.52,0,0,1-.33-.12,5.13,5.13,0,0,1,1.18,0c-.2.19.26.15.33.24.58.05.65-.08,1.18,0-.11-.19-.11-.12,0-.3ZM27.86,45a11.49,11.49,0,0,0,1.52-.05c.05.13-.49.06-.51.17s.33,0,.33.06h.34c0-.09-.05-.23.18-.24.22.26.87,0,1.35,0v.18c.7-.19,1.77.22,1.86-.05-.71,0-1.24-.15-.83-.31a4.58,4.58,0,0,0-1.53.17C29.68,45,28.19,44.55,27.86,45Zm-3.45-1.77c.5-.08.62.07.85-.11-.39-.08-.32,0-.84-.07Zm-1.07,1.14a3.6,3.6,0,0,0,1,.06C24.6,44.2,23.35,44.23,23.34,44.33Zm-.2.54c1.13,0-.16.2.33.3.75,0,1.26,0,1.85-.05.42-.08-.29-.18.18-.24a5.42,5.42,0,0,0,1.34.31c.29-.08.47-.2.52-.36-.61,0-1.35,0-.68.12-.58,0-.89-.17-1.51-.19C24.77,45,23.66,44.69,23.14,44.87Zm-.18.29c-.2,0-.1-.06,0-.12-.45,0-.36-.19-.84-.18C21.8,44.94,22.58,45.34,23,45.16ZM21.74,8.78c.2,0,.48,0,.51,0-.61-.05.47-.31-.32-.25C21.73,8.54,21.87,8.59,21.74,8.78ZM13.39,7.23a5.41,5.41,0,0,0,1.69-.05A7.59,7.59,0,0,0,13.39,7.23ZM8.06,8.74c.18,0,.3.06.45.06C8.41,8.63,7.91,8.55,8.06,8.74Zm-.22.78c-.14-.29.12-.29,0-.58C7.74,9,7.62,9.42,7.84,9.52Zm-.1,14.22c-.08-.18-.22-.18-.3-.36v.68C7.59,24.09,7.73,24.11,7.74,23.74ZM6.43,31.43c0-.65.28-.33.19-1.17-.19-.1-.16.57-.3.15A2.2,2.2,0,0,0,6.43,31.43ZM7.91,34.2c-.06-.53.1-.4.13-.67-.18-.05-.21.31-.31.49-.12,0-.07-.46-.23-.34C7.46,34.68,7.65,34.07,7.91,34.2ZM7.67,42c0-.21,0-.35-.11-.38C7.59,41.82,7.38,42.11,7.67,42Zm.39,2H7.5C7.21,44.22,8.05,44.22,8.06,44Zm1.15-.89c-.22,0-.46,0-.55.11C8.85,43.17,9.24,43.31,9.21,43.09Zm2,.2c-.57,0-1.41.12-1,.23C10.3,43.45,11.53,43.65,11.25,43.29Zm3.83.92C15,44,14.57,44,13.91,44,13.61,44.29,14.48,44.2,15.08,44.21ZM18.35,43c-.52-.17-1.11,0-1.68-.19-.12.16.28.08.5.13C17.56,43.05,18.16,43.27,18.35,43ZM21,44.79a3.7,3.7,0,0,0-1.53.35c.47,0,1.17.18,1.52,0C20.56,45.12,20.82,44.83,21,44.79ZM16.73,45c-.12.24.92.08,1.34.13a3.14,3.14,0,0,1,.68-.05c-.11.15.06.21.49.18.14-.18-.45-.12-.32-.3a1.79,1.79,0,0,0,1-.18A22.8,22.8,0,0,1,16.73,45Zm-8.61-.11c.1,0,.14,0,.09.12a2.23,2.23,0,0,1,.73,0C9.11,44.83,8.05,44.85,8.12,44.89Zm-2.68,0V45A.88.88,0,0,0,6,44.87a1.52,1.52,0,0,0-.38-.07v-.11Zm.07-1.07A1.76,1.76,0,0,0,5.14,45c.22,0,.12-.29.24-.51,0,0,.09.14.12-.1ZM5.22,33.05a2.18,2.18,0,0,0,.11,1c0-.49.14-.51.13-1ZM41.05,7.23c.06.11-.38.16-.86.23.34,0,.21.17.67.12C41,7.51,41.74,7.21,41.05,7.23Zm3.71-.1c-.13,0-.19,0-.16-.12-.56,0-.56.12-.85.17C44.05,7.15,44.74,7.26,44.76,7.13Zm83.53-.72c-.42,0-.68-.27-1-.07C127.46,6.38,128,6.58,128.29,6.41Zm2.51.43c-.31,0-.4-.06-.33-.18-.53,0-.6.1-1.18,0,0,.11.8.27,1,.25s0-.15.18-.12C130.46,6.93,130.91,7,130.8,6.84Zm2.88-.34c.08-.15-.87-.24-1-.13A8.44,8.44,0,0,0,133.68,6.5Zm19.69,28.63c-.05.65.29.67.24,0Zm-.09-4.56c-.18,0-.18.5-.18,1C153.31,31.69,153.28,31.09,153.28,30.57Zm4.58-1.79c-.11.22-.39-.08-.37.49.07.14.16.23.3.18C157.78,29.13,157.86,29.08,157.86,28.78ZM158,24.4c-.11,0-.12.23-.18.33-.14-.11-.3-.35-.3.32.08,0,.13-.07.18-.15q0,.54.18.51A2.5,2.5,0,0,1,158,24.4Zm-5.57-.78c0,.47-.14,1.57.11,1.52s-.14-.26-.06-.68c.08,0,.14,0,.12-.33C152.39,24.38,152.57,23.56,152.43,23.62Zm5.1-.76c0,.42.12,1.07.3.86,0-.64-.37-1-.17-1.69C157.49,21.86,157.52,22.56,157.53,22.86Zm-.28-2c.12.26.13.86.35.87C157.67,20.91,157.35,20.1,157.25,20.82Zm-4.74-10.26c0-.29.21-.25.19-.64C152.54,9.89,152.39,10.46,152.51,10.56Zm-6.29-5.12V5.2h-.51C145.67,5.35,145.77,5.46,146.22,5.44ZM125,5.6c.5,0,1.63,0,1.35-.11S124.63,5.52,125,5.6Zm-2.17-.43c.41,0,.34.23,1,.19C123.78,5.22,123.06,5,122.79,5.17ZM121.23,6c.06-.25-1,0-1.18,0A3.13,3.13,0,0,0,121.23,6ZM115,5.36c.45,0,.32.13.49.18A4.28,4.28,0,0,0,117,5.43c0,.09.36.07.5.13a13.14,13.14,0,0,1,3.2,0c-.15-.12,1,0,.35-.12-.32,0-.38.06-.68,0,0-.14-.65-.21-1-.24s-.43.06-.85,0-1-.12-1.34-.13c-.22,0-.23.08-.51.06C116.27,5.16,115,5.11,115,5.36ZM94.6,5.47c.4,0,.79.17,1.17.19a4.21,4.21,0,0,0,.85-.12c.17,0,.13.06.17.06s.16-.06.17-.06c.86,0,1.33,0,1.53-.23-.62-.06-1.6.09-2.53.11C95.47,5.43,94.79,5.21,94.6,5.47ZM71,7.78a2.45,2.45,0,0,0,1,0C72.22,7.57,71,7.64,71,7.78Zm3.06-.4c-.64-.13-.68.27-.35.3C73.63,7.49,74.33,7.61,74.1,7.38Zm-.83-.31c.4,0,.3.21.83.19C75,7.11,73.59,6.78,73.27,7.07Zm21-1.36c.06-.18-.37-.19-.32-.37.14,0,.34,0,.35,0C93.36,5.3,93.21,5.69,94.25,5.71ZM84.79,2.83a3.24,3.24,0,0,0,1.35-.06C85.47,2.79,85.12,2.63,84.79,2.83Zm-4.56.09c.64-.13.61.08,1.17.12,0-.14.33-.18,0-.3C81.13,2.84,80.19,2.7,80.23,2.92ZM70.61,3c.21.09.82.1.84,0C71.24,2.9,70.63,2.88,70.61,3Zm.68,3.19a4.09,4.09,0,0,0,1.35,0c-.17.24.64.06.67.06.36,0,.43.18.84.19-.11-.27.92-.11,1-.3.3,0,.85,0,.67.13-.53,0-.68-.15-.84,0a2.86,2.86,0,0,0,.84.07c.31,0,1.42-.42,1.52-.11-.09,0-.19,0,0,.06.22-.17,1,.27,1.18-.05-.1-.09-.65,0-.67-.13.81,0,1.41.17,1.86,0,.13,0,.27.18.33.19s1.08,0,1.18,0,0,.12,0,.12a8.71,8.71,0,0,1,1-.05c0,.07,0,.17.16.18.37-.12,0-.19-.16-.3.71-.06.2-.24,1-.29.33,0,.21.16.67.12A1.52,1.52,0,0,1,84.63,6,23.79,23.79,0,0,1,88,6a1,1,0,0,1,.68-.18c1.81,0,2.66-.08,4.56-.09.15-.43-1.24-.13-1.85-.13-1,0-2-.11-2.86-.14,0,.1-.13.15-.34.18a21.77,21.77,0,0,0-3.55.1c-.1-.14.49-.19-.16-.19-.2.11-.65.13-.85.24a25.76,25.76,0,0,1-3-.08,5.17,5.17,0,0,1-1.85,0c.19.29-.86.13-1.19.23,0-.12.46-.11.51-.24a7,7,0,0,1-1.51,0c-.28.24.72,0,.66.19s-.8,0-1.52,0c0,.07-.06.14-.34.12.34-.2-.06,0-.5-.07a3.42,3.42,0,0,0-1.53.11q0-.15.18-.24c-.62-.06-.55.13-.85.18a10.27,10.27,0,0,1-2.35-.2c0-.07.31-.13,0-.18s-.28.23-.52.3c-.46,0-.78-.26-1,0,.72.09,1.3,0,1.51.13-.28.06-.77.08-1.19.12-.72.06-.25,0-.84-.07C67.41,6.47,71.35,6.38,71.29,6.22Zm-7.94.25c.13-.21-.58-.22-.84-.13S63.09,6.56,63.35,6.47ZM58.23,7.7a6.52,6.52,0,0,1,1.34.06c-.11-.1-.6-.37-.83-.24.11,0,.2,0,.17.06A1.46,1.46,0,0,0,58.23,7.7Zm-1.15-.61a1.54,1.54,0,0,0,1-.06A1.54,1.54,0,0,0,57.08,7.09Zm-.49-.31c0,.25.42.17.83.13C57.61,6.71,56.9,6.81,56.59,6.78Zm-.33-3.42c.48.16.81-.1,1.18-.17A2.08,2.08,0,0,0,56.26,3.36ZM55.94,3c.08-.19-.35-.19-.84-.18C55,3,55.45,3,55.94,3Zm-2.38.35c.42,0,.81,0,.85-.12C54.16,3.13,53.45,3.14,53.56,3.35Zm-2,2.92c.64.09.34-.16.85-.11.33,0,1.68.28,1.86,0-.61,0-1.29.09-1.52-.07,0,0,.54,0,.17-.06C52.62,6.18,51.41,6,51.55,6.27Zm-.18-2.94c.47-.05.43.09.84.07a.21.21,0,0,0-.16-.24A.93.93,0,0,0,51.37,3.33Zm-5,3.09c.85-.14,1.35.16,1.69,0-.52-.06-.52-.3-1.17-.31-.2.09-.2.15,0,.24A.74.74,0,0,0,46.32,6.42ZM44.65,6c.45,0,.56-.08.52-.24C44.72,5.75,44.35,5.88,44.65,6Zm-9.27-.12c.13,0,.2,0,.16.12.48.07,1.17-.09,1.19,0S36,6,36,6.17c.6.12.62,0,1.18,0-.24-.18.07-.23-.14-.36A16.86,16.86,0,0,1,35.38,5.87Zm-10.14.41c.32,0,.37.07.67.07-.13-.17.25-.16.19-.3A1.53,1.53,0,0,0,25.24,6.28Zm-2.36,0a2.76,2.76,0,0,0,1,.13c0-.09-.08-.14-.16-.19.59-.18,1,.15,1.35,0-.17-.17-1.08-.1-1.51-.19,0,.09.05.22-.18.24,0-.11-.57,0-.67-.12C21.63,6.31,22.32,6.2,22.88,6.27ZM1.41,8.81a10.62,10.62,0,0,0,0-2.26c0,.33-.07.14-.12-.07C1.33,7.48,1,8.3,1.41,8.81Zm.12.58c.06,0,.07-.45,0-.55-.06.55-.24.51-.25,1.34C1.48,10.45,1.41,9.48,1.53,9.39Zm-.14,2.89c.09-.22.07-1-.11-1C1.38,11.73,1.18,12.05,1.39,12.28Zm2.08,3.31A4.44,4.44,0,0,0,3.3,14.4,1.53,1.53,0,0,0,3.47,15.59Zm-2,.74c0-.63.08-.76-.12-1A1.15,1.15,0,0,0,1.43,16.33ZM3.09,27.89a3.76,3.76,0,0,0,0-1c-.11,0-.2.1-.24.33C3.06,27,3,27.69,3.09,27.89Zm-.12,1c0-.1.24-.49.06-.67-.27.42,0-.43-.12-.68C2.56,27.58,2.83,28.71,3,28.89Zm-1,7c.08-.22.12-1.17-.05-1.18C2,35.2,1.81,35.59,2,35.92Zm0,7.36c-.08-.09-.12-.31-.12-.76-.19-.1-.24.37-.3.87.11-.06.14.23.12.78C1.86,44.23,1.92,43.75,2,43.28Zm-.31,2.51a4.6,4.6,0,0,0,.36-1C1.87,45,1.59,44.64,1.67,45.79Zm1.2-.68c-.09-.84,0-2.53-.23-2.72-.09.42,0,.27.06.69C2.73,43.78,2.61,45.34,2.87,45.11Zm5.22,3c.48-.06,1.15-.08,1.27-.23-.69,0-.61-.09-1.18-.07Zm-1.41.36a7.31,7.31,0,0,0-1.33,0c-.3.14,0,.4.38.24C5.16,48.65,6.39,48.49,6.68,48.43Zm3.79.19a2.49,2.49,0,0,1-.4,0l-.61,0c-.46,0-.83,0-.78.13s.4,0,.65,0l.66,0C10.29,48.76,10.52,48.74,10.47,48.62Zm0-.06c0-.06-.11-.1-.26-.12a5.52,5.52,0,0,0-.64,0c-.64,0-1.41,0-1.86,0-.07.11-.88,0-.86.18.9,0,1.45,0,2-.07l.85,0ZM81.24,6.22c.11-.16.48-.23,1-.23a.74.74,0,0,1-.51.12s.07,0,.17.06C81.86,6.25,81.49,6.21,81.24,6.22ZM92.31,44.59c-.11.2-.64.08-1,0C91.47,44.48,92,44.57,92.31,44.59ZM20,6.49a7.4,7.4,0,0,1-2.36,0c0-.25.26,0,.51,0A7.6,7.6,0,0,1,20,6.49ZM5.4,14.17c.06.52,0,1.2,0,2.2A10.19,10.19,0,0,1,5.4,14.17ZM77.3,47.85c-.26.33-1.51.14-2.2.11-.46,0-1.25.1-1.34-.13A24.75,24.75,0,0,0,77.3,47.85ZM97.47,46c-.31,0-.36.07-.68.06a.85.85,0,0,1-.31-.48C97,45.65,97.42,45.76,97.47,46ZM80.66,48.06a15.1,15.1,0,0,1-2.19,0A10.51,10.51,0,0,1,80.66,48.06Zm-15-.34,2.87,0c-1.6.26-3-.06-5.23,0A14.1,14.1,0,0,1,65.67,47.72Zm32.79-1.41H96.78C97.1,46.26,98.39,46.05,98.46,46.31Zm4.73-.15a1.64,1.64,0,0,1-1,.05A1.73,1.73,0,0,1,103.19,46.16Zm-2.7.1a4.72,4.72,0,0,1-1.68-.07,4.4,4.4,0,0,1,1.35-.11C100.15,46.18,100.28,46.24,100.49,46.26ZM84.54,44.84c-.7-.07-.67.12-1.19.11-.39-.36-1.09,0-1.51-.07.09-.05.18-.09.18-.18.34,0,1.11-.06,1.17.07C83.57,44.72,84.58,44.52,84.54,44.84Zm25.8-37.05a35.11,35.11,0,0,1-3.54,0,31.53,31.53,0,0,1,3.21-.1C110.3,7.65,110.32,7.72,110.34,7.79ZM40,2.06h1.18C41.1,2.16,39.88,2.3,40,2.06Zm100.87-.13c0-.1.71-.18,1-.18s.94.05.83.19A16,16,0,0,0,140.83,1.93Zm-92.6.12a10,10,0,0,0,1.85.07c.68,0,1.6-.09,1.68.13C50.66,2.16,48.51,2.43,48.23,2.05Zm42.15.33c-.57-.21,1.27-.06,1.52-.17,0,.07.31,0,.5.06C92.15,2.53,90.62,2.28,90.38,2.38Zm-31.73.34c.43,0,.87,0,.83.18C59,2.91,58.56,2.9,58.65,2.72ZM47,2.58c-.07-.16.91.06.85-.11.13.15,1.32-.06,1.17.19C48.32,2.65,47.86,2.55,47,2.58Zm-5.4,0a8.12,8.12,0,0,1,1.51.19S41.42,2.82,41.62,2.55Zm5.89.28c.56,0,1.2,0,1.17.18C48.41,2.91,47.45,3,47.51,2.83ZM49.69,3c.14-.2-.68-.08-.49-.3.57,0,.57.2,1.17.18C50.33,3,50.08,3,49.69,3Zm68.92,4.64a5.14,5.14,0,0,1-1.86.11l-4.22,0c-.69,0-1.61.22-1.85-.07,1.34.14,2.79,0,4.22,0C116,7.65,117.25,7.7,118.61,7.66Zm-14.68.09a10.52,10.52,0,0,1-1.68,0A3.81,3.81,0,0,1,103.93,7.75Zm-9.77-.12A6.18,6.18,0,0,1,93,7.74C92.85,7.51,93.77,7.67,94.16,7.63Zm7.75,0c0,.23-1.84.1-2.19,0A15.1,15.1,0,0,1,101.91,7.68Zm29.36-.12a5.12,5.12,0,0,1-1.69.05A9.57,9.57,0,0,1,131.27,7.56Zm13.5-.21c-.19.2-.61.05-1,.05-1.45,0-3.48.09-4.89.09.26-.33,1.09-.1,1.52-.11C141.6,7.37,142.84,7.34,144.77,7.35Zm-24,.33c-.21.2-2,.14-1.85,0C119.44,7.74,120,7.63,120.8,7.68Zm8.44-.13c0,.17-.8.14-1,.06C128.26,7.47,128.94,7.58,129.24,7.55ZM24.61,2.14a12.66,12.66,0,0,1,2-.05A12.66,12.66,0,0,1,24.61,2.14ZM36.79,48.55c-.23.1-.76.09-1,.18a.52.52,0,0,0,.33.12c-.28.22-.25-.14-.67-.07A3.12,3.12,0,0,1,36.79,48.55Zm4,.15c-.16.3-.82.1-1.35,0C39.61,48.62,40.42,48.73,40.83,48.7Zm-5.6.68c-.51,0-1,0-1-.18C34.34,49.33,35.39,49.15,35.23,49.38Zm3.88-.15a2,2,0,0,1-1.17-.07c-.42,0-.53.11-.85,0A5.88,5.88,0,0,1,39.11,49.23Zm-3.69-.33c-.15.14-.55,0-.85.06-.1,0-.13.11-.17.12-.27,0-.29-.08-.5-.07a2.33,2.33,0,0,1-1,.18c-.16-.18.38-.11.68-.12-.08-.19.41-.24-.16-.3.22-.21.35.06.51.07s.05-.1.17-.12a10.8,10.8,0,0,0,1.18.06C35.23,48.85,35.29,48.89,35.42,48.9ZM26,48.9A17.37,17.37,0,0,1,24,49c.08-.13-.24-.11-.5-.12a3,3,0,0,1,2,0c0-.15-.3-.19,0-.3-.74,0-2.68,0-2.85-.32.7,0,1,.17,1.67.19.21,0,.59-.17.18-.18,1.09-.18,3,.09,3.88,0-.3.22-1.18.17-1.53.23-.13.13.61.25.67.12.62.16-.65.13-1,.12s.09-.18.19-.3c-.68,0-1-.07-1.52-.07-.15.23.54.14.67.18s-.26.1-.18.12.64,0,.5.19C26,48.79,26,48.86,26,48.9Zm9.39.9c-.68,0-1.26.22-1.86.29-.45.06-.23-.1-.68,0a27.54,27.54,0,0,1-4.23.27c-.16-.08-.56-.08-.66-.18-.05-.28,1-.16.52-.42.6-.09.75,0,1.35,0,0-.26-1-.17-1.67-.19,0-.11.21-.13.18-.24a16.2,16.2,0,0,0,3.2.08c.07.13-.25.11-.51.12a1.17,1.17,0,0,0-.69.29c.6.18.53,0,.85-.11a20,20,0,0,0,3.54,0A1.36,1.36,0,0,0,35.37,49.8Zm-3.21.1c0-.08-.36-.07-.49-.12-.13.24.63.18,1.17.19C34,50,32.65,49.87,32.16,49.9ZM27.49,49c0-.06.33,0,.34-.11s-.71,0-1-.07c0,.06.21,0,.34.06.07.19-.48.27.32.24-.38.16-.5.1-1,.06-.13,0,.36-.08.34-.06a10.66,10.66,0,0,0-1.18,0c-.08-.13.24-.11.51-.11a5.28,5.28,0,0,1,2.38-.35c-.1,0-.18.1-.18.18.35-.08.32-.29,1-.23-.05.15.05.25.5.24-.19.35-1.06.21-1.7.29,0-.17.28-.12,0-.24S28,49.11,27.49,49Zm13.87-.75c0,.09-.51,0-.52.12H39.49c-.59,0-1.3,0-1.34-.19.41,0,.37.11.85.07v-.18c-.47-.2-1,0-1.85-.07-.18-.23.53-.09.85-.12s.59-.1.85-.11c.85,0,1.76,0,2.36,0,.41.15-.25.11-.18.3-.14-.25-1.42-.21-2-.13.14.17.46.27,1,.3.11-.15-.06-.21-.5-.18C40.16,47.87,40.71,48.25,41.36,48.28ZM23.44,49c-.68.26-.85-.13-1.85-.07.73.08.33.21-.35.23.11-.28-.65-.09-1-.3.12,0,.72-.19,0-.18.17-.24.86,0,1.35,0-.12.13-.88,0-.69.29.17,0,.14-.07.18-.12h1.18c.27,0-.26-.29.52-.24C23.11,48.77,22.1,49,23.44,49Zm23-.15c.59,0,.4.16,1,.06C47.48,49.15,46.28,49,46.39,48.86Zm101-3.2a15.1,15.1,0,0,1,2.19,0A15.1,15.1,0,0,1,147.41,45.66ZM46.56,48.74c-.34.08-.79.11-.86.29-.58,0-1.29,0-1.34-.19a4.55,4.55,0,0,0,1.52,0c0-.06-.2-.05-.33-.06A1.54,1.54,0,0,1,46.56,48.74ZM150,48.68c0,.11-.29.13-.68.12,0,.16.28.12,0,.24a18.64,18.64,0,0,1-2,.1c-1.08.06-2.2.15-3.38.16a2.89,2.89,0,0,1-.5-.06c-1.7,0-3.39.17-5.07.2-.3,0-.7-.07-1-.06s-.48.11-.68.11-.58-.06-.84-.06c-1.16,0-2.63.09-3.88,0,.15-.16-.23-.15-.16-.3-.68.08,0,.13,0,.3a9.44,9.44,0,0,0-2.37.17c-.39.14-.47-.06-.67-.07-.37,0-.71.19-1.18,0,.18.38-.5.1-.86.23a1.77,1.77,0,0,1,.66.3c.28-.09-.06-.22.36-.35s.59.11,1.17.06V50c.57,0,.11-.31.86-.35,0,.11-.21.12-.18.24.66,0,.89-.22,1.35,0a5.15,5.15,0,0,1,1.87-.23,3.52,3.52,0,0,1-1,.17,4.21,4.21,0,0,0,.67.19c.37,0-.16-.13-.17-.12s.3,0,.51-.06.28-.31.85-.12c.17.17-.37.07-.51.12s0,.22-.35.24a5,5,0,0,0,1.68.13c0-.28-.67-.05-.83-.19s.57-.15.69-.29c.56.06.07.11.15.3a2,2,0,0,0,1.17.25c0,.21-.64.38-.85.17-.47.05.44.12.15.3a3.12,3.12,0,0,1-1.18,0c-.16,0-.37.06-.68,0-.78,0-1.67-.13-2.52-.14-.35,0-.46.06-.68.06-1.21,0-2.7-.11-3.87-.08-.51,0-.88-.05-1.35-.07-2.84-.12-5.82-.16-8.58-.36-.28,0-.44-.09-.67-.12a16.3,16.3,0,0,0-1.86,0,5.52,5.52,0,0,0-1.35,0c-.53,0-.43-.17-.83-.19-.84.11-1.77-.09-2.7,0-.3,0,0-.23.35-.17-.61-.22-1.52.07-1.36.17-.62-.07-1.41-.07-1.51-.31-.8.27-2.16-.21-2.87.1-.31,0-.4-.12-.5-.12a4.13,4.13,0,0,1-.51.05c-.73-.05-2-.19-3-.2-.25,0-.84,0-.85.12-.2,0-.14-.11-.16-.18a14,14,0,0,1-2.36,0c-.16,0-.14.08-.18.12-.62-.11-1,0-1.34-.13s-.24.12-.51.12a13.46,13.46,0,0,0-1.85-.13c-.43,0-1.26,0-1.52.05s-.69.1-1,.11c-1.23,0-2.49,0-3.54,0a11.39,11.39,0,0,1-2.7,0c-.28,0-.38.11-.68.12s-.29-.07-.5-.07c-.38,0-.93.11-1.35.11-1,0-1.86-.11-2.87-.07-.26,0-.3.05-.51.05s-.55-.06-.84-.06-.48.1-.68.11-.31-.06-.5-.06-.36.06-.68.06c-1.31,0-2.72-.09-3.88,0-.27,0-.28-.07-.5-.06a8.54,8.54,0,0,1-2.36,0,18.22,18.22,0,0,1-2.87,0c0-.11.56,0,.51-.17a1,1,0,0,0-.68.17,9.25,9.25,0,0,0-1.68-.07c-.39,0-.2.17-.52.18-1.71,0-3.26-.09-4.72,0-.39,0-.65.1-1,.11-1,0-2.13-.07-3.2-.08-.32,0-.7.07-1,0s-.5-.1-.84-.12-.52.06-.84,0c-1.25,0-2.71-.08-4-.14-.1-.18.65,0,1.18,0,.32,0,1.1-.28,1.18,0,.59,0,.42-.21,1-.17,0,.1.12.16.33.18-.08-.13.59-.26,1,0,.19-.22-.62-.1-.49-.3l2.53,0c.16-.23-.73-.1-.48-.36,1.17.14,2-.22,2.86.08.35,0,.36-.09.18-.18.39-.08.62.16.67,0,.4,0-.2.16-.18.24a14.83,14.83,0,0,1,3.21-.1c0-.06-.2,0-.33-.06a20.58,20.58,0,0,1,3,0c.6,0,.43-.21,1-.17a3.54,3.54,0,0,0,1,.12c.28,0,.32,0,.34-.12.37,0,.91.15,1,0-.12-.14-1,0-1.35-.07.06-.15-.05-.26-.49-.24a2.63,2.63,0,0,1-.34.06c.1.06.38.06.32.18-4.17-.16-6,0-9.94-.13-.2-.08-.06-.09,0-.17-1.08,0-2,0-2.87,0-.18,0-.12.11-.34.11-.46,0-.94-.07-.83-.3-.45.07-.53.05-.35.24-.17,0-.17-.14-.5-.13.08-.21.73-.22,1-.35a5.71,5.71,0,0,0,1.52.07c.25.21-.58,0-.52.18.33.14,1.33,0,.85-.18.66.07,1-.12,1.35,0,.07.13-.24.11-.51.12.24.16,1.08,0,1-.12a20.74,20.74,0,0,0,2.86,0c.48,0,.71.15,1.18.19.18,0,.12-.12.34-.12,1.57.05,3.6,0,4.89.09.16.21-.53.09-.85.12A2.31,2.31,0,0,0,64,48c2.12.15,3.69.13,5.73.09.12.12.5.05.16.19.53.07.42-.1.68-.12,1.34.09,2.84.13,4,.09.63,0,1.42-.05,2-.05s.88.07,1.35.07c.26,0,.58-.06.84-.06s.39.12.67.13,1.61-.06,2-.11c.18,0,.13-.11.35-.12a4,4,0,0,0,1.17.07c.57,0,.72.14,1-.05.53,0,.55.16,1.17.12,0-.07-.3-.05-.5-.06.19-.24.63,0,1,0,2.11,0,4-.06,6.58,0,.79,0,2.25,0,3.37,0,.3,0,.35.07.67.07.68,0,1.52-.17,1.85.07a5.81,5.81,0,0,1,2-.11c.08,0-.39.09-.5.06s.93.11.67-.06a3.35,3.35,0,0,0,1.34.13c0-.06-.2-.05-.33-.06a27,27,0,0,1,3,0,8.16,8.16,0,0,0,2.52.25c-.1-.12-.86,0-.67-.24,1,.06,1.13-.16,2.2-.11.63,0,1.29.14,2,.14,0,.07-.31,0-.51,0,.36.17,1.12,0,.68-.17.39,0,.64,0,.67.12,1-.17,2.63,0,3.89-.09-.58.18.71.25,1,.12-.09-.22-.86.16-.67-.12,1.62,0,3.59.05,4.72,0-.05.1.16.1.16.18l.52-.18c.72,0,1.48,0,2.19,0,1.22,0,2.54.07,3.88.08.31,0,.7,0,1,0,1.42,0,3.93.08,5.73,0,.55,0,1-.1,1.53-.11,1.09,0,2.13,0,3.2,0l3.88-.1c.31,0,.36.07.68.07s.46-.06.67-.06a2.93,2.93,0,0,0,1.35-.05l4.39,0c0,.1-.21.12-.18.24H148c-.37,0-.09.21-.19.3.38,0,.25-.11.52-.12s.15.1.33.12a1.23,1.23,0,0,0,.51-.06C149.54,48.56,149.6,48.79,150,48.68Zm-87.84-.5c-.34,0-.67-.28-1-.07C61.44,48.1,61.77,48.38,62.11,48.18ZM55,49c-.32-.07-.79-.08-1.18-.13-.1.22.88.37,1,.31C54.31,49.17,55.06,49.12,55,49Zm1.65.67c0-.16-1.11-.24-1.34-.13A4.61,4.61,0,0,0,56.63,49.7Zm5.74-.14c-.38,0-1.4-.17-1.52,0C61.44,49.51,61.86,49.71,62.37,49.56Zm4.29-1.3c-.23-.13-1.52.06-1.19.12C65.62,48.25,66.54,48.41,66.66,48.26Zm11.41,1.1a2.53,2.53,0,0,0-1.18,0C77.25,49.45,78,49.56,78.07,49.36Zm5.06-.09c0-.14-.46.06-.51.12h1.52C84.31,49.18,83.48,49.31,83.13,49.27Zm20.43-.41a1.13,1.13,0,0,0-.85.18C103.14,49,103.58,49,103.56,48.86Zm.87-.53c-.62.06-2-.26-2.19,0,.64.08.26,0,.51,0C103.29,48.13,104.35,48.72,104.43,48.33Zm3.72-.1c-.32-.11-1,0-1,.17A1.74,1.74,0,0,0,108.15,48.23Zm.33.12c.49,0,.51.14,1,.13C109.71,48.28,108.64,48.23,108.48,48.35Zm7.18,1.43H115C114.7,50.05,115.85,50,115.66,49.78Zm2.53,0c-.9.07-.51-.3-1.33-.25,0,.19.57.19.82.3s-.54.05-.35.24A1.13,1.13,0,0,0,118.19,49.74Zm5.37.63h.67C124.38,50.14,123.44,50.14,123.56,50.37Zm1-.59a2.2,2.2,0,0,0-1,.11.52.52,0,0,1,.33.12C124.34,50,124.57,49.93,124.6,49.78Zm8.74.53a2.87,2.87,0,0,0,1,.37c.28-.21-.48-.19-.67-.24s.05-.1,0-.12l-.33-.07c-.22,0-.45,0-.68-.06C132.5,50.37,133,50.3,133.34,50.31Zm-1.19.18h-.84C131,50.66,132.4,50.67,132.15,50.49Zm-1.49-.43c.13.3.87,0,1.17.24-.05-.13.49-.06.51-.17C131.7,50,131.4,50.15,130.66,50.06Zm-1.38.53c.42.08.49-.09.85-.12.18,0,.9.21.85,0C130.66,50.33,129.25,50.35,129.28,50.59Zm-2.69-.14c.41,0,.87-.05.85-.23C127,50.25,126.57,50.26,126.59,50.45Zm17.29-1.75c-.06-.11,0-.26-.49-.24s-.39.17-.19.36C143.66,48.86,143.55,48.7,143.88,48.7Zm2.38-.34a.51.51,0,0,1-.33-.13c.18,0,.43,0,.17,0-.37.13-.57-.06-1.18,0-.07.25.61.16,1,.12C145.87,48.39,146.14,48.46,146.26,48.36Zm-102.2-.12a10,10,0,0,0-1.7.23,6.9,6.9,0,0,1-1.16-.37,6.4,6.4,0,0,1,1.87-.35,2.66,2.66,0,0,1-1.19.24c-.06.15.22.19.66.18.13-.3,2.13-.64,2.37-.16-.42,0-.52-.12-.84,0,.69.28,2-.11,2.52.14V47.9c-.63,0-.81.06-1.35.05-.32-.35,1.61-.3,1.69-.11a4.08,4.08,0,0,1,1.35,0c-.16.1-.62.09-.68.23-.32,0-.11-.2-.5-.18s-.07.18-.35.18c.05.08.42.05.67.06-.2.26-.94.28-1.53.29S44.68,48.24,44.06,48.24Zm.13.78h-.51c.42-.14-.25-.12-.15-.3C44.06,48.71,44.1,48.87,44.19,49Zm2.88-.34a7.13,7.13,0,0,1,1,.07C48.07,48.84,46.82,48.87,47.07,48.68Z"/><text class="cls-3" transform="translate(11.82 35.24)">METAL MATCH</text></svg>