<?xml version="1.0" encoding="utf-8"?>
<!-- Generator: Adobe Illustrator 23.0.2, SVG Export Plug-In . SVG Version: 6.00 Build 0)  -->
<svg version="1.1" id="Laag_1" xmlns="http://www.w3.org/2000/svg" xmlns:xlink="http://www.w3.org/1999/xlink" x="0px" y="0px"
	 viewBox="0 0 18 17" style="enable-background:new 0 0 18 17;" xml:space="preserve">
<style type="text/css">
	.st0{fill:#FFA500;}
	.st1{fill:#FFD400;}
</style>
<g>
	<g>
		<path class="st0" d="M31.7,3.3l1.6,3.2l0.2,0.5L34.1,7l3.5,0.5L35,10l-0.4,0.4l0.1,0.5l0.6,3.5l-3.1-1.7l-0.5-0.2l-0.5,0.2
			l-3.1,1.7l0.6-3.5l0.1-0.5L28.4,10l-2.5-2.5L29.4,7l0.5-0.1l0.2-0.5L31.7,3.3 M31.7,1l-2.5,5l-5.5,0.8l4,3.9l-0.9,5.5l4.9-2.6
			l4.9,2.6l-0.9-5.5l4-3.9L34.2,6L31.7,1L31.7,1z"/>
	</g>
</g>
<g>
	<polygon class="st0" points="9,19.8 11.5,24.8 17,25.6 13,29.5 13.9,35 9,32.4 4.1,35 5,29.5 1,25.6 6.5,24.8 	"/>
</g>
<g>
	<g>
		<polygon class="st1" points="9,1 11.5,6 17,6.8 13,10.7 13.9,16.2 9,13.6 4.1,16.2 5,10.7 1,6.8 6.5,6 		"/>
	</g>
</g>
</svg>
