<svg id="Layer_1" data-name="Layer 1" xmlns="http://www.w3.org/2000/svg" viewBox="0 0 658.77 69.73"><defs><style>.cls-1,.cls-2{fill:#231f20;}.cls-2{fill-rule:evenodd;}.cls-3{font-size:25px;fill:#fff;stroke:#fff;stroke-miterlimit:10;stroke-width:0.25px;font-family:AgencyFB-Bold, Agency FB;font-weight:700;letter-spacing:0.06em;}</style></defs><title>Artboard 2 copy</title><rect class="cls-1" x="14.37" y="19.56" width="402.04" height="40.02"/><path class="cls-2" d="M69.12,22.23c0,.12-1.09.08-.82.24H67.12c-.2-.09,1.55-.14.41-.18A9.3,9.3,0,0,1,69.12,22.23Zm5.17-.4c-.11.06-.79,0-.81.12-.81.06-.55-.11-.77-.13-.63-.05-2.32.1-1.95-.12A27.26,27.26,0,0,1,74.29,21.83Zm-5.19.52h2C71.05,22.54,68.73,22.6,69.1,22.35Zm22.16-.84a7.63,7.63,0,0,1-2,.06c-.73,0-.27.2-.82.24H84.53c-1.24-.06.71-.08,1.19-.06-.1-.14-1.35-.12-1.15-.3-.73,0-.26.2-.81.23a10.82,10.82,0,0,1-3.5-.37,14.23,14.23,0,0,1-3.15-.07c1.8-.12,4.51.13,6.28.2-.24-.06-.89-.06-.76-.18,1.43,0,3.11,0,3.12.25,2.21.14,3.67-.19,5.53-.17-.1,0,.25.2.78.13.08-.17-1.32-.13-.75-.37A19,19,0,0,0,94.08,21c.71,0,1.2.13,2.35.07a3.2,3.2,0,0,1-.79.06c-1.34.15-1,.57-3.23.59,1-.07.78-.33,1.63-.42a5.34,5.34,0,0,0-1.17-.06,3.65,3.65,0,0,0-.84.42C91.18,21.72,91.29,21.61,91.26,21.51ZM77,22.31c.25.21-1.41.22-2,.12A6.11,6.11,0,0,1,77,22.31Zm8.66,0h-.79a11.74,11.74,0,0,1-2-.13c-3.47-.05.58,0,1.19-.12C84.55,22.18,85.73,22.17,85.65,22.34Zm-5.92.1a13.14,13.14,0,0,1-1.57-.06c.47-.11,2.09,0,1.61-.3C80.65,22.11,80,22.4,79.73,22.44Zm-4.66-.61c-1.08,0,0-.19.81-.12-.32-.15-2.75,0-3.14-.13.92-.12,1.39,0,2.76,0,.11.14,1.36.12,1.15.3C75.91,21.89,75.35,21.65,75.07,21.83Zm-8.28.1c-.43-.26,3.25-.25,2.76,0A21.18,21.18,0,0,0,66.79,21.93Zm104.29,37c-.43.2,1.21.1,1.95.13a4.46,4.46,0,0,1-2,0c-.73,0-.26.2-.81.24-.93-.11-2.23,0-3.15-.07-.15,0,.15-.16,0-.18s-2.77,0-1.56-.12a7.48,7.48,0,0,1,2.35.18,17.68,17.68,0,0,0,2.37-.11c-.49-.26-1.29,0-2.36,0-1.27-.29-7.17,0-9.82-.21,5.69-.06,13.05,0,18.5.06C175.65,59,172,58.75,171.08,58.92Zm12.69-.74c.52-.27,2.15-.08,3.17-.18a7.29,7.29,0,0,1,1.58,0C189.2,58.44,184.13,58.17,183.77,58.18ZM180.25,58c-.28,0-.63.16,0,.18.8,0,1-.12.4-.12a27.53,27.53,0,0,1,3.15,0v.12c-3,0-5.87.23-8.3.21a25.64,25.64,0,0,0-3.14-.07c-.47-.08-.14-.09,0-.18a19,19,0,0,0-3.13-.18c-.35-.24,3.23.07,2.38-.12.78-.18,1.14.18,1.54.25a2,2,0,0,1,1.17.12c.42,0,1.19,0,1.58,0,.18,0,0,.18.77.13.41,0,.18-.07,0-.12a16.71,16.71,0,0,0-1.95-.13c-.07,0,.57-.11.41-.12-.68,0-2.3.1-2-.12C176.36,57.87,178,57.94,180.25,58Zm-.81.17a12.12,12.12,0,0,0-1.95-.12C177,58.21,179.11,58.3,179.44,58.16ZM72,21.58c-1.62,0-1.55-.24-3.52-.19a9,9,0,0,1,3.15,0,11.65,11.65,0,0,1,3.55,0c.91.14-1-.05-2,0A3.54,3.54,0,0,0,72,21.58ZM191.69,57.84c1.53,0,3.49.28,1.14.3C194.21,57.94,191.45,58,191.69,57.84Zm-3.2.41h2C191,58.44,187.86,58.43,188.49,58.25Zm-122.92-36h1.18l0,.24H65.54C66.21,22.41,65.51,22.45,65.57,22.28ZM168.06,57.77c.29-.16,1.81-.12,2-.29,2.74,0,6.15,0,8.27.08-2.38.15-5.2,0-7.49,0C169.62,57.64,169.26,57.77,168.06,57.77ZM41.4,56.22a34.76,34.76,0,0,1,6.32-.16,16.38,16.38,0,0,1-3.15,0C43.32,56.13,42.51,56.24,41.4,56.22ZM95.56,21.83c-1.7,0,.63.25-1.21.23.25.06.9.07.77.18a18.2,18.2,0,0,1-2-.06c-.66,0-2.3.07-2-.13a16.29,16.29,0,0,1,2,.07c.85,0,.08-.2,0-.18.29-.12,1.77,0,1.21-.24,1.82.15,2.21-.12,3.55,0-.22.05-.43.1-.42.18A10.07,10.07,0,0,1,95.56,21.83Zm65.05,35.68a6.93,6.93,0,0,1,2.36,0c.38,0,.31-.07.41-.12a21.13,21.13,0,0,0,2.76,0c.45,0,1.78-.07,1.56.12a33.79,33.79,0,0,0-3.56.17C162.89,57.65,162.28,57.49,160.61,57.51Zm182.55,1.88c.54.25-3.58.4-3.15.06a12.73,12.73,0,0,0,1.56.12c.94,0-.42-.16-.77-.18-1.7,0-1,.33-2.79.29a8.8,8.8,0,0,1,3.2-.41C342.17,59.27,342.14,59.39,343.16,59.39Zm-32.66-.27c-1,0-2.5.15-2.35-.12a12.18,12.18,0,0,0,2,.12c.32-.2-1.59-.08-1.15-.3,1.05,0,3.78.24,3.15,0,.59-.16,2.16,0,1.95.18-.46,0-1.14,0-1.58,0a1.18,1.18,0,0,0-.4.12C311.6,59.15,311,59.11,310.5,59.12Zm5.81.8c-1.2.14-4.06,0-5.91,0,.54-.1,1.07-.19.84-.41,1.33-.06.59.18.75.3,1.05.06.48-.12.81-.18s.93-.06.79,0c.19-.09.13-.16-.37-.24-.23,0-.49,0-.4.06a12.85,12.85,0,0,0-2.34-.19,6.22,6.22,0,0,1,2.36,0c2.11,0,2-.18,4-.05a8.41,8.41,0,0,1-2.38.11l0,.18a22.06,22.06,0,0,1,3.15,0c.47,0,.35-.11.42-.18a12.37,12.37,0,0,1,1.56.13,18.24,18.24,0,0,1,2.38-.11c0,.19-1.15.22-2.39.23-1.42.12-1.22.22-1.63.41-1.5.09,0-.26-1.55-.18C315.83,59.81,315.92,59.92,316.31,59.92Zm21.81-1.2a8.08,8.08,0,0,1,1.57.06c.75,0,1.17-.07,1.58-.05,1.06,0,1.69.18,2.74.19-1.07.32-2.75-.16-4.34,0A8.6,8.6,0,0,0,338.12,58.72Zm-5.53.16a5.24,5.24,0,0,1,2-.05,20.32,20.32,0,0,1,3.16-.17c-2,.09-.7.25.76.3-1.73.32-3.33-.11-5.52,0C333,58.94,332.89,58.9,332.59,58.88Zm-35.08.21h1.18c-.24.15-.38.31-1.62.3C296.77,59.22,297.65,59.23,297.51,59.09Zm.3.78a11,11,0,0,0,1.95.12,5.59,5.59,0,0,1,1.2-.11c0,.08-.09.17.37.18C300.35,60.12,297.91,60.18,297.81,59.87Zm3.92.13c.45-.24,1.87,0,3.55,0-.73-.26,2.66,0,4-.11.27.26-2.07.15-3.18.17A38.2,38.2,0,0,1,301.73,60Zm-.75-.3a2.72,2.72,0,0,1,.79-.06c0-.1-.27-.16-.76-.18-.06-.08,2.29-.07.81-.18.2-.22,1.38,0,1.56.06.47,0,1.13,0,1.58,0,.19,0,.23.11.38.12.59,0,1.38,0,1.16.12.7,0,2-.05,1.57.13-1-.09-2.4-.06-3.54-.13a6.19,6.19,0,0,0-2.34-.13c.69.12,2.59,0,2.32.31C302.54,59.81,302.61,59.55,301,59.7Zm42.25-.85c-.24-.05-.47-.11,0-.12,1.65,0,5.45.05,8.27,0,1.43,0,1.41.1,0,.06C348.72,58.86,345.84,58.94,343.23,58.85Zm-39.8.07a6,6,0,0,1,2-.29c-1.19.08,1,.32-.83.3.24.12,2,0,1.55.24-1.47-.18-3.34,0-5.5-.13,1-.16-.63,0-.36-.24C302.1,58.73,301.82,59,303.43,58.92Zm.86-.59c-1.28-.15,2.81,0,2.77-.12,1.1.1,1.68-.06,2.75.07-1.46,0-3.49.23-4.35.17C306.79,58.33,305.79,58.32,304.29,58.33Zm27.45,1a4.92,4.92,0,0,0,1.2-.11c1,0,.47.15,1.55.18-.93.19.11.31-1.61.36-.27-.19.7-.18.43-.36-1,0-2.26.2-1.22.29-.08.07-.39,0-.39,0h-.79c-.27-.19,1.1-.11.83-.3a23.84,23.84,0,0,1-3.55,0c0-.17.92-.22,1.61-.29A16.33,16.33,0,0,1,331.74,59.36Zm46.94-.47c-.74-.12,3.16,0,4.34,0C382.32,59.11,380.34,58.84,378.68,58.89Zm-15.5,1.16a20,20,0,0,0,3.13.13,8,8,0,0,1-2.76,0,19,19,0,0,1-2,.17,27.39,27.39,0,0,0,4.34,0c-.08,0,.06.11,0,.12a8.15,8.15,0,0,0,1.61-.24,3.31,3.31,0,0,1,1.16.12c1,0,2.18-.09,2.77,0,1.51-.08,0,.27,1.55.19.56,0,0-.11-.38-.13.31-.13,2.21,0,3.16,0-.49.09-1.51.09-2,.18.07,0,.39.06.38.12.88,0,1.27-.13,2-.18-.39.21,3,.16,3.91.2-.75.06-1.39.14-2.38.17a8.86,8.86,0,0,0,1.57.06c-1.26.18-5.84.23-8.3.22-.66,0-.74,0-.77-.12-.42,0-.3.1-.8.12-.83,0-.62-.13-.78-.13-.49,0-.67.11-1.19.12-.85,0-2-.12-3.14-.13-1.76,0-3.35.07-5.13,0-1.55,0-3-.16-4.7-.2-.66,0-1,.06-1.19.06-2.62,0-5.17-.22-7.48,0a9.45,9.45,0,0,0-1.17-.12c.33-.13,2.44,0,2-.24-1.14.09-2.31.17-3.19.29-1.84-.21-5.26,0-7.86-.14a14,14,0,0,1-1.55-.18,21.55,21.55,0,0,1-2.74-.19c.33-.28,2.29-.06,3.16,0,1.22,0,2.65,0,3.55,0a4.23,4.23,0,0,0,.79-.06c.29,0,1.06.12,1.17.13.47,0,1.4-.07,2-.06a23.7,23.7,0,0,0,3.16,0c.09.18-1.61.22,0,.3.58,0-.15-.08,0-.18a11.36,11.36,0,0,0,2.39-.23c3.08.1,5.11,0,7.46.2a12.86,12.86,0,0,0,3.19-.36c1,.06,2.1.09,3.54.07l0,.24C362.61,60.24,363.28,60.21,363.18,60.05Zm-14.2.14a2.3,2.3,0,0,0,.77.12c0-.28-1.1-.12-2.35-.12.35.1.1.3.75.36C349,60.41,347.67,60.28,349,60.19Zm2.74.13c-1.23,0-1.06.16-2,.17a1.5,1.5,0,0,0-.79,0c1.48-.06.6.23,1.95.19C350.5,60.45,351.89,60.51,351.72,60.32Zm2.74.13a9.58,9.58,0,0,0-2.33-.25c-.35.17.54.16.36.3C353.43,60.53,353.35,60.39,354.46,60.45Zm16.89.4c.31,0,.46,0,.38.12,1,0,2,0,2-.23A11.61,11.61,0,0,0,371.35,60.85Zm-11.79-.21c-1.26.06-3.87-.16-3.15,0C356.88,60.68,360.47,60.76,359.56,60.64Zm1.23-.42c-.23-.35-4,0-4.35.17C358.7,60.46,358.34,60.12,360.79,60.22ZM194.43,58c1.34,0,.53-.24,2-.17-.16.18-1.64.15-1.23.42C194.5,58.19,194.31,58.1,194.43,58Zm222,1.63c-.54.26-2,0-3.55.06C411.91,59.53,415.46,59.61,416.41,59.59Zm-72.47-.13c1.5-.09.74.16,2,.12-.57.19-1.93-.09-2.37.05C342.2,59.57,344.63,59.62,343.94,59.46Zm2.7.54c.2.14-.76.09-.81.18a21.18,21.18,0,0,0-2.76,0C343.7,59.89,344.84,60.08,346.64,60Zm8.81-1.23H357c-.22,0-.43.1-.42.18h.79c.49,0,.41-.12,0-.12a6.41,6.41,0,0,1,2,.07c.07-.11-.46-.13-.36-.24a18.41,18.41,0,0,0,3.92.13c-.14.14-1.87,0-1.6.23-.24,0-1.17-.12-1.17-.12a.84.84,0,0,0-.41.12c-.85,0-1.7-.06-3.54,0C356.22,58.89,355.14,58.93,355.45,58.77ZM102.63,22c.06.18-1.43.21-2,.12A6.11,6.11,0,0,1,102.63,22Zm250,37.28c1.62,0,2.85.25,3.55,0,1.48-.06,1.1.15,2.35.13,1.53,0,2.07-.22,3.16-.06a19,19,0,0,1-3.17.18C356.54,59.52,353,59.58,352.63,59.3Zm-.79.06c-.36.47-3.39,0-5.15.22.48-.26.24-.07-.77-.18C347.32,59.1,349.75,59.57,351.84,59.36Zm3.08.55c.71,0,.84-.07,1.58-.06.61.24-1.7,0-1.59.18-1.87-.06-3.56-.15-5.9-.14C348.38,59.72,353.82,59.9,354.92,59.91Zm59.65-4.76a13.6,13.6,0,0,1-3.24.77c-.28,0-1.36,0-2,.06a23.48,23.48,0,0,1-3.55.11c-.83,0-1.29.12-2,.17-5.65-.07-9.24.1-13,0,.29,0,.73-.08,1.2-.11a5.43,5.43,0,0,0-2-.07,10.77,10.77,0,0,0-3.13-.25,22.88,22.88,0,0,0,3.5.37c-1.56.15-2.9,0-4.73.05.7-.2-1.14-.21.82-.24a12.64,12.64,0,0,0-2.36-.06c.06.18,1.54.16,1.13.42h-2c2.55-.07-.42-.39-1.54-.24-.06.09.86,0,1.17.06.92.11-2.19,0-3.16.11-.25-.06-.9-.06-.77-.18a27.56,27.56,0,0,1-4.31-.19c2-.09,4.46-.11,4.78-.47.43,0,.26.12.78.12,1.18,0-.37-.12,0-.24,1.48.06,1.89-.06,3.16,0,.38.19-.89.11-1.59.12-.39.28,2.77.14,3.15,0,1.25,0,.87.18,2.35.12l1.2-.17c0-.14-1.27,0-1.18,0-.51,0-.6-.11-1.16-.12s-1.79.1-3.16,0L393.71,55c-.5.25-.47.42-.07.6,1.2,0,1.17-.1,2.37-.05s-1-.12-.36-.3h2c-.13-.27-1.23-.23-2.74-.19,1-.23,4.06-.13,5.94-.22-.22.05-.42.1-.42.18,1,0,1.23-.09,2-.11a2.35,2.35,0,0,0-.78-.13c1.68-.18,4.7-.15,7.12-.22-.45.09-.44.15.37.18s1.65-.21.82-.23a15.5,15.5,0,0,1,2.37-.06C413.3,54.67,413.42,55,414.57,55.15Zm-28,.58a8.39,8.39,0,0,0-3.15-.07C384.49,55.76,385,55.65,386.54,55.73Zm7.09,0c-1.17-.16-1.64-.16-1.12-.48-2-.07-.62.35-1.23.36-.57-.16-3.67-.19-3.56.11a5.78,5.78,0,0,0,1.59-.12A22,22,0,0,0,393.63,55.69Zm8.31-.34a15.7,15.7,0,0,0-2.76.06c-.55,0-2.53-.08-2,.11.08.13,1.72,0,1.95.13A15,15,0,0,1,401.94,55.35Zm-.83.36c-.14.16.81.16,1.56.19C403.09,55.7,402.14,55.7,401.11,55.71Zm2.82-.47a4.67,4.67,0,0,0-1.6.18,15.69,15.69,0,0,0,1.57.06Zm1.2-.18c-.33,0-1.11.42.35.36C406.08,55.43,406.39,55,405.13,55.06Zm5.54-.22c.41,0,.32-.08-.39-.06-.12.19.44.29,1.54.3C412.19,54.89,410.53,55,410.67,54.84ZM224,58.05c-1-.08-3.08,0-3.13-.19,1.72,0,2.2.11,3.93.07C224.66,58,224,58,224,58.05Zm-1.16-.25c-1.32-.13,1.83-.26,2.38-.11C224.75,57.82,223.27,57.59,222.81,57.8Zm13-.08a15.73,15.73,0,0,1-4.74.11c-.74,0-1.45.09-2.38.11-.06,0,.17-.06.4-.06s-.14-.06-.38-.06c1.22-.27,5.17.28,5.14-.17C235,57.61,234.87,57.74,235.82,57.72Zm-16.17.19c-1.91,0-2.05.17-4,.11.05-.25,2.48-.13,3.18-.29.62.05,2.32.24,1.14.36,0,.19,1.56-.18,1.58,0s-1.79.17-2.78.11C218.51,58,219.47,58,219.65,57.91Zm10.59.39-6.3-.07c.36-.27,1.93-.35,4-.35.6.23-1.71,0-1.6.17C227.52,58.26,229.62,58,230.24,58.3Zm84.28.11c-.07-.1.69-.15,0-.17.61-.18,1.76,0,1.56.18Zm-101.59-.27c1.06,0,1.92.1,3.93,0-.14.14-1.87,0-1.6.23C214.34,58.32,212.76,58.36,212.93,58.14Zm-15.28-.71a26.38,26.38,0,0,1,5.11,0c.33.22-.71,0-1.18,0C200.46,57.43,198.63,57.51,197.65,57.43Zm36.93.82c2.5,0,.31-.38,2.8-.35-.25.17-1.27.21-1.24.42-1.62,0-3.47.15-3.92-.13C233.41,58.24,235.56,58,234.58,58.25Zm-29.83-.92c.95-.13,3.53,0,5.12,0A44.12,44.12,0,0,1,204.75,57.33Zm4.27.55c1,.12,1.19,0,2.35.07-.12.12-1.47,0-1.6.18C209.25,58.09,209.06,58,209,57.88ZM198.75,58c.14-.16-.52-.2-1.55-.19.94-.27,3.14,0,4.74-.11a2.82,2.82,0,0,0,1.15.25c1.19,0-.36-.13,0-.24a11,11,0,0,0,1.57.06c.36.12-1.2.2,0,.24a8,8,0,0,1-2.37.06,13.89,13.89,0,0,1-1.59.11c-.17-.13.58-.11,1.2-.11.12-.1-.36-.11-.37-.19a34.78,34.78,0,0,1-4,.35c1-.27-.55-.11-1.57-.06,0-.11.49-.13.42-.24C197.61,57.93,197.55,58.08,198.75,58Zm15.08-.86a35.93,35.93,0,0,0,3.93,0c.71,0,.83.06,1.57.06s.84-.06,1.58,0c3.05,0,7.14,0,11,0-.14.33-2.64.1-3.56.11a21.81,21.81,0,0,1-2.76,0c-.5,0-.41.12,0,.12-.42.15-1.74,0-1.56-.18-3.38.06-5.81,0-8.28.09A7.93,7.93,0,0,1,213.83,57.18ZM318.08,58.3c-1-.15,2.36-.2,3.17-.11C321.05,58.37,318.28,58.13,318.08,58.3Zm4.55,1.52c-.76,0-1.55-.17-2.35-.13-.2-.24,2.66.07,2.36.07l3.15,0c1.18,0,2.15.07,3.15,0a3.84,3.84,0,0,0,1.57.13,45.8,45.8,0,0,1-4.72-.07C324.59,59.76,323.67,59.85,322.63,59.82Zm-3.41-1.15c.27.18-1.37.07-.82.3a3,3,0,0,1-1.17-.13A6.69,6.69,0,0,1,319.22,58.67Zm-2,.17c-1.12,0,.43.4-1.22.3-.49-.15,1.19-.25,0-.3A1.71,1.71,0,0,1,317.23,58.84Zm1.46,1a18.17,18.17,0,0,0,2.36.06C322.31,59.94,317.79,60.15,318.69,59.81Zm-63.85-3c1.63,0,1.52.08,2.75,0,0,.34-2.35-.08-2,.29C254.26,57.17,255,56.92,254.84,56.81Zm43.33,0c2.11-.19,4.9,0,7.09,0,1.73,0,2.8-.22,3.95-.11.09.17-1.51.09-2.38.11s-1.38.11-2,.12a4.54,4.54,0,0,1-.78-.06,6.71,6.71,0,0,1-2-.07A24.67,24.67,0,0,1,298.17,56.81Zm26.47,2.65a15.79,15.79,0,0,1-2,.12C322.41,59.37,324.06,59.37,324.64,59.46Zm4-.83c.6.09,1.52.13,2.34.19-1.26.45-4.83.21-7.51.22-.46,0-.34.11-.42.18a15.25,15.25,0,0,0-3.55.05,17.59,17.59,0,0,1-1.94-.19c1.3-.15,2.77.09,4.33,0a7.25,7.25,0,0,1,2-.3c.1.1-.39.1-.42.18C325.85,58.83,328.6,59.12,328.68,58.63Zm-6.93-1.34a10.54,10.54,0,0,1,3.56-.17c.46-.11,3.39-.22,3.15.07C326.19,57.2,323.15,57.35,321.75,57.29ZM293.34,21.53c-1.89.11-5,0-7.1.1C288.19,21.48,291.13,21.48,293.34,21.53ZM170,61.8a7.68,7.68,0,0,1,2.37-.06A7.39,7.39,0,0,1,170,61.8Zm2.79-.29H169.2C169.1,61.34,173,61.29,172.74,61.51Zm-.46.59a5.46,5.46,0,0,1-2,.06A5.28,5.28,0,0,1,172.28,62.1Zm-23.95-.72a22.16,22.16,0,0,1-2.76,0A10.4,10.4,0,0,1,148.33,61.38ZM173,62.65c2.8-.08,4.16,0,6.3,0-.61.23,1.76,0,1.15.25-1.29-.08-2.51,0-3.53-.07-.08,0,.08-.11,0-.12-.33,0-1.56,0-2,0-.6,0,.1.09-.42.24-.94-.2-2.08,0-3.53-.13-.45,0-.23.06,0,.06-.41.18-1-.07-1.57-.06-.15-.14,2.39-.15,1.21-.24.77-.14,2,.1,1.16.24C172.17,62.76,173.25,62.81,173,62.65Zm8-1.24a30.3,30.3,0,0,1-4.34.11C177.53,61.26,179.45,61.55,181,61.41Zm-39.09.79c.09-.15-.58-.19-1.15-.24a3.41,3.41,0,0,0-.81.18c-.92,0-1.47-.1-2.75-.07,1-.15.2-.19,1.22-.3,1.54.1-.08.07,0,.24a24.45,24.45,0,0,1,3.56-.17c-.16.33.74.17,2.35.19,0,.25-1.49.29-3.19.29C141,62.22,141.45,62.21,141.93,62.2Zm37.81.11c.45-.12,2.1.07,3.54,0A17.65,17.65,0,0,1,179.74,62.31Zm-4,.82a10.39,10.39,0,0,1-2,.06C173.91,63,175.09,63,175.7,63.13Zm-41.26-.83a12.78,12.78,0,0,1-2.39.17C132.06,62.29,133.45,62.33,134.44,62.3Zm-11-.09a10.74,10.74,0,0,0,1.17.06,12.44,12.44,0,0,1-2.38.18C122.34,62.32,123.28,62.33,123.42,62.21Zm59.18-.8,12.2.1c1.23.09-1.43.05-2.37.05l-10.63,0C181.66,61.43,182.12,61.42,182.6,61.41Zm-75.35.94c-1.7,0-1.5-.16-1.15-.31C107.3,62,106.9,62.24,107.25,62.35ZM89.44,63c-1,0-1.69,0-1.55-.19C88.92,62.82,89.58,62.86,89.44,63Zm15.37,0c-2.3.1-5.28,0-7.87-.08-1.24,0-.91.18-2.38.11.08-.05.4-.06.41-.12-2.12-.07-2.93.07-4.35.11.54-.29-1-.29-1.92-.37a14.89,14.89,0,0,1,4.31.14,8.12,8.12,0,0,1,3.2-.35c.15.16-1.48.05-1.6.17a3.82,3.82,0,0,0,1.59,0c.37,0,1.86-.08,2.36,0,0,0-.06.12,0,.12.51,0,.91-.09,1.59-.11a3,3,0,0,1,.78.06,9.75,9.75,0,0,1,2,0c.17,0,.63,0,.78.07C104.14,62.77,102.78,63,104.81,63Zm-1.55-.19c-1.78,0-3.1-.32-3.17.12A15,15,0,0,0,103.26,62.81Zm32.86-1.41a10.28,10.28,0,0,1,2.76,0A20.29,20.29,0,0,1,136.12,61.4Zm-.83.3c.82-.13,3.28,0,4.74,0C139.21,61.79,136.75,61.67,135.29,61.7Zm-53.52-.44a17.49,17.49,0,0,1-3.15.05C77.58,61.2,80.93,61.27,81.77,61.26Zm13.39,0c-1.4.11-3.41.05-5.52.05-1.78,0-8.14-.05-4.72-.08Zm-72.29-41c.52.13-.24.13-1.29.11l-1.68,0a11,11,0,0,0-1.23,0,9.67,9.67,0,0,1,3-.05A4.32,4.32,0,0,0,22.87,20.25Zm5.89.19c-1.44,0-2.86-.09-4.72-.07C25.08,20.23,28.59,20.18,28.76,20.44Zm2.69.49c1,0,.1.2,0,.24-1,0-1.21-.1-2-.13C29.8,20.89,31.31,21.18,31.45,20.93ZM197.94,61.57c1.15-.1,4.76-.07,5.91,0C202,61.74,199.19,61.58,197.94,61.57Zm-109.61.9c-.24.53-3.51.51-6,.29-.55,0,0,.1.38.12a18.42,18.42,0,0,1-3.53-.13c-.48,0-.18.07,0,.06a30.9,30.9,0,0,1-4.32-.07c-.6.09-2.25,0-2,.23a48.09,48.09,0,0,0-5.5-.07,12.16,12.16,0,0,0-2.33-.31c-1,.12,2.18.13.75.36-.8,0-1.24,0-1.17-.12-2.68,0-6.23-.09-8.28,0-.86,0-1.25-.06-1.16-.19a19.94,19.94,0,0,1-4.74.11A25.21,25.21,0,0,1,47.3,63c-.17-.13.58-.11,1.2-.12-1-.18-2.48.08-3.54-.07-.45,0-.23.06,0,.06-.43.23-.63,0-1.17-.06H39.84a10.72,10.72,0,0,1-1.17-.12c-.45,0-1,.15-1.59.17s-.69-.06-1.18-.06c-.32,0-.39.06-.79.06-1.54,0-2.54-.15-3.54-.07a5.84,5.84,0,0,0,1,.07c-1.77.08-3.64-.06-5.32-.08-.62,0-1.28.06-2,.05-.22,0-.87-.08-1.57-.06-.54,0-.08.09-.4.11-.72.07-2,0-2.76,0a3.93,3.93,0,0,1,1.59-.12c-1.57-.09.56-.22-.35-.36-.32,0-.4.06-.8.06-1.18,0,.37.13,0,.24a2.1,2.1,0,0,1-.64,0l-.43,0H19.3l-1.94.12c-.32,0-2.77-.19-2.6.06a14.35,14.35,0,0,1-1.8-.13,3.21,3.21,0,0,0-1.41.12l-.39,0a65.5,65.5,0,0,0,0-7.28l.06-1.12.06-.71c0-.49.06-1,.07-1.7-.1-.16-.11.3-.12.77-.09-.68,0-1.43-.05-2.76,0-.73-.2-.26-.24-.82a11.63,11.63,0,0,0-.17-2.38c0-.37,0-1.3,0-2-.1-2.81,0-8.26,0-12.6a11.06,11.06,0,0,1,.06-2.75c0-.87-.11-.57-.11-1.19L10.81,16c1.34,0,2.66,0,3.94.09-1.16.08-2.45.06-3.82,0,0,1.31,0,2.69,0,4.08.21,1,.12-2.21.12-3.8v-.14c.79,0,1.93.06,1.84.06,1.53,0,2.15-.14,3.19-.11l2.71.08,1.91,0a16.83,16.83,0,0,0,2.63-.15c3.49.09,6.35-.09,8.65.14,2.29-.22,6.62,0,9.46,0,.9-.25,3.92-.05,6.69-.05,2.12,0,4.14-.11,5.93-.1l7.09,0a56.89,56.89,0,0,0,5.91,0,17.31,17.31,0,0,0,3.15,0c.65,0,.66.05,1.17.06,2.18,0,4.9-.09,7.5-.1,1.4,0,2.66.08,3.93.07.82,0,1.54-.1,2.38-.11s1.81.07,2.75.06c1.32,0,2.67-.15,3.94-.05.38,0,.32-.07.41-.11.94,0,1.79.09,3.14.06a21.92,21.92,0,0,0,4.3.32c.77.18-1.65.28-1.25.59a14.71,14.71,0,0,0,2.75,0c.6-.05-.09-.09.43-.24,1.48,0,.83.23,1.94.25,1.46.07,1.14-.15,2.37-.12-.06.11.47.13.37.24,1.36.06,1.52-.08,2.76-.05.1.1-.38.1-.41.18a19.25,19.25,0,0,1,3.53.07c.48,0,.2-.07,0-.06a38.56,38.56,0,0,1,4.72.07c.75,0,.29-.17,1.19-.05a14,14,0,0,0,2.39-.24c.53.06.48.21,1.15.25a11.32,11.32,0,0,1,1.19-.06c0-.14-.66-.18-.35-.36,1,0,.47,0,.38.12,1.1.07,1-.1,2-.05s1.93.49,2.74.12a3.12,3.12,0,0,0-1.18,0c-.65-.06-.4-.26-.75-.36,1,0,1.81-.08,3.16-.05-.18.13-2.16,0-2,.17a23.91,23.91,0,0,0,5.14-.17c1.28.07,3.76,0,3.52.25,1.46.07,1.13-.14,2.37-.11.72,0-.24.06-.79.06.15.19,2.49.25,1.12.48a15,15,0,0,0,2.76,0,16.8,16.8,0,0,0-2-.13c.65-.08-.58-.34,1.23-.35s-.44.08,0,.24a8.45,8.45,0,0,1,2.36,0c1.19,0-.36-.13,0-.24.73.11,2.6,0,3.93.08.75.09-.72.25.75.3a3.39,3.39,0,0,0,1.2-.12c-.08-.09-1.17,0-1.17-.12-.38-.21,1.24-.09,2-.12a10.36,10.36,0,0,0-2.75-.07c.7-.31,2.69-.06,4.75-.1-.15.08-.71.09-.81.18a9.81,9.81,0,0,1,3.5.31c.32,0,.4-.06.8-.06a9.55,9.55,0,0,1-1.91-.55c.87.05,1.56.13,1.54.31a5.53,5.53,0,0,0,2-.18c.53,0,.72.13.76.24a14.67,14.67,0,0,1,2.37-.05,7.59,7.59,0,0,1,1.56.12c1.46,0-.14-.18.83-.29h-1.18c.41-.11,2.86,0,2.34.19,1.75,0,2.35.09,3.93.07-.93-.12-4.18-.14-3.11-.37,1.11,0,.9.19,1.95.19.32,0,.4-.06.79-.06.06-.11-.46-.13-.36-.24-.82,0-1.05,0-1.58.05-.7-.15,2.43-.1,3.14,0,0,.11-.49.13-.42.24a20.72,20.72,0,0,1,4.71.14c.78-.11-.31-.21-.75-.31,2.19-.16,4,.35,6.68.14,1.22,0,.46.21,2,.13,1.25.05.83-.16,1.59-.18,1.88.13,3.09,0,4.31.19a5.59,5.59,0,0,1,1.2-.11,10.76,10.76,0,0,1,1.21-.24c-.43-.08-.33-.12.41-.12.08.18-1.15.36.34.42,1,0-.53-.1,0-.24,1.52,0,2.47-.11,3.56-.11,1.47,0,2.47.21,4.31.19.94,0-.19-.27,1.2-.17,1.23,0,.19.07.38.12s1.27,0,1.16.18c1.6-.07.52-.2,1.22-.36a39.25,39.25,0,0,0,4.34,0c.84.12-.07.19-.43.3a29.83,29.83,0,0,0,3.94-.05c-.36.2.24.26-1.22.35a9.62,9.62,0,0,0,1.57.07c.87,0,.19-.26.43-.36,1.2,0,1-.22,2.39-.18.46,0,.34-.1.41-.17,2.56.09,4.93,0,7.08.08.39,0,.32-.08.41-.12,1.65,0,2.87,0,3.94,0,.07,0-.08.11,0,.12.33.05,1.55,0,2,0s.28-.12.81-.12c.51-.19-1.27,0-.76-.24,1.79-.16.93.36,3.13.13.1.1-.38.1-.41.18a23.84,23.84,0,0,1,2.75,0c.47,0,.35-.11.42-.18,2.34.1,3.79,0,5.91-.05-.1.09-1.17,0-1.19.12.48.2,4.34-.23,1.59-.17a21.89,21.89,0,0,1,2.77-.06c-.18.13.25.16.36.24.45,0,.23,0,0-.06,1-.2,3.8.21,4.35-.1,1.24,0,.87.18,2.35.12.19-.12-.55-.11-1.17-.12a13.45,13.45,0,0,1,2.75.07c.68,0-.49-.21,1.2-.18.84,0,.74.09.77.18,1.3.05,2.48-.13,4-.17.23,0,.46.06.78.07a4.59,4.59,0,0,0,.79-.06c1,0,2.68,0,4.33,0H264a14.86,14.86,0,0,1,2.76,0,9.13,9.13,0,0,0,1.56.06,3.58,3.58,0,0,0,.41-.12c.15,0,2.73.29,3.16-.05l4.73-.05c.46,0,1.7,0,1.58,0,.52,0,.61.12,1.17.12,1.25,0,1.1-.2,2,0l1.2-.18c5.83,0,11.49-.06,16.57-.2a3,3,0,0,1,.77.19c3.79-.3,7.67-.25,11.46-.33,1,0,.34-.23,1.6-.18-.21.19.46.25,1.14.31.32-.19-1.06-.12-.75-.31a5.83,5.83,0,0,1,1.95.13c.54,0,.75-.13.82-.24,2.73,0,3.67,0,6.7,0-1.1.27-1,.31-1.26.66.83,0,.76-.09.8-.18a3.21,3.21,0,0,1,1.54.36c1.93-.11,3.64.12,4.74-.1.87,0,.54.11,1.16.12.43,0,.29-.12.81-.12,1.37,0,1.5.09,2.75.07.22.12.58.23,1.94.18.93-.19-3.21-.07-.76-.18.64,0,1.44,0,1.57,0,1,0,1.2-.11,1.59-.12.69,0,.83.06,1.57.06,3.06,0,6.88-.1,8.67,0,.46,0,.35-.11.41-.18a54.38,54.38,0,0,0,7.11-.16c.81,0,1.29.06,2,.06a7.85,7.85,0,0,0,1.19-.11,3.52,3.52,0,0,1,.78.12c.19,0,1.83,0,2,0,.72,0,1.23-.08,2.37-.06a8.86,8.86,0,0,0-1.57-.06c-.94-.12,2.6,0,3.55,0-.92.15,1.14.19-.42.3.34.16.75-.16,2-.06.56-.13-1-.23,0-.24,1.56,0-.14.09.77.18.73,0,.49-.14.8-.17s2.09.08,1.59-.12c2.18,0,3.71,0,5.51.08-.22.18.83.23,0,.36,1.51.09,5.45.1,7.09,0,.34,0,.34-.05.4-.11,3.27-.08,6.89.17,8.67,0,1.7,0,4.28.17,4.35-.11,1.07.07,2-.05,3.16-.05.76,0,1.74.08,2.35.07.44,0,.93-.11,1.2-.12,1.58-.07,3.51,0,5.12,0H411l5.58,0,4.1-.12c0,.77,0,1.57.05,2.46,0,1.33,0,2.65,0,4,0,.66,0,1.32,0,2,0,.32,0,.64,0,1l0,.54c-.19-.3-.22.38-.36.35a5,5,0,0,0-.1-1.28,5.52,5.52,0,0,1-.14-1.49,6.6,6.6,0,0,0,0,1.55l0,.8a5.34,5.34,0,0,1,0,.79c-.18-1-.53-1.35-.66.32,0,.22.11.88.12,1.19,0,.84,0,2.73,0,4.33a26.36,26.36,0,0,1,.05,3.55c.21.9.14,5,.22,7.51,0,.8.13,1.18.17,2,.11,2.27,0,4.59-.08,6.69-.23-.24-.25,1-.42,1.13-.09,2.17-.48,2.32-.61,4.26-.22-.81-.24,0-.3,1.15-.29-1.48-.43,1-.67,1.1,0-.63-.05-.68-.05-1.19a7.78,7.78,0,0,0-.07,1.57c-.15-1-.19-.19-.29-1.21-.11-.16-.12.29-.13.77,0-.52-.16-.31-.23-.82,0-.11,0-.7,0-.78-.1-.42-.28.17-.3-.43,0-.27.08-.45.06-.78a4.71,4.71,0,0,0-.3-1.61c.06-1.37-.08-1.53-.05-2.77,0-.46-.11-.34-.18-.41.24-1.89.2-5.63.5-7V41.35c-.36-.18-.49,1.18-.78,1.49,0-2.62-.37.21-.54-.85V40.41c-.14,0-.17.66-.36.35,0-2.15,0-2.49.07-4.32a4.2,4.2,0,0,0,.25-1.55c0-1.37-.16,0-.18-.81V32.51l.24,0c-.07-1.55.18-2.71-.06-3.15-.09,0,.11,2.36-.18,1.94l0-10.77h-.35c-.44,0-.6.1-1.05.11-.11.14.37.18,0,.36a16.41,16.41,0,0,1-2.86.11c-.1.05-.1.08,0,.1l.16,0h1c.8,0-.49.07-.8,0h-4.73a15,15,0,0,1-3.44-.2,13.77,13.77,0,0,1-3.17.17c.1-.08,1.18,0,1.2-.11s-.39-.07-.38-.13a5.91,5.91,0,0,0-2,.24c-2.75,0-4.88-.17-7.09,0,2-.17-1.64-.15-2,0-2.46,0-5.35-.05-7.48,0-5.75.08-13.14-.2-17.34.08-.69,0,0-.11,0-.18a2.15,2.15,0,0,1-.78-.07c-1.12,0-.95.11-2,.12-.7,0-1.65-.13-2.35-.13s-1.05.14-2,.12-1.25-.06-1.16-.19a11.57,11.57,0,0,1-2.78.18c.1-.07.79,0,.8-.12-.46-.11-1.65,0-2.75-.07-.13,0-.71-.12-.77-.12-2.87-.07-6.07.09-7.88,0a3.37,3.37,0,0,0-.81.17,48.73,48.73,0,0,0-6.3,0l0-.18A12.78,12.78,0,0,0,334,21c-1.2-.06.47-.16.43-.24a26.2,26.2,0,0,0-2.78.17,47.24,47.24,0,0,0-5.53.11L324.53,21c-5.6.26-12.1.34-18.54.19-.95.06-1.92.11-2.77.18-1.57-.05-2.81-.14-4.72-.14l0-.24a26.1,26.1,0,0,1-5.13.11,15.81,15.81,0,0,1,2.75,0,14.67,14.67,0,0,1,2.4-.24A7.28,7.28,0,0,0,297,20.7c1.27-.1.63-.37,1.23-.48,1.45-.25,3.51-.08,5.55-.22.75,0,1.69,0,1.55.18l1.59-.11a3.75,3.75,0,0,0-1.56-.13,41.33,41.33,0,0,1,4.72,0c-.46.19-.2.16.36.31a9.85,9.85,0,0,1,2.37-.06c-.05-.07.1-.1.41-.12-.07-.18-3.25.09-2.74-.18,1.72,0,3.55,0,4.72.07,1.48,0,.05-.21.83-.3a23.35,23.35,0,0,1-3.15,0c.06-.11.28-.2.81-.24a4.72,4.72,0,0,0-1.16-.18c-1.44.11.68.17.36.3-.84,0-.76.09-.81.18-1.21,0-1.43-.07-2.35-.07a9.41,9.41,0,0,1,1.58,0,7.45,7.45,0,0,0-2.77.11,15.42,15.42,0,0,1-2.73-.25c-.81,0-.15.31-1.61.24a3.19,3.19,0,0,1-1.14-.3,11.45,11.45,0,0,1-1.21.23l-13.39,0c-.91,0-.46.17-1.2.17a7.09,7.09,0,0,0,1.56.13c-1.1.19.4.37.72.54H288c.58-.18.37-.34-1.14-.36-.32.19,1.35.08.75.3a17.12,17.12,0,0,0-3.94.05,16.73,16.73,0,0,0,2.36,0c1.52,0,2.32.18,3.51.25-.56.08-1.45.31,0,.36-1.3.08-2.56.17-3.58.29a10.73,10.73,0,0,1-1.56-.13c-1.08-.05-2,.05-3.16.06-.64,0-.67-.07-1.17-.07-1.34,0-2.37.08-3.55,0-2.38-.06-7.28,0-9.85,0a7.93,7.93,0,0,0-2.37.05,10.73,10.73,0,0,1-1.56-.13c-.67,0-.75.05-.8.12-1.27,0-.52-.2-1.55-.18-1.44,0-2.21.14-3.15,0-.47,0-.35.11-.42.18-1.18-.12-3-.15-5.1-.14a3.84,3.84,0,0,0-.81.18c-4.36,0-15.12-.07-22.46,0-1.12,0-2,.09-3.16.11-2.57,0-5-.07-7.1,0,2,.06,1.39.17-.81.18l-11.42,0c-.64,0-.66-.06-1.17-.06-.71,0-1.76.06-2.76,0l-2-.07c-.92,0-1.59.17-3.55.11a10.41,10.41,0,0,1-1.17-.12c-.61,0-1.3.15-2,.17-.21,0-.7-.06-1.18-.06-1,0-2.05.11-3.16.11s-5.26-.06-6.69,0a4.85,4.85,0,0,1-1.2.12c-.1-.1.38-.1.41-.18-.7,0-.83.07-1.58.06-.07.07.08.1.38.12-.19.16-1.24,0-.77-.12a18.71,18.71,0,0,1-2.37.05c-.31,0-2.17.11-2.77.11-.76,0-1.49-.07-2.36-.06-2.36,0-5.39.06-7.49,0-1,0-2.17.11-3.16.12-.64,0-.67-.05-1.17-.07-1.18,0-2.29.07-3.16.05s-1.44-.1-2-.12c-.73,0-1.84-.07-2.35-.07-.35,0-1.05.12-1.2.12-.65,0-.66-.06-1.17-.06-.7,0-.85.06-1.59.05s-1.57-.07-2.35-.06a60.63,60.63,0,0,1-6.31,0c-.34.11-3.24.16-5.53.16-.57,0-1.37-.07-2-.06-4.23,0-8.6.18-12.23.08A12.84,12.84,0,0,0,118,22a5.29,5.29,0,0,0,1.17.06c-.86.1-4.53.12-4.32-.13a10.86,10.86,0,0,1-2.37.11,25.1,25.1,0,0,1-3.56.11c-.17-.13.57-.11,1.19-.11-.23-.06-.89-.23.42-.18-.24-.18-.85.05-1.58,0,.32-.05.44-.13.43-.24-1.11,0-1,.09-2,.06.47-.24-1.17-.3-2-.19.48.21,2.16.24,2.31.49a19,19,0,0,0-2,.23c-.56-.07-.57-.23-1.14-.3-1.15,0-1,.28.36.24a4.35,4.35,0,0,1-2.72-.31c-.74.13-2.34.12-2,.42a4.16,4.16,0,0,0-1.19.06A14.77,14.77,0,0,1,96.33,22c1,0,2,0,1.56.18h2c.36-.23-1.89-.08-1.54-.31a7.92,7.92,0,0,1,2,.07c-.1-.2-1.73-.18-1.93-.37a18.8,18.8,0,0,1-2.76.06c.06-.28,2.88-.44,2.43-.6.93-.11,2.12.06,3.55,0-.67.12,0,.08,0,.24,1.86,0,.8-.4,2.8-.35,1,0,.48.05.38.12.87,0,.58-.11,1.2-.12,1.8-.06,1.52.17,3.13.13,1.32-.08-.8-.15-.35-.3.22.11,1.86,0,2,.13.94,0-.42-.17-.77-.19,1-.09,2.8.07,4-.1a11.33,11.33,0,0,0-2.37.05c-.16-.14-1.72-.17-.76-.3-1.78-.08-1.56.16-3.16.11a11.51,11.51,0,0,0-2-.07c-.78,0-1.23.11-2,.12s-1.7-.15-2.74-.19c-1.35.06,1.09,0,.37.18-1.52.19-4.91-.12-5.52.11A14.46,14.46,0,0,0,93,20.38c.71-.32,2.18.13,3.16-.05-1.34-.24-3.19-.4-4.65-.62-1.43.2,1,.33,1.92.37-.18.22-3.05,0-2.4.35a3.1,3.1,0,0,1-1.17-.12,34.85,34.85,0,0,1-4.35.11c.12-.13,1.75,0,1.6-.18-.84-.07-1.79-.13-2.74-.19s-.8.2-.83.36a28.06,28.06,0,0,1-3.14-.07c-.08-.28,1.72.09,2.38-.11-1.08-.28-2.29.06-3.54-.07-.06.11.47.13.37.24H76c-1.2-.13,2.82,0,2.39-.17-.94-.15-2.86.07-4.34.05,2.1.2-2.19.08-3.56.11-1.12-.11,2-.05,2.76-.06a17.17,17.17,0,0,0-3.94,0,24.74,24.74,0,0,0-5.11-.07c.53.14,2.74,0,3.93.07a10.6,10.6,0,0,1-2,.05,22.51,22.51,0,0,0-3.56.11c-2.22-.17-3.86-.07-6.68-.13-.43,0-.28.12-.8.11-1,0-1.29-.08-1.16-.24-2.66.19-4.3-.13-6.69,0-.78-.12.19-.11.42-.24-.64,0-.67-.06-1.17-.06s-.54.18,0,.18a35.68,35.68,0,0,1-4.36.17c0,.08-.08.17.38.18-.93.11-2.12-.06-3.56,0,.87-.13.19-.33-.74-.36.28-.18.83.06,1.57,0,.09-.13-.3-.19-1.16-.18-1.72.05.18.31-.83.42-1.74-.12-1.89-.12-4.32-.14l0-.18c-2,0-2.55.21-4.75.17.58-.15-.62-.14-.76-.18s.28-.25-.76-.24c-1.31.14,1.41.18.74.42-1.57,0-1.1-.23-2.74-.19-.55,0,0,.11.38.12a16.19,16.19,0,0,1-2.75-.06c-.95,0-2.17.1-3.16.11s-1.75-.1-2.46,0c-.14-.1.29-.1.29-.18a13.11,13.11,0,0,1-2.12.05c-.22-.13,1-.06,1-.17a5.82,5.82,0,0,0-1.62.11,4,4,0,0,1,0,.49c.06,0,.09-.18.12-.37.49.06,1,.11,1.09.24-.16,0-.53,0-.84,0a2.2,2.2,0,0,1,0,.48c0,.08-.09-.6-.12-.47a17.47,17.47,0,0,0-.31,3.34c0,1,.14-1.05.24.07l-.13,3-.18,0a13.64,13.64,0,0,0,0,1.57c-.05,1.39-.22,1.44,0,2.37.06-.81.22-2.55.24-.36.14-.66,0-3,.07-4.33.21-.13.11,1.79.12,2.77v3.55l-.3,0c0,1.64.11,2.16.29,1.61v2.36c-.08-.14-.1-.7-.18-.8,0,1.8-.11,2.44-.07,4.32,0-.08-.06-.4-.12-.41-.08,3,0,4.71-.08,7.48a10.26,10.26,0,0,1,.23,3.57c.23-.1-.06-2.23.13-3.13.13.68,0,3,0,4.33-.1.14-.11-.32-.11-.8-.07,1.38-.23-.09-.31.75-.05,1.83.16-.52.18.81.07,1.77-.27.89-.19,2.71,0,.7.23-.57.3.34-.15.89.11,2.94-.12,2.17,0,.5,0,1,.06,1.47,1.24,0,2.37,0,3.46,0,.6-.29-1.38-.15-2.33-.19a8.76,8.76,0,0,1,2.42,0c.4,0,.7,0,1-.08a8.72,8.72,0,0,1,1.2,0c.4.2-.63.19-1.54.17,0,.07.21.1.57.12H21c-.23.15-.55.21.36.3.52,0-.45-.26.82-.3.44-.15-1.67-.21-.36-.3,1,0,.48,0,.38.12,2,0,2.56,0,4.73,0,0,.31-2-.09-2,.18a17.67,17.67,0,0,0,2.34.13c.87,0,.06-.2,0-.18.38-.21,1.4,0,1.2-.24a34.4,34.4,0,0,1,3.55,0c.91-.2,4.5-.07,7.5-.1a18.34,18.34,0,0,1,3.14.07c.43,0,.28-.12.8-.12,5.06.07,8-.13,12.21,0,.43,0,.28-.12.8-.11.95,0,.84.11,2,.06.39.23-.85.19-1.21.3a14.17,14.17,0,0,0-3.54-.13,15.21,15.21,0,0,0,2.35.12c.22,0,.21.17.37.19.68,0,1.55,0,2.36.06.51-.19-1.27,0-.76-.24s3-.19,1.22-.3c.2-.08,3.57-.13,3.14.07,2-.21,5,0,8.28,0,3.62,0,8.13,0,11-.09a12.37,12.37,0,0,1,1.56.13c.86-.06,1.85,0,2,0a8.15,8.15,0,0,1,2-.11c.73.2-.68.11-1.2.18-.25,0-.54.16-.81.17-.51,0-2.19-.17-2,.06s.57,0,1.19,0a2.31,2.31,0,0,0,1.55.19c.17-.15-1.8,0-1.16-.19,1.86-.06,4.19.15,5.89.14,0-.22-2.57-.06-3.13-.19s.88-.19.83-.36c4-.09,7.21,0,10.23.15a64.13,64.13,0,0,1,7.49-.1c.33-.22-.4-.29-1.54-.3.15-.14,1.73-.06,2-.18,0-.22-1.11,0-1.57,0-1.3,0-2.7-.08-4.32-.07-.43,0-.28.12-.81.11a21.43,21.43,0,0,1-2.74-.12c-.89,0,.47.09-.41.18-2.69-.13-5.68.07-8.27-.09,1.1-.2-2.18-.16-2.32-.36-1,0,.33.33-1.21.23a5.24,5.24,0,0,0,1.18.07c1.24,0-.71.07-1.19,0A24.41,24.41,0,0,0,82.16,58c-.41.18.87.1,1.57.12-.08.2-1.17.05-2,.05-1.64,0-4.13.1-6.31,0-.17-.13.58-.12,1.2-.12a6.54,6.54,0,0,0-2.77.11c-3.18,0-3.44-.29-6.28-.25-.34.22,1.86.08,2.75.12-3,.29-6.94,0-9.46,0-.29,0-.75.12-.81.12-.59,0,.08-.12,0-.12-.77,0-1.67.11-2.38.11-1.52,0-1.88-.21-3.13-.19-.46,0-.34.11-.41.18-3.68-.08-7,.15-9.44-.09-.49,0-.19.08,0,.06a45.41,45.41,0,0,1-5.9-.07c-.84.05-1.76.08-2.38.17-3.16,0-7.49-.18-11-.33-.51-.28-1.64-.37-1.5-.6-1.7,0-2.94,0-4.17,0l-2.39,0a3.72,3.72,0,0,0-.61.18h-.29a5.47,5.47,0,0,1,.07-.92c0-.54-.17.36-.19.6s0,.32,0,.44c.79,0,1.19-.23,1.77-.06a9.59,9.59,0,0,1-1.87.16v-.45a1.53,1.53,0,0,0-.12.58h0l-.06,0c-.07-.09,0-.38,0-.5s.08-.72.25-.67v-1a4.28,4.28,0,0,1,.12-.73,1.59,1.59,0,0,0-.08-.47,4.57,4.57,0,0,1,0-1.15c.22-.08.15-2.18.37-2.32-.07-1.2-.23.55-.3-.42,0-1.23.08-1.9.18-1.16-.18-1,.16-2.9-.17-2.78-.21.29.18,1.87,0,2-.2.39-.09-1.71-.11-2.38,0-.34-.11-1-.12-1.2a51,51,0,0,1,.14-6.28c-.09-1.06.05-2.79,0-4.33,0-.94-.12-1.83-.17-2.39-.18,1.72.07,3.12,0,4.73A18.22,18.22,0,0,1,16,33.23c0-1.24.12-2.83.07-4.72.19-.32.12,1,.24,1.21-.06-1.21-.19-1.94-.24-3.18a21.92,21.92,0,0,0,.13-2.92c-.16-.14.05,1.42-.18,1a8.15,8.15,0,0,0-.11-2.2c.05-.36.09-.82.15-1.14a2.9,2.9,0,0,1,.71.16c.33-.05.95,0,.63-.23.69-.07,1.2.19,1.06-.06a3.16,3.16,0,0,1,1,.12,5.44,5.44,0,0,0,.91.19c1.08-.05-1-.12-.35-.3,2.73.2,5,0,7.47.08a4.79,4.79,0,0,1,1.2-.12c-1.07.26.89.11,1.14.3.48-.11,3.23-.17,2.4-.29.41-.2.77.07,1.18.06,1.11-.05-.56-.16.42-.23,3.81,0,7.2,0,10.24,0,.64,0,.68.07,1.18.07,1,0,1.86-.14,3.16-.11A7.36,7.36,0,0,1,50,21l4.74-.05a50.19,50.19,0,0,1,9.79.45c-.17.24,0,.44,1.13.48A4,4,0,0,1,64,22c.84.12-1,.46,1.12.48a6.82,6.82,0,0,0-2,.42c-.32.05-1.59-.05-1.19.11-4-.16-8.55-.11-12.58-.21-.65,0-1.22-.12-2-.13-1,0-2,.08-3.16.05-.68,0-.84-.06-1.56-.06a16.29,16.29,0,0,1-3.15,0c-.43,0-.28.12-.81.12-1.06,0-2.13,0-3.15,0-.23,0-.51,0-.75-.07l-.41-.05c-.43,0-.74.1-1.2.11-.93,0-1.94-.07-2.75-.06s-.92.09-1.59.11c-1.27,0-2.53,0-3.93-.07-.67,0-.74.05-.8.12-1.17,0-2.56-.06-4.1-.06l-2.16,0c-.38-.09.07-.24-.56-.3v0c.07.56.23,0,.3.45l0,1.3v2.85a3.53,3.53,0,0,1-.11-1.2,3.87,3.87,0,0,0,0,1.49,1.17,1.17,0,0,0,.18.5c.05,1.84-.15-.56-.18.77,0,.83.08.76.18.81v2.75c-.12.64-.08,0-.24,0V33.4c0,.83.26-1.43.24.81,0,1.61-.08-.07-.24.37a8.09,8.09,0,0,0,0,1.57c0,.87.25.2.36.44v2.75c0-.31-.14-.44-.24-.42.08.51,0,2.08.24,1.61a13.93,13.93,0,0,1-.26,3.91c0,.74.3,1.84,0,2,.05,1.09.25-.88.18,1.21a2.77,2.77,0,0,0,.12-.78c0,.22.18,3.61-.13,2.75,0,1.2.21,1,.17,2.38l-.18,0c.11.26.1,1.2.18,1.6a3.11,3.11,0,0,1-.09,1l-.16.28c.28,0,.14,1,.17,1.17a1,1,0,0,0,.07-.44,1.9,1.9,0,0,1,.06.5c.29,0,.56,0,.87.05l.47,0h.93a10.79,10.79,0,0,0,2.69.54c1.21,0,.78-.16,2-.11-1.13-.23,1.28-.26-.35-.36.5-.13,2.8,0,2-.3,4.6-.15,10.74.05,15,0-.26.23-2.38.1-4,.11s-3,0-3.94,0a17.63,17.63,0,0,1,2.33.25c1.58,0,1-.25,2.4-.24l0,.13a25.82,25.82,0,0,1,3.92.19c.43,0,.28-.12.8-.12h2.76c.94.08.23.12.76.18,1.56,0-.11-.09.81-.18s2.46.06,2-.17c2.38.13,6,0,7.87.08-1.34.13-4.33,0-6.31,0-.47.09-1.15.14-1.21.3,1,0,1.69,0,1.59-.18,1.49.13,2.62,0,4.73,0-.48.08-.17.1,0,.18,3.38-.05,6.64-.07,11-.09,1,.09-.73.18.36.25,1.7,0-.53-.32,2-.24.8.15-.59.31-1.62.36.26.22,2.59.09,2-.18.76,0,1.43,0,.8-.06,7.7,0,18.92.14,26.39,0,.45,0,.22-.06,0-.06.9,0,2.53,0,4.33-.05.22.19-1.42.08-.42.24a13.5,13.5,0,0,0,2,.06c1,.07-1.41,0-2,.12,1.49.07,2.72.19,4.3.25a11.73,11.73,0,0,1,3.22-.53c1,0,2,.05,1.94.24,1.83-.19,4.09,0,7.88,0,.3.06.41.14.37.25.83,0,.76-.09.81-.18,1.79.06,3.9,0,6.3,0,3.5,0,6.9.16,9.82.2a23.55,23.55,0,0,1,3.54.07c.52,0,.63-.1,1.19-.11a11.42,11.42,0,0,1,2,.18c3-.22,7.19,0,12.22,0,.94.15-.61.11-.44.3,1.89,0,1.54-.37,4-.29-.36.11-1.12.15-.83.36a18.62,18.62,0,0,1,2.76,0c-.26.12-1.84,0-2,.17.91.14,2.06-.2,4-.11.1.16-.56.2-1.59.18a12.07,12.07,0,0,0,2.37-.05c.08.12,1.73,0,1.95.12a22.84,22.84,0,0,1,3.58-.29c-.41.08-.41.22-.82.3-.71,0-.82-.08-1.57-.06-.24.28,2.21.17,3.14.12.08.18-.92.19-.83.36.61-.06,1-.17,1.6-.23a5.39,5.39,0,0,1,1.94.24,62.06,62.06,0,0,1-7.87-.08c-.89,0,.47.09-.41.18-1.68,0-4.07,0-5.11-.08-.39,0-.32.08-.41.12a42.8,42.8,0,0,0-5.52,0,52,52,0,0,0-6.7,0,29.27,29.27,0,0,0-3.53-.19c-.09.23,1.59.2,2.33.31-.53.24-.81,0-2,0-.85,0-.2.21-.43.3a20.58,20.58,0,0,0,4.37-.29c5,.07,7.81,0,11.41.09-1,.07-.8.33-2,.36.15.13,2.09,0,2.35.12.15-.12-.06-.18-.77-.18a15.89,15.89,0,0,1,3.17-.11c0,.1-.22.23.36.24,1.43.06.22-.29,2-.17-.71.19-.71.14.36.3.68,0,.26-.14-.38-.12.1-.09,1.18,0,1.2-.12.93.1,1.84.17,1.13.36,1.61,0,1.62-.19,3.56-.11,1.56,0,1.18.26,2.73.25,1.12-.08,2.33-.14,1.62-.35,2.19,0,3.27-.1,3.19-.3,1.11,0,1,.09,2,.07.17.13-.58.11-1.2.12,0,.17.88.22,1.54.3a12.12,12.12,0,0,1,2.76,0c.46.19-1.28,0-.82.24,0,.14,1.08,0,.8-.12,1.3,0,2-.1,3.55,0,.15-.14,0-.23-.35-.3-.52.08-1.72,0-2.77,0,.29-.3-2.08-.2-1.91-.49,4.51.07,12.45,0,16.53.11-.07.27-.92.06-1.58.06l-11.81,0a27.88,27.88,0,0,1,3.51.31c1.34,0,.52-.24,2-.17.87,0,.54.11,1.16.12a2,2,0,0,0,1.2-.12c.18,0,.5.06.78.07a4.59,4.59,0,0,0,.79-.06c1.76,0,3.14.14,5.12,0,.68,0,.74.05.78.13,1.18,0-.36-.13,0-.24a7.74,7.74,0,0,1,1.56.18c.85,0,.2-.21.43-.3,3.11,0,6-.1,8.68-.1a5.06,5.06,0,0,1,.77.13c.43,0,1.71-.05,2.37-.06a15.59,15.59,0,0,0,2.37,0,8.85,8.85,0,0,1,1.17.12c2-.17,6.46,0,9.46-.09.32.19-1,.12-1.21.24-1.57-.07-2.35-.07-3.94,0-.76,0-.34.24-1.59.18a20.21,20.21,0,0,0,3.56-.11c.38.14,2.63,0,2.33.25.7-.09-.37-.26.83-.36s1,.09,2,.06c.42-.18-.86-.1-1.56-.12a30.42,30.42,0,0,1,4-.17c1.11,0,2.25,0,3.15,0,.25,0,.54,0,.76.07l.41.05a4.93,4.93,0,0,0,.8-.12,11,11,0,0,0,2.37,0c.67,0,.74,0,.77.12,1.15,0,1.23-.13,2.38-.11a4.14,4.14,0,0,1-1.59.12c.25.12,1.18.14,1.55.24.91,0,1.85,0,1.6-.24.26,0,2.33.17,2-.05s-1.52.08-2.76,0a16.13,16.13,0,0,1,2-.11c-.22-.19-2.1-.13-2.32-.31a12.89,12.89,0,0,1-3.14-.13c.19-.13,1.67.24,2-.05a1.5,1.5,0,0,0-.79,0c-1.26-.15,1.87-.39-1.14-.37.22-.28,3.14.14,3.57-.17-1.46-.06-2.33-.21-4.31-.19-1.17,0,.49.15,0,.3a5,5,0,0,1-1.53-.36,14.28,14.28,0,0,1-2.37,0c1.48-.3,4.11-.05,6.72-.16-.18.09-1.24.05-.82.24,1.52,0,.68-.26,2.39-.18.07-.07-.08-.1-.38-.12,1.32-.12,2.94-.19,3.21-.47a10.8,10.8,0,0,1,1.95.13c1.75.05,2.37-.08,3.95,0,.05.13-.35.19-1.21.17,1.15.3,4.19,0,4.29.37,1.66-.07,0-.34-.74-.42a10.67,10.67,0,0,1,2,0c-1.2.18.57.26.74.42,2-.1,2.79-.37,5.55-.34,1.07,0,.75.12,1.16.18s.4-.06.8-.06c.81-.07-1.13-.16.42-.24.84,0,.74.09.77.18,1.19-.07,2.16-.18,4-.16a20.55,20.55,0,0,0,2.74.12,5.4,5.4,0,0,0-1.18-.06c1.19-.18,5.53,0,7.89-.1.81.06.3.31,1.54.31.59,0-.14-.08,0-.18,2.27,0,4.55,0,6.31-.05,0,.18.46.29,1.94.25-.24-.06-.9-.07-.76-.18.78-.07.6.11.77.12a18.2,18.2,0,0,1,2.76,0,47.29,47.29,0,0,1-4.74.1,17.13,17.13,0,0,1-2,.18c1.23-.23-2.86-.06-3.53-.19l-1.2.17a5.08,5.08,0,0,1-1.53-.36c-1.21.17-1.36-.15-3.14-.07-.59.36,2.38.25,1.11.54-1-.1-2-.22-1.91-.48-1.69-.06-1.82.16-.81.24-.27.1-.92,0-.79-.07a21.43,21.43,0,0,1-2.74-.12c-.76,0-.61.27.37.18-.54.18-1.73-.12-2.36.05-.13.1.36.11.37.18.66-.08,2.5,0,2.38-.17,1.58-.06,1.17.18,2.74.13.21.13-.76.08-.81.17.12.14.71,0,.8,0,.5,0,.62.13,1.17.12s1.05-.13,2-.11c.54,0,.34-.15.42-.24a16.36,16.36,0,0,1,2.73.24,3.31,3.31,0,0,0,1.6-.23,18.8,18.8,0,0,1,1.93.36,34,34,0,0,1,5.15-.28c-.39.21,1.54.09,2.35.12a14.78,14.78,0,0,1,2.79-.23,10.26,10.26,0,0,1-1.2.12,7.2,7.2,0,0,0,2,0c-.3,0-.45-.12-.76-.18-1.07-.18-1.86-.07-1.16-.24h-3.54a31.17,31.17,0,0,1,4.34,0c1.39,0,3.85,0,6.3,0-.31.18.37.22.35.36,2.05.08,3,0,4.72.07a3.85,3.85,0,0,1-1.61.24c1.11.19,1.76-.21,2.79-.23,1.4,0,.94.21,2.34.18.75,0-.07-.25-1.16-.18.83-.3,1.38.09,2.35.13,1.6-.07.51-.21,1.22-.36,1.56,0-.5.26,1.15.3.24-.14,2-.05,1.61-.29,1.19.11,3.38-.06,2.35.12a34.75,34.75,0,0,0,3.55-.05c.69.05,0,.11,0,.18,1.26.06.58-.19,1.21-.23.62.22,1.08-.11,3.15,0a9.08,9.08,0,0,1-1.22.3c-7.43-.09-10.41.18-17,.19-.56,0,0,.11.38.13-1.39,0-2.86.12-4,.1-.33,0-.68-.11-1.17-.12a4.4,4.4,0,0,0-.8.06c-.61,0,.55-.17-1.56-.12.71-.38,2.75-.09,4-.17a63.68,63.68,0,0,0-7-.38c.21-.05.42-.1.41-.18-1.59,0-.93.29-.45.48,1.72.06,1.32-.2,2.78-.18-.24.28-1.79.55.72.61-3.19,0-7.66.25-11.43,0-1.22.18-4,.1-6.31.11-.77,0-.34.23-1.6.17-.92-.15-.9-.28-1.13-.42-1.89,0-1.5,0-3.95,0-.18.12.25.16.37.24.63-.12,2.21-.1,2.78-.23,2.35.39-1.64.51-3.59.41a2.66,2.66,0,0,0,.41-.12c-.2,0-2.34,0-2,.11-2.27,0-7.14,0-10.64.09-2.42.06-5,0-7.09,0-1,0-2.29.16-3.57.17a30.6,30.6,0,0,0-4,.17c.21.21,2.26.14,2.32.37a20.53,20.53,0,0,1,5.1.19,11.56,11.56,0,0,1,3.2-.35c.34-.17-.54-.15-.37-.3,2.41-.06,1.23.34.74.48.36,0,2,0,3.14.07.76,0-.59-.22.43-.3a27.18,27.18,0,0,1-2.76,0,5.41,5.41,0,0,0,1.21-.24c2.87.09,6.25,0,10.63,0,1.25.12-2.44,0-2,.17a7.75,7.75,0,0,0,2.35.13c1,0,.34-.23,1.6-.18-1,.18.49.24,1.16.19.91-.07,0-.27.79-.06a8.5,8.5,0,0,0,2.75.13c-.38-.12-1.73-.1-1.54-.31a18.08,18.08,0,0,1,1.95.19c.32,0,.39-.06.79-.06.29-.16-.8-.12-1.16-.18s1.15-.06,1.19-.06c.9,0,.93-.1,1.59-.11,1.74,0,4.12,0,6.3,0a19.19,19.19,0,0,1-3.16,0,7.75,7.75,0,0,0,2.35.13c0,.18.87.23,1.54.3,1.29-.1-1-.16-.35-.36,2.29,0,1.54.37,2.7.49,1.47,0,2.48.07,3.53.13.73,0,.26-.2.81-.24,2,0,1.61.28,3.92.19-.25.28,1.45.26,1.12.55a13.83,13.83,0,0,0-3.57.17,8.86,8.86,0,0,0,1.57.06c-.31,0-.44.14-.42.24-.86,0-1.25-.05-1.16-.18-.57,0-1,.23-1.19,0-.55-.1-.35-.13.8-.11-.72-.11-.37-.32.44-.36a15.28,15.28,0,0,0-2.37,0c-.11-.14-.6-.23-.35-.42-1.19,0-.41.3-1.61.3-.13.15,1.52,0,1.16.24a10.79,10.79,0,0,1-2-.07,10.84,10.84,0,0,1-2.38.18c.7-.2.53-.37-1.54-.31-1-.14,1.06-.16,0-.3a7.4,7.4,0,0,1-2,.12c.16-.1-.29-.12-.77-.13.27-.13.82-.36.06-.48a6.33,6.33,0,0,1-2,.18c-.49-.24,1.31-.12.83-.36-1.55-.08-1,.16-1.61.24-.75,0,0-.28-1.55-.19a2.06,2.06,0,0,1-1.22.3c.32.14,1-.16,2.37-.05-.63.15.87.11,1.16.18s-.11.13,0,.18,1,.06.77.18a15.29,15.29,0,0,1-2,.06c.15-.08.7-.1.81-.18a9.16,9.16,0,0,0-2,.11c.14.29,2,.24,3.52.19.37.18-.89.11-1.59.12.71.15,1.1.28-.05.42.09.06.78,0,.77.12a10.41,10.41,0,0,1,2.37,0c-.32.26-3.57.14-5.93.16-1.32,0-2.36.1-3.55.05a8.81,8.81,0,0,1,1.59-.05,12.11,12.11,0,0,0-2.37.05,8.55,8.55,0,0,1-1.17-.12c-.69,0-1.23.15-2,.17s-.88-.06-1.57-.06a33.91,33.91,0,0,1-3.94,0c.34-.3,1.91-.41,4-.28-.1-.21-1.77-.18-3.13-.19-1.15,0-.46.09-.43.24-.78,0-1.23,0-1.19.11-.7,0-2-.06-1.59.12,0,.11,1.48-.09,2,.06-1.87.16-4.06,0-6.31.05-.5,0-1,.1-1.59.11l-5.91,0c-3,0-6.26,0-8.27,0-.06,0,.07-.11,0-.12-.39-.06-1.09.11-1.59.06.87-.39-.84.11-2.75,0-.47,0-.35.11-.42.18a31.2,31.2,0,0,1-4.32-.13c-1.23,0-.91.18-2.37.11-.29-.21.25-.28,1.6-.23.06-.19-1.17-.19-2.34-.19-.31.18.38.22.35.36-18.79.2-37.71,0-55.93,0l-8.67,0c-.63,0-.69.07-1.19.06l-6.29-.08c-1.31,0-2.55.08-3.94,0-1.88,0-7.5-.09-10.64,0a53.4,53.4,0,0,1-6.69,0,39.4,39.4,0,0,1-5.12,0c.25.06.9.06.77.18-2.93-.1-5.13,0-8.67,0,.15-.08.71-.09.81-.18-1.6-.07-1,.2-2,.24s-.19-.27,0-.31c-1.11,0-1.69.15-2.78.18s-2,0-3.54,0c-.71,0-1.33-.07-2-.07-1,0-2.61.18-4.74.11-.57,0-1-.12-1.17-.12a6.83,6.83,0,0,1-2,0c-1.34,0-4.53.2-6.33.22-.73,0-1.39-.06-1.57-.06-.71,0-.83.06-1.58,0a6.58,6.58,0,0,1-1.17-.12c-.19,0-.72.06-1.18.06-1.7,0-4.34-.12-5.91-.08-.69,0-1.15.1-2,.12a9,9,0,0,0-1.16-.13,31.22,31.22,0,0,1-3.56.05c-.84,0-1.87.11-2.77.12-.7,0-.82-.07-1.56-.07l-9.08.1c-.64,0-.67-.07-1.17-.07-2.68,0-5,.14-6.71.1a8.31,8.31,0,0,1-1.17-.12c-2.12,0-3.93.11-6.31.1-.25-.06-.9-.06-.77-.18-.46,0-.34.11-.41.18-2.56,0-4.42.26-6.3,0l-3.16.06c-.44-.08-1.11-.12-.75-.31-1.76,0-.52.14-1.21.24-1.82.05-1.89-.16-3.53-.13-.73,0-.27.2-.82.24-2-.11-4.7,0-7.48,0-.83,0-1.8-.12-2.74-.13-1.21,0-2.92,0-4.5.06H19.46l-1.28,0a14.35,14.35,0,0,1-1.85-.13,7.19,7.19,0,0,0-1.09.17c-.72,0-1.38,0-2,0,0-1,0-2-.07-3V55.1l0-.93A12.24,12.24,0,0,1,13,51c-.07-.15-.18.62-.19.77,0,.41.11.71.12,1.19s-.08.74-.06,1.17l.06.95c0,.33,0,.65,0,1,0,1.09,0,1.83-.06,3V61c.89,0,1.92,0,3.09,0,.62,0,1.34.12,1.46.12l1.51,0,.91,0h4c1.38,0,3.33,0,5.51,0,.1.1-.39.1-.42.18,1.2,0,2.6,0,2.35.19.46,0,.34-.11.41-.18a10.66,10.66,0,0,0-2-.07,36.6,36.6,0,0,1,5.91,0c1,.08,1.26-.24,1.58-.06.81.13-.18.12-.8.18-.41,0,.1.13-.81.12a7.78,7.78,0,0,0-.78-.06,5.67,5.67,0,0,1,1.19-.06c-1.24-.16-2.6,0-3.93-.07-.63.33,3.07,0,2.32.37A41.07,41.07,0,0,1,40,61.38c.55-.26-1.86-.08-1.54-.3a36.24,36.24,0,0,1,4.32.13c-.68.08-2.92.08-1.61.29.76,0,.34-.23,1.6-.17-.38.34,2.58.23,3.14.07a10.68,10.68,0,0,0-2.35-.13,13.91,13.91,0,0,1,3.16-.05c-.93.23.7.24,1.53.36.47-.23-1.37-.21-.35-.36a21.63,21.63,0,0,0,2.33.25c1.13,0-.62-.09-.77-.12,3.85-.12,9.48-.09,14.59-.08a11.75,11.75,0,0,0,2.76-.06c2.19.1,6.51.11,8.26.09a27.29,27.29,0,0,1-4.35.1c-2.39,0-4.61,0-6.3.05.1.21,1.06.15.35.36,1.44-.05,2.08.11,2.75,0l-2-.13c.94-.3,2.38.05,3.94,0,.17-.14-1.8,0-1.16-.18l31.5.09c.66,0,1.31.06,2,.06.89,0,1.56-.07,2.37-.05a22,22,0,0,0,3.94.07c.13.14,1.56.08,1.94.18s.41-.12,0-.12c7-.29,14.58.12,20.1-.12.57,0-.05,0,0,.12,1.37-.07,2.83-.12,4.74-.11-.06.16-1.55.08-1.61.24a33.2,33.2,0,0,1,3.95-.05c0,.26-1.66-.07-2,.17-1.25,0-1.38-.11-2.75-.06-.32,0-.4.05-.8.05-.12.14.07.23.76.25-1.26.06-1.52.32-1.62.41a30.14,30.14,0,0,0,3.14.13c.19.19-1.27,0-1.59,0s-.22.12-.41.12l-4.33,0c-.66-.11-.56-.44.45-.48.3-.13-1.42-.25-1.57-.12-1.21-.1.84-.19.83-.3-.86,0-1.26,0-1.21.18-1.24,0-.87-.19-2.34-.13.7-.24,2.53.08,3.17-.17a31.1,31.1,0,0,0,4.32.07c.56-.25-3.13,0-1.54-.24-1.64.14-2.74,0-4,.17-.75,0-1.7,0-1.56-.19-1.66.17-5,.05-7.87,0a33.69,33.69,0,0,1-4.74.11c-1.1.07-2,.17-3.57.17,0-.11.5-.13.42-.24a9.44,9.44,0,0,0-1.59.17c-1.34,0-3.19,0-4,.05a7.09,7.09,0,0,0,1.56.13c-.76.1-2.53.05-3.17.17-1.78,0-2.27-.22-3.91-.25-.58,0,.15.08,0,.18-1.67,0-2.1-.16-3.92-.13a5,5,0,0,1-1.2.11c-.16.11.3.12.77.13a15.64,15.64,0,0,1-3.14-.07c-.89,0,.47.09-.41.18-1.29,0-.51-.4-2.72-.31.24.06.89.06.76.18-1.33-.11-1.46.14-2.37,0,.11,0,.44-.15,0-.18s-1.07.14-.4.12c.15.17-2.15-.05-2,.12.47.16,3.66-.07,3.12.25.54,0,.35-.15.43-.24Zm41.3.48c0-.19-.23-.36-1.53-.37l0,.36Zm-.3-.78h-1.18c.37.18.36.42,2.32.37C131.17,62.25,128.63,62.45,129.33,62.17ZM99.42,62c1.15,0,.29.35,2.33.25.47-.19-.6-.15-.76-.24C101.28,61.87,99.14,61.87,99.42,62Zm187.4-2.48c.9-.08,2.55,0,2.4-.29-1.26-.06-.83.15-1.59.17.07-.15.1-.29-.76-.3Zm-18.49-.17h-1.18c.26.19-.43.22-.44.36C268.16,59.69,267.93,59.45,268.33,59.31Zm.72.54a7,7,0,0,1-2,.41C268.42,60.26,270.85,60,269.05,59.85Zm7.13-.28c0,.18-1.71.34.35.36-.39-.22.85-.19,1.21-.3C277,59.65,276.88,59.56,276.18,59.57Zm-.35-.36c.1-.09.66-.1.8-.18a13.05,13.05,0,0,0-1.56-.06C274.94,59.1,275.13,59.19,275.83,59.21Zm-2.05.65c-.14.08-.58.12-.43.24a12.23,12.23,0,0,1,1.57.07C275,60,275,59.84,273.78,59.86Zm-7.39-.8c1.21.16,2.5-.05,4.33,0,.08.09.64.11.77.19s-.7.05-.81.11a13.48,13.48,0,0,0,2.34.25,12.67,12.67,0,0,0,1.6-.17c-.11-.3-.84-.51-2.7-.55-.28.12.52.08.78.12s1.15.26.35.3c-1,0-1.69-.14-1.53-.36C269.53,59,267.74,59,266.39,59.06Zm-.65-1.14a11.44,11.44,0,0,0,2.37-.11,11.69,11.69,0,0,1-2.35-.07Zm-8.19-.74c.32,0,3.06.17,2.77,0A9.14,9.14,0,0,0,257.55,57.18Zm-4,.65c2,0,3.38.25,5.11.07.45-.32-1.73-.26-2.35-.13A13.62,13.62,0,0,0,253.54,57.83Zm-5.52,0c1.29.2,3-.18,4.33,0C251.7,57.5,249.24,57.72,248,57.81Zm-1.49-.66a31.21,31.21,0,0,0,5.12,0C249.61,57.24,247.78,57,246.53,57.15Zm14.65,2.68s-.07.07-.4.06c-.14.15.52.2,1.55.18C262.46,59.91,262.21,59.81,261.18,59.83Zm-.27-1.08c-.27.23,2.15.07,3.14.13-.67.19.06.23,1.54.24C266,58.73,262.13,58.71,260.91,58.75Zm-.05.42a2.78,2.78,0,0,1,1.56.18,7.16,7.16,0,0,0,1.58-.11c-1.54,0-1.7-.11-.75-.25A9.44,9.44,0,0,0,260.86,59.17Zm-.5.9c-1.11-.08-.67-.38-2.72-.31-.44.13.71.12.76.24s-.94.07-.81.18.13.15,1.56.12C258.79,60,259.78,60.18,260.36,60.07Zm-9-.39c-.38-.36,3.26.11,2-.29a13.72,13.72,0,0,0,2.38-.12c1.3.13,2.57.25,4.29.32l0-.24c-1.76,0-2.77,0-1.94-.25-2.09,0-3.55.13-5.53.16C253,59.53,248.85,59.46,251.35,59.68Zm-4.44.83c1.59,0,2.72-.14,4-.23,1.42.11,3.36.14,5.5.14.14-.14,0-.24-.36-.31-.71.08-2.29,0-2.77.12,1,.1,1.39-.07,2,.06a11.05,11.05,0,0,1-3.13-.13c2.08-.09.64-.23,2-.35.75,0,.86.07,1.57.06.08-.17-1.17-.14-1.15-.3s1.92-.08.8-.12a21.67,21.67,0,0,1-3.18.29c1,.27-.61.29-1.22.3.75,0-.27.23-.82.24.19-.3-2.74-.15-3.1-.37l0,.3a7.71,7.71,0,0,1,2.35.13C248.23,60.35,246.39,60.24,246.91,60.51Zm-1.84-1.09c-1.12,0-1-.08-2-.06C242.39,59.63,245.17,59.58,245.07,59.42Zm-2.43.6c1.69,0,.52-.16,1.2-.18a8.8,8.8,0,0,0,2.38-.11c-1.5-.06-2.52.09-3.15,0C243.37,59.89,242.49,59.87,242.64,60Zm-2.4.29a11.63,11.63,0,0,0,2.36,0c-.3,0-.45,0-.38-.12A5.9,5.9,0,0,0,240.24,60.31Zm-2.74-.13c-1.28.07-.28-.19-1.56-.12a5.52,5.52,0,0,1-1.59.11c-.51.2,1.27,0,.76.25-1.17,0-1.92-.25-2.36,0,1.15,0,1.19.14,2.34.13,1.47-.1,2.41-.28,4.37-.29.07-.07-.05-.17.42-.18,1.94-.07-1.07-.06-1.19.06-.53,0-1.16-.25-1.57-.07C237.54,60.08,238.05,60.16,237.5,60.18Zm-4.68-.43a21.29,21.29,0,0,0,2.36.07c.51-.2-1.27,0-.76-.25,1.21,0,1.43.07,2.36.07.66-.12,0-.07,0-.24a26.57,26.57,0,0,0-3.56.17C235.08,59.58,232.94,59.68,232.82,59.75Zm-1.61.36a2.57,2.57,0,0,0-1.93-.37c.69,0,.88.11.76.24-.7,0-2-.06-1.59.12,1.36,0,2.2,0,3.14.07.52,0,2.85,0,1.59-.06Zm1.27-.78a18.79,18.79,0,0,0-2.75-.07A9.26,9.26,0,0,0,232.48,59.33Zm-3.12-.25c1.26.08.32-.19,1.59-.11.62,0,.29.15,1.16.12l0-.24c-1.49,0-1.87-.08-3.14-.07C228.78,59,230.34,58.94,229.36,59.08Zm-3.22.59c-.49.2,3.36.23,2.34.13C226.92,59.87,227.7,59.6,226.14,59.67Zm-1.51-.54c1.1,0,1.59.2,3.12.19C228,59.1,225.48,59,224.63,59.13Zm-4.36.17a16.09,16.09,0,0,0,3.55,0A17.92,17.92,0,0,0,220.27,59.3Zm-1.64.59A17,17,0,0,0,221,60,5.47,5.47,0,0,0,218.63,59.89Zm-.07.54c.94.12,3.16,0,4.72.07.41-.23-2.2,0-1.94-.24.55,0,.43-.15-.38-.12-.23.08.42.31-.43.3A4.65,4.65,0,0,0,218.56,60.43ZM204,60.33c-.93,0-1.15-.11-2.36-.07C201.06,60.45,204,60.42,204,60.33Zm13.53-1.16a2.8,2.8,0,0,0-.8.06c1.56.06,1.25-.17,1.62-.3h-1.58C216.46,59.09,217.54,59.05,217.53,59.17Zm-1.32,1.13c-.08.15.59.19,1.16.25.13-.08.57-.11.42-.24Zm-5.37-1.15c2,.08,2.51-.09,3.95-.11,0,.16-1.12.15-1.61.24A8,8,0,0,0,216,59a40.58,40.58,0,0,1-4.71-.19C211.57,59,210.69,59,210.84,59.15Zm1.07.9c-4,.05,1.57.18,1.58,0C212.76,60,212.61,60,211.91,60.05ZM206.8,60l0,.3c0,.08-2.84,0-1.59.11,1.53,0,2.91,0,3.93.08.66-.3-2-.1-1.53-.37.74,0,.88-.06,1.58-.05-.26.31,3.66.54,4.31.19-1.58,0-3-.05-3.53-.07-.72-.3,1.33-.16,1.22-.36C209.32,59.81,209,60,206.8,60ZM201,59.12a10.73,10.73,0,0,1,1.56.13c.88-.09-.48-.15.42-.18.15.1.51,0,1.18,0,.21.19-.76.18,0,.3a9.6,9.6,0,0,0,1.59,0c-.22,0-.45,0,0-.06a10.56,10.56,0,0,1,2.73.24c-.1-.24.74-.33.47-.6a31.83,31.83,0,0,1-3.54-.07c-.06.08-.14.15-.8.12-1.23,0-1.11-.19-2.75-.12C201.63,58.94,200.67,58.93,201,59.12Zm.35.36c1.48.16.7.22,2,.07-.45.22,1,.17.75.36.8.06,1.51-.19.81-.18a1.5,1.5,0,0,1-.79,0v-.12a22.33,22.33,0,0,0,2.77,0,16.85,16.85,0,0,0-2.76,0,27.2,27.2,0,0,0-3.92-.19C199.88,59.52,200.85,59.43,201.34,59.48ZM197,60a17,17,0,0,1,2,.13h-2.76c-.34.07-.54.16-.43.3,2.34.08,2.46-.18,4.36-.17.26-.12-.7-.12-.77-.18a5.74,5.74,0,0,0,.8-.12,5.32,5.32,0,0,1-.78-.06c-.17-.06.83-.14-.38-.12C199.71,60,197.15,59.8,197,60Zm-3.49-.49c.74.11,2.6,0,3.94.07C197.15,59.18,194.59,59.33,193.46,59.46Zm-1.31.27-.68,0a6.24,6.24,0,0,0-1.17-.13,5.17,5.17,0,0,0-1.59.12,15,15,0,0,1,2.36.07c-1.87-.06-1.11.14-1.6.17a21.19,21.19,0,0,0-2.36-.07c.22.27,3.1.14,4.31.26,0,.06-.33.07-.41.12a16.19,16.19,0,0,0,2,0c.61-.23-1.76,0-1.15-.24h2c.43-.25-1.77,0-2-.18s.12-.08.3-.09C192.57,59.75,192.38,59.73,192.15,59.73ZM186,59.5c2.09.07,1-.1,1.59-.11,1.64,0,3.41.14,4.71.07-.58,0-.34-.15-.36-.24-1.84.17-3.2,0-5.92,0Zm-10.62-.15c0,.08.17.13.37.18a4.76,4.76,0,0,0,1.6-.17A8.65,8.65,0,0,0,175.36,59.35Zm-4.4.53a15.86,15.86,0,0,0,2.37-.05A7.12,7.12,0,0,0,171,59.88Zm-8.71.4a9.06,9.06,0,0,0,1.58,0C164.16,60.05,162,60,162.25,60.28Zm-.32-.6a24.1,24.1,0,0,0,3.93.07A35.59,35.59,0,0,0,161.93,59.68Zm-7.39-.81a5.23,5.23,0,0,0,1.56.13l0-.18A9.41,9.41,0,0,0,154.54,58.87Zm-3.18.24c1.32.1,3,.06,2.78-.24-.24,0-1.49-.15-1.57,0,.24,0,.46,0,.39.06A2.92,2.92,0,0,0,151.36,59.11Zm-5.49-.26c-.19.28,1.59,0,2.37,0a15,15,0,0,0,3.15,0C149.59,58.83,147.07,58.73,145.87,58.85Zm-3.22.65a7.12,7.12,0,0,0,2.37,0A15.86,15.86,0,0,0,142.65,59.5Zm21.82-1.32c1.29,0,1.48.18,3.13.13C167.67,58,165.65,58.08,164.47,58.18Zm-4.33-.07c1.33-.07,2.06.24,2.75.07-1.58-.07-.91-.14,0-.24A14.67,14.67,0,0,0,160.14,58.11Zm-4.66-.55c.37.14.08.38,1.53.36C157.21,57.7,156.21,57.65,155.48,57.56Zm-1.22.29c2.13.09-1.5.36,1.14.37C156,58,155.24,57.74,154.26,57.85Zm-10.66.21c-.46,0-.41-.09-.37-.18a13,13,0,0,0-1.58.06C141.35,58.09,143.3,58.2,143.6,58.06Zm-3.06-.78c.06.09-.16.22.37.24-.11-.13,1.14,0,1.17.06s-1,0-.8.18c1.75,0,4.12-.11,5.91,0,1,0,1.38.23,2.33.25-1.25,0-3.48.18-2.79.29.83-.19,3.5-.17,4-.35-.05,0-1.25,0-.77-.12.7,0,1.65-.17,2,0a5.84,5.84,0,0,0-1.19.05c.58.08,1.6.08,1.95.19-.45.09-.45.15.37.18-.27-.18,1.37-.07.82-.3-1,0-1.24.11-1.56-.06l1.24-.54H152c-.54.15,1.53.19.36.24a8.15,8.15,0,0,1-1.57-.07s1.1,0,.8,0c-1.12-.08-2.29,0-3.55,0-.81,0-2.21-.17-2.37,0,1.88,0,2.36.2,3.91.25a12.27,12.27,0,0,1-3.13-.19,24.5,24.5,0,0,1-3.54,0c0-.17,2.57.08,2-.17C143,57.45,142.47,57.3,140.54,57.28Zm-7.64,1.36a4.63,4.63,0,0,0,2.72.3,2.36,2.36,0,0,1-.77-.12c.51-.08,1.72,0,2.76,0-.47.19.6.15.76.24,1.36.05,1.52-.08,2.76,0-.25-.19-.26-.12,0-.3Zm-11.05.21c1.43,0,2.56,0,3.55-.06.1.14-1.15.07-1.21.18A3.48,3.48,0,0,1,125,59h.79c.08-.09-.11-.23.42-.24.52.26,2,0,3.15,0l0,.18c1.64-.19,4.13.22,4.34-.05-1.66,0-2.89-.15-1.93-.31a24.17,24.17,0,0,0-3.57.17C126.09,58.85,122.6,58.44,121.85,58.85Zm-8.07-1.77a9.1,9.1,0,0,0,2-.11c-.91-.08-.73,0-2-.07Zm-2.5,1.14a19.49,19.49,0,0,0,2.36.06C114.22,58.09,111.3,58.12,111.28,58.22Zm-.45.53c2.62,0-.38.21.75.31,1.76,0,3,0,4.34-.05,1-.08-.69-.18.42-.24a26.71,26.71,0,0,0,3.11.31,2.18,2.18,0,0,0,1.23-.36c-1.42,0-3.15,0-1.59.12-1.36,0-2.08-.17-3.53-.19C114.63,58.92,112,58.58,110.83,58.75Zm-.43.3c-.48,0-.24-.06,0-.12-1,0-.83-.19-2-.18C107.68,58.83,109.51,59.23,110.4,59.05ZM54.09,22.67a5.09,5.09,0,0,0,1.2-.06c-1.44,0,1.09-.3-.76-.24C54.08,22.43,54.39,22.48,54.09,22.67ZM34.58,21.12a29.27,29.27,0,0,0,4-.05C38.1,21,35.41,21,34.58,21.12ZM18.05,22.63a6.41,6.41,0,0,1,.95.06C19,22.52,17.94,22.44,18.05,22.63Zm-.57,1.76c-.14-.48.11-.82-.05-1.27C17.38,23.2,17.25,24.46,17.48,24.39Zm.79,32.19c-.21.07-.31.22-.56.29h.74C18.55,56.73,18.62,56.59,18.27,56.58Zm16.24,1.3c-1.51,0-.77-.28-2.74-.18-.21.19,1.34.16.36.3A11.39,11.39,0,0,0,34.51,57.88ZM41,56.4a5,5,0,0,1-1.56-.12c-.12.17.71.21,1.14.3,0,.12-1.08.07-.81.24C42.11,56.85,40.68,56.67,41,56.4Zm22.42.24a11.22,11.22,0,0,0-2.37.12C62.51,56.72,63.32,56.93,63.41,56.64Zm10.1,1.23h-2C71.13,58.11,73.86,58.11,73.51,57.87ZM76.76,57a8.75,8.75,0,0,0-2.37.11C75.2,57.06,77.11,57.2,76.76,57Zm6.28.2c-1.33,0-3.29.12-2.39.23C80.82,57.34,83.69,57.54,83,57.18ZM92,58.1a7.61,7.61,0,0,0-2.72-.24C88.56,58.18,90.6,58.09,92,58.1Zm7.63-1.18c-1.2-.17-2.59,0-3.92-.19-.27.16.65.08,1.17.13A8.07,8.07,0,0,0,99.62,56.92Zm6.09,1.76a18.6,18.6,0,0,0-3.58.35,27.92,27.92,0,0,0,3.54,0C104.8,59,105.4,58.72,105.71,58.68Zm-9.87.21C95.57,59.13,98,59,99,59a13.83,13.83,0,0,1,1.58-.05c-.26.15.13.21,1.16.18.31-.18-1.07-.12-.75-.3a9.16,9.16,0,0,0,2.38-.18C101,58.73,98,59,95.84,58.89ZM75,58.78c.3,0,.45,0,.38.12a16.19,16.19,0,0,1,2,0C77.71,58.72,74.74,58.74,75,58.78Zm-7.5.1a4.14,4.14,0,0,0,1.59-.12,13.14,13.14,0,0,0-1.57-.06Zm-2.75-.07a4.16,4.16,0,0,0,2.32.36c.44-.21-.46-.11-.76-.24,0,0,.59-.08,0-.12ZM38.3,59.1A11.33,11.33,0,0,0,40.68,59c-1.16,0-1.19-.14-2.35-.12Zm60.89-38c.14.11-.89.16-2,.23a12.73,12.73,0,0,0,1.56.12C99,21.4,100.8,21.1,99.19,21.12Zm8.68-.1c-.31,0-.46-.05-.38-.12a8.18,8.18,0,0,0-2,.17A16,16,0,0,0,107.87,21Zm195.07-.72a12,12,0,0,0-2.35-.07A8.6,8.6,0,0,0,302.94,20.3Zm5.86.43c-.71,0-.92-.06-.77-.18-1.24,0-1.4.1-2.76.05a9.43,9.43,0,0,0,2.33.25c.18,0,0-.15.41-.12C308,20.82,309.06,20.93,308.8,20.73Zm6.74-.34c.19-.15-2-.24-2.35-.13C313.92,20.31,314.62,20.37,315.54,20.39ZM415.8,34.92c-.05,1.51.28,1.55.24,0Zm-.09-10.59c-.09,0-.14.18-.16.65s0,1.05,0,1.63C415.74,26.89,415.71,25.42,415.71,24.33Zm4.57-7.71c-.1,1-.38,0-.36,2.24.07.52.16.82.3.55C420.2,18.12,420.29,17.86,420.28,16.62Zm-13.57-1.08c-.13.12.52.12.77.18-.27.15-.83.31.75.3,0-.08-.17-.13-.37-.18.86,0,1.26,0,1.2-.17A13.93,13.93,0,0,1,406.71,15.54Zm-1.84,5.58c1.1-.06,3.68.13,3.56-.11-.32-.18-.61.13-1.58,0,0-.07-.1-.14-.78-.12C406.66,21.15,404.73,21,404.87,21.12ZM403.11,16c1,0,2.5-.12,2-.29a23.16,23.16,0,0,1-4,.16C400.78,16.06,402.41,16,403.11,16Zm-4.76.29c.61-.13,2-.14,2-.36C398.56,15.87,396.65,16.19,398.35,16.3ZM374.15,21a15.73,15.73,0,0,0-1.94-.18C372,21,373.79,21.16,374.15,21Zm-29.34-1.7,0-.24h-1.18C343.53,19.24,343.77,19.35,344.81,19.33Zm-49.65.16a17.75,17.75,0,0,0,3.16-.11C297.56,19.43,294.4,19.41,295.16,19.49Zm-5.07-.43a14.15,14.15,0,0,0,2.34.19A5.27,5.27,0,0,0,290.09,19.06Zm-3.64.83c.15-.25-2.29-.05-2.76,0A17,17,0,0,0,286.45,19.89ZM272,19.25c1.06,0,.74.13,1.16.18a22.93,22.93,0,0,0,3.56-.11,8.21,8.21,0,0,0,1.16.13,71.76,71.76,0,0,1,7.49,0c-.36-.12,2.26,0,.8-.12-.74,0-.87.06-1.58.05a9.72,9.72,0,0,0-2.33-.24c-.71,0-1,.06-2,0S278,19,277.09,19c-.51,0-.54.08-1.18.06C274.86,19.05,272,19,272,19.25Zm-47.68.11c.93,0,1.82.17,2.73.19s1.23-.1,2-.12c.39,0,.29.06.38.06.35,0,.37-.06.4-.06a14.36,14.36,0,0,0,3.58-.23c-1.45-.06-3.73.09-5.92.11C226.3,19.32,224.71,19.1,224.27,19.36Zm-55,2.31a13.25,13.25,0,0,0,2.36,0C172,21.46,169,21.53,169.24,21.67Zm7.14-.4c-1.48-.13-1.6.27-.83.3C175.28,21.38,176.92,21.5,176.38,21.27ZM174.45,21a17.59,17.59,0,0,0,1.94.19C178.47,21,175.19,20.67,174.45,21Zm49-1.36c.13-.18-.87-.19-.74-.37a2.85,2.85,0,0,0,.79-.05C221.37,19.19,221,19.58,223.45,19.6Zm-22.11-2.88a17.51,17.51,0,0,0,3.16-.06A16.49,16.49,0,0,0,201.34,16.72Zm-10.65.09a14.18,14.18,0,0,1,2.75.12c.06-.15.76-.18,0-.3C192.8,16.73,190.6,16.59,190.69,16.81Zm-22.46.11a5.08,5.08,0,0,0,2-.05A5.27,5.27,0,0,0,168.23,16.92Zm1.59,3.19a22.3,22.3,0,0,0,3.16-.05c-.41.24,1.48.06,1.57.06.82,0,1,.18,1.94.19-.26-.27,2.16-.11,2.4-.3.7,0,2-.05,1.56.13-1.24,0-1.59-.15-2,.05a15.49,15.49,0,0,0,2,.07c.72,0,3.32-.42,3.55-.11-.21,0-.45.05,0,.06.51-.17,2.27.27,2.76-.05-.23-.09-1.51,0-1.56-.13a28.06,28.06,0,0,0,4.34-.05,5.36,5.36,0,0,1,.77.19c.33,0,2.52,0,2.75,0,.06,0-.07.12,0,.12.76,0,1.6-.11,2.37-.05.05.07-.09.17.37.18.87-.12,0-.19-.36-.3,1.64-.06.46-.24,2.4-.29a12.73,12.73,0,0,0,1.56.12,8.65,8.65,0,0,1,1.59-.12c2.36-.06,5.2-.06,7.88,0a4.64,4.64,0,0,1,1.59-.18l10.65-.09c.35-.43-2.91-.13-4.32-.13-2.41,0-4.61-.11-6.68-.14,0,.1-.32.15-.81.18-3.38-.12-5.18,0-8.28.09-.24-.13,1.14-.18-.37-.18-.48.11-1.53.13-2,.24-2.88-.06-5.68.08-7.08-.08a28.16,28.16,0,0,1-4.33,0c.44.29-2,.13-2.79.23.13-.12,1.08-.11,1.21-.24-1.35.11-1.89,0-3.54,0-.66.24,1.7,0,1.55.19s-1.88,0-3.55.05c0,.07-.13.14-.8.12.79-.2-.14,0-1.18-.07a18.12,18.12,0,0,0-3.55.11c0-.1.11-.18.42-.24a6.93,6.93,0,0,0-2,.18c-2.53-.05-4.89-.05-5.49-.2.06-.07.71-.13,0-.18s-.64.23-1.22.3c-1.07,0-1.81-.26-2.36,0a31.51,31.51,0,0,1,3.53.13c-.66.06-1.8.08-2.77.12a11.63,11.63,0,0,1-2-.07C160.76,20.36,170,20.27,169.82,20.11Zm-18.54.25c.3-.21-1.36-.22-2-.13C149,20.44,150.68,20.45,151.28,20.36Zm-12,1.23c1.13,0,2.58,0,3.15.06a4.88,4.88,0,0,0-1.94-.24c.23,0,.46,0,.38.06A7.77,7.77,0,0,0,139.31,21.59ZM136.63,21a8.25,8.25,0,0,0,2.37-.06A8.22,8.22,0,0,0,136.63,21Zm-1.15-.31c-.08.25,1,.17,2,.13C137.86,20.6,136.22,20.7,135.48,20.67Zm-.78-3.42a10.54,10.54,0,0,0,2.78-.17A11,11,0,0,0,134.7,17.25Zm-.74-.36c.2-.19-.82-.19-2-.19C131.81,16.89,132.83,16.9,134,16.89Zm-5.56.34a5.94,5.94,0,0,0,2-.11C129.81,17,128.15,17,128.4,17.23Zm-4.68,2.93c1.48.09.78-.16,2-.11.77.05,3.91.28,4.33,0A31.62,31.62,0,0,1,126.5,20c.1,0,1.25,0,.4-.06C126.22,20.07,123.38,19.86,123.72,20.16Zm-.43-2.94c1.11,0,1,.09,2,.07,0-.11-.07-.19-.37-.24A4.47,4.47,0,0,0,123.29,17.22Zm-11.8,3.09c2-.14,3.16.16,4,0-1.2-.06-1.2-.3-2.72-.31-.47.09-.48.15,0,.24A3.76,3.76,0,0,0,111.49,20.31Zm-3.88-.43c1,0,1.3-.08,1.21-.24C107.76,19.64,106.91,19.77,107.61,19.88ZM86,19.76c.3,0,.45,0,.37.12,1.11.07,2.72-.09,2.76,0-.12.12-1.74,0-1.6.17a16.92,16.92,0,0,0,2.77,0c-.57-.18.16-.23-.35-.36C88.43,19.74,87,19.74,86,19.76Zm-23.69.41c.75,0,.86.07,1.57.07-.31-.17.57-.16.43-.3A7.45,7.45,0,0,0,62.27,20.17Zm-5.51,0a14.43,14.43,0,0,0,2.35.13c0-.09-.17-.14-.38-.19,1.38-.18,2.4.15,3.16,0a33.43,33.43,0,0,0-3.53-.19c-.08.09.11.22-.42.24,0-.11-1.33,0-1.56-.12C53.83,20.2,55.45,20.09,56.76,20.16ZM11.05,28.7A20.25,20.25,0,0,0,11,25.55c0,.47-.07.23-.12,0C11,26.89,10.67,28.13,11.05,28.7Zm.11.81a1.48,1.48,0,0,0,0-.79,13.12,13.12,0,0,0-.25,1.94C11.11,31,11.05,29.65,11.16,29.51ZM11,35a6.77,6.77,0,0,0-.11-2.38A12.78,12.78,0,0,0,11,35Zm2.08,7.72A23.28,23.28,0,0,0,12.94,40,7.76,7.76,0,0,0,13.11,42.73Zm-2,1.73A6.45,6.45,0,0,0,11,42.09,6.17,6.17,0,0,0,11.06,44.46ZM26.24,61.22a19.67,19.67,0,0,0-2.37.06c0,.11.23.2.75.24C24.14,61.26,25.77,61.33,26.24,61.22Zm2.34.13A3.81,3.81,0,0,0,27,61.28c1,.28-1,0-1.59.12C25.52,61.76,28.15,61.48,28.58,61.35Zm16.43,1a9.26,9.26,0,0,0-2.76.06C43.31,62.28,44.24,62.5,45,62.35Zm15,0a3.49,3.49,0,0,1-1.2.11c-.21.19.47.25,1.15.31,0-.11.41-.14,1.19-.12C61.34,62.45,60.66,62.39,60,62.34Zm3.51.31a4.6,4.6,0,0,0-1.14-.37C62.45,62.45,61.74,62.73,63.49,62.65Zm.14-1.2c-1.5.08-4.31,0-4.75.22.66.09.46,0,1.19-.05C61.27,61.58,63.73,61.71,63.63,61.45ZM77,62a8.4,8.4,0,0,0,2-.23c-1.12,0-1-.09-2-.07Zm-2,.36a15.46,15.46,0,0,0-2,0c-.33.14.38.4.75.24C72.83,62.54,74.53,62.38,75,62.32Zm6.28.19c-1,.05-3.38-.12-3.16.12C79.06,62.58,81.44,62.75,81.23,62.51Zm0-.06c-.13-.25-3.3-.06-4.71-.13-.06.11-1.31,0-1.21.18C78,62.49,78.53,62.35,81.24,62.45ZM193.06,20.11a6.81,6.81,0,0,1,2.39-.23,3.68,3.68,0,0,1-1.19.12c-.08.05.14.05.38.06A9.41,9.41,0,0,1,193.06,20.11Zm79.31,38.37a7.46,7.46,0,0,1-2.37.05A9.88,9.88,0,0,1,272.37,58.48ZM50,20.38a40.41,40.41,0,0,1-5.53,0c0-.25.61,0,1.19,0A41.63,41.63,0,0,1,50,20.38Zm-35,19c.06,1.2,0,2.81,0,5.13C15,43.11,15,40.74,15,39.42ZM237.31,61.74c-.61.33-3.54.14-5.13.11-1.08,0-2.93.1-3.13-.13C231.82,61.85,235.23,61.78,237.31,61.74Zm47.1-1.85c-.71,0-.84.07-1.58.06-.37-.14-.66-.3-.73-.48C283.31,59.54,284.29,59.65,284.41,59.89Zm-39.24,2c-.95.14-3.54,0-5.13.05C241.21,61.84,243.68,62,245.17,61.94Zm-35-.33,6.7,0c-3.74.26-7-.06-12.22,0C203.85,61.55,208.5,61.61,210.15,61.61Zm76.59-1.41H282.8C283.55,60.15,286.56,59.93,286.74,60.2Zm11-.15a8.75,8.75,0,0,1-2.36.05A9.2,9.2,0,0,1,297.78,60.05Zm-6.31.1a25.68,25.68,0,0,1-3.93-.07A23.92,23.92,0,0,1,290.7,60C290.68,60.07,291,60.13,291.47,60.15Zm-37.25-1.42c-1.63-.07-1.56.12-2.77.11-.91-.36-2.56,0-3.54-.07.21-.05.42-.09.41-.18a22.81,22.81,0,0,1,2.75.07C252,58.61,254.31,58.41,254.22,58.73Zm6.8-37c-2.58.07-5.17,0-8.27,0,2.13-.09,4.73-.11,7.5-.1C260.92,21.54,261,21.61,261,21.68ZM96.65,16h2.76C99.31,16.05,96.45,16.19,96.65,16Zm235.58-.14a13.32,13.32,0,0,1,2.38-.17c.61,0,2.19,0,1.95.19C334.86,15.74,334.36,15.84,332.23,15.81ZM116,15.94c.84.11,2.73.06,4.33.07s3.74-.09,3.92.13C121.63,16.05,116.61,16.32,116,15.94Zm98.44.33c-1.31-.21,3-.06,3.57-.17a5.29,5.29,0,0,0,1.17.06C218.54,16.42,215,16.17,214.39,16.27Zm-74.09.34c1,0,2,0,1.94.18C141.11,16.8,140.09,16.79,140.3,16.61Zm-27.17-.14c-.16-.16,2.14.06,2-.11.31.15,3.09-.06,2.74.19C116.17,16.54,115.11,16.44,113.13,16.47Zm-12.6,0c1.8,0,2.17.15,3.52.19C104,16.63,100.05,16.71,100.53,16.44Zm13.75.28c1.3,0,2.79,0,2.74.18C116.37,16.8,114.14,16.93,114.28,16.72Zm5.1.19c.32-.2-1.59-.08-1.14-.3,1.31,0,1.32.2,2.73.18A3.93,3.93,0,0,1,119.38,16.91Zm161,4.64a27.79,27.79,0,0,1-4.35.11l-9.84,0c-1.63,0-3.78.22-4.33-.07,3.13.14,6.51,0,9.86,0C274.23,21.54,277.15,21.59,280.34,21.55Zm-34.28.09c-.75,0-2.93.07-3.94,0A20.75,20.75,0,0,1,246.06,21.64Zm-22.83-.12c-.61.08-1.75.09-2.78.11C220.17,21.4,222.33,21.56,223.23,21.52Zm18.11.05c.07.23-4.3.1-5.13,0C237.16,21.48,239.75,21.6,241.34,21.57Zm68.56-.12a27.76,27.76,0,0,1-3.95.05C306.51,21.37,308.69,21.49,309.9,21.45Zm31.53-.21a9.09,9.09,0,0,1-2.37.05l-11.43.09c.6-.33,2.54-.1,3.56-.11Zm-56,.33a17.35,17.35,0,0,1-4.33,0C282.27,21.63,283.49,21.52,285.46,21.57Zm19.71-.13a7.05,7.05,0,0,1-2.37.06A14.32,14.32,0,0,1,305.17,21.44ZM60.79,16c.82-.14,3.28,0,4.73-.05C64.71,16.12,62.25,16,60.79,16Zm81.9,46.41c-.54.1-1.76.09-2.38.18a2.61,2.61,0,0,0,.77.12c-.64.22-.57-.14-1.57-.07A16.37,16.37,0,0,1,142.69,62.44Zm9.44.15c-.37.3-1.91.1-3.16,0A29.56,29.56,0,0,1,152.13,62.59Zm-13.08.68c-1.18,0-2.4,0-2.34-.18C137,63.22,139.44,63,139.05,63.27Zm9.08-.15a10.67,10.67,0,0,1-2.75-.07,10.59,10.59,0,0,1-2,0A33.3,33.3,0,0,1,148.13,63.12Zm-8.63-.33a11.65,11.65,0,0,1-2,.06c-.25,0-.32.11-.41.12-.62,0-.68-.08-1.17-.07a12,12,0,0,1-2.39.18c-.37-.18.9-.11,1.59-.12-.17-.19,1-.24-.35-.3.5-.21.81.06,1.17.06.54,0,.12-.09.41-.11.6,0,1.59.14,2.75.06C139.05,62.74,139.19,62.78,139.5,62.79Zm-22.06,0c-2,0-2.38.2-4.74.11.2-.13-.55-.11-1.17-.12a16.09,16.09,0,0,1,4.73-.05c0-.15-.71-.19,0-.3-1.72,0-6.26,0-6.66-.32,1.65,0,2.31.17,3.92.19.47,0,1.38-.17.41-.18,2.53-.18,6.9.09,9.07,0a25.85,25.85,0,0,1-3.58.23c-.3.13,1.43.25,1.57.12,1.44.16-1.52.13-2.38.12s.19-.18.43-.3c-1.59,0-2.24-.07-3.54-.07-.35.23,1.25.14,1.55.18.11,0-.6.1-.4.12s1.47,0,1.16.19C117.46,62.68,117.53,62.75,117.44,62.79Zm21.95.9c-1.59,0-3,.22-4.37.29-1,.06-.53-.1-1.57,0-2,.19-5.55.23-9.88.27-.38-.08-1.32-.08-1.55-.18-.11-.28,2.27-.16,1.22-.42,1.41-.09,1.76,0,3.16,0,0-.26-2.34-.17-3.91-.19,0-.11.49-.13.42-.24,2,.23,4.61,0,7.47.08.17.13-.57.11-1.19.12a5.17,5.17,0,0,0-1.61.29,4.35,4.35,0,0,0,2-.11c3.12,0,5.84.21,8.27,0A7.28,7.28,0,0,0,139.39,63.69Zm-7.5.1a8.48,8.48,0,0,0-1.16-.12c-.29.24,1.47.18,2.73.19C136.14,63.85,133,63.76,131.89,63.79ZM121,62.92c.1-.06.79,0,.8-.11a14.89,14.89,0,0,0-2.36-.07,2.67,2.67,0,0,0,.79.06c.18.19-1.11.27.75.24a9,9,0,0,1-2.37.06c-.3,0,.85-.08.8-.06.15-.06-2.25,0-2.76,0-.17-.13.58-.11,1.2-.12a28.59,28.59,0,0,1,5.55-.34c-.21,0-.42.1-.41.18a8.26,8.26,0,0,1,2.39-.23c-.13.15.11.25,1.15.24-.43.35-2.47.21-4,.29,0-.17.67-.12,0-.24A5.52,5.52,0,0,1,121,62.92Zm32.39-.75c-.1.09-1.18,0-1.2.12H149a12,12,0,0,1-3.13-.19c1,0,.85.11,2,.07l0-.18a32.91,32.91,0,0,0-4.33-.07c-.42-.23,1.23-.1,2-.12s1.38-.1,2-.11c2,0,4.12,0,5.52,0,.95.15-.6.11-.43.3-.33-.25-3.31-.21-4.71-.13a6.47,6.47,0,0,0,2.33.3c.25-.15-.14-.21-1.16-.18A32.74,32.74,0,0,1,153.36,62.17Zm-41.84.73c-1.59.26-2-.13-4.33-.07,1.72.08.77.21-.81.23.25-.28-1.52-.09-2.33-.3.27,0,1.68-.19,0-.18.4-.24,2,0,3.16,0-.29.13-2.07,0-1.61.29.38,0,.31-.07.41-.12h2.75c.64,0-.61-.29,1.21-.24C110.75,62.66,108.38,62.91,111.52,62.9Zm53.59-.16a14.17,14.17,0,0,0,2.35.07C167.67,63,164.86,62.89,165.11,62.74Zm235.94-3.19c.95-.13,3.54,0,5.13,0C405.23,59.64,402.64,59.52,401.05,59.55ZM165.52,62.63a7,7,0,0,0-2,.29c-1.36,0-3,0-3.13-.19a26.21,26.21,0,0,0,3.55,0c0-.06-.48-.05-.78-.06A8.26,8.26,0,0,1,165.52,62.63ZM407,62.57a4.17,4.17,0,0,1-1.59.12c-.06.16.64.12,0,.24-1.47.1-3.09.07-4.74.1-2.54.06-5.15.15-7.9.16-.6,0-1.07-.06-1.17-.06-4,0-7.92.17-11.84.2-.7,0-1.63-.07-2.36-.06-.44,0-1.11.11-1.59.11s-1.35-.06-2-.06c-2.72,0-6.13.09-9.06,0,.34-.16-.54-.15-.36-.3-1.59.08.09.13,0,.3a50.79,50.79,0,0,0-5.53.17,4.71,4.71,0,0,1-1.57-.07,13.34,13.34,0,0,1-2.76,0c.43.38-1.15.1-2,.23A7.7,7.7,0,0,1,354,64c.66-.09-.15-.22.84-.35,1.24,0,1.37.11,2.74.06l0,.24c1.31,0,.26-.31,2-.35,0,.11-.5.12-.43.24a29.16,29.16,0,0,1,3.16,0,27.21,27.21,0,0,1,4.36-.23,18.28,18.28,0,0,1-2.38.17c.37.08,1,.13,1.55.19.87,0-.36-.13-.38-.12a7.25,7.25,0,0,1,1.19-.06,4.22,4.22,0,0,1,2-.12c.39.17-.86.07-1.19.12s.08.22-.82.24a26.66,26.66,0,0,0,3.93.13c0-.28-1.58,0-1.95-.19s1.33-.15,1.61-.29c1.31.06.18.11.36.3a10.24,10.24,0,0,0,2.73.25c0,.21-1.49.38-2,.17-1.08,0,1,.12.35.3a16.82,16.82,0,0,1-2.75,0c-.38,0-.87.06-1.59.05-1.81,0-3.9-.13-5.89-.14-.8,0-1.07.06-1.58.06-2.82,0-6.31-.11-9.05-.08-1.19,0-2,0-3.14-.07-6.63-.12-13.6-.16-20.05-.36-.64,0-1-.1-1.56-.12-1.36-.07-2.7,0-4.33,0a30.14,30.14,0,0,0-3.16,0,17.59,17.59,0,0,1-1.94-.19c-2,.11-4.14-.09-6.31,0-.71,0,0-.23.81-.17-1.42-.22-3.54.07-3.17.17-1.44-.07-3.29-.07-3.51-.31-1.89.27-5.05-.21-6.71.1a4.15,4.15,0,0,1-1.17-.12c-.27,0-.66.07-1.19.05-1.71-.05-4.69-.19-7.06-.2a9.7,9.7,0,0,0-2,.12c-.46,0-.31-.11-.37-.18-2.16.05-3.88.05-5.51,0-.38,0-.32.07-.41.12-1.46-.11-2.24,0-3.13-.13s-.58.11-1.2.12c-.89-.07-2.64-.12-4.32-.13-1,0-3,0-3.55.05-.82,0-1.62.1-2.38.11-2.88,0-5.81,0-8.27,0a61.82,61.82,0,0,1-6.3,0c-.67,0-.89.11-1.59.12s-.69-.07-1.17-.07c-.9,0-2.18.11-3.17.11-2.23,0-4.33-.11-6.68-.07-.61,0-.71,0-1.19,0-.68,0-1.31-.06-2-.06s-1.14.1-1.59.11c-.21,0-.73-.06-1.18-.06-.7,0-.84.06-1.58.06-3.06,0-6.36-.09-9.06,0-.64,0-.67-.07-1.17-.06a46.53,46.53,0,0,1-5.52,0c-1.55.18-3.84,0-6.7,0,.05-.11,1.3,0,1.2-.17a4.85,4.85,0,0,0-1.6.17c-.73-.11-2.59-.05-3.93-.07-.9,0-.46.17-1.2.18-4,0-7.62-.09-11,0-.91,0-1.53.1-2.37.11-2.48,0-5-.07-7.48-.08-.75,0-1.64.07-2.37,0s-1.15-.1-1.95-.12-1.22.06-2,0c-2.91,0-6.31-.08-9.44-.14-.21-.18,1.53,0,2.77,0,.74,0,2.57-.28,2.76,0,1.38,0,1-.21,2.38-.17,0,.1.27.16.76.18-.17-.13,1.38-.26,2.37,0,.45-.22-1.46-.1-1.14-.3L182,63c.37-.23-1.7-.1-1.14-.36,2.74.14,4.64-.22,6.69.08.82,0,.85-.09.42-.18.9-.08,1.46.16,1.57,0,.93,0-.47.16-.42.24,2.78-.13,4.53-.2,7.5-.1,0-.06-.48-.05-.78-.06,1.4,0,5.05-.13,7.08,0,1.39,0,1-.21,2.39-.18a16.36,16.36,0,0,0,2.35.13c.66,0,.75,0,.8-.12a7.46,7.46,0,0,0,2.37,0,28.06,28.06,0,0,0-3.14-.07c.12-.15-.12-.26-1.16-.24-.32,0-.4.06-.79.06.25.06.89.06.76.18-9.75-.16-14,0-23.22-.13-.47-.08-.15-.09,0-.18-2.51,0-4.65,0-6.7,0-.43,0-.28.11-.8.11-1.08,0-2.2-.07-1.93-.3-1,.07-1.23.05-.82.24A4.67,4.67,0,0,0,171.9,62a12.31,12.31,0,0,1,2.4-.35,30.7,30.7,0,0,0,3.54.07c.58.21-1.34,0-1.2.18.77.14,3.1,0,2-.18,1.54.07,2.31-.12,3.16,0,.16.13-.58.11-1.2.12.55.16,2.53,0,2.38-.12,2,.07,4.25.08,6.69,0,1.11,0,1.66.15,2.74.19.43,0,.28-.12.8-.12,3.67.05,8.41,0,11.41.09.38.21-1.23.09-2,.12a12.18,12.18,0,0,0,3.56-.17c4.94.15,8.6.13,13.39.09.28.12,1.16,0,.37.19a5.78,5.78,0,0,0,1.59-.12c3.11.09,6.62.12,9.44.09L235.7,62c1.22,0,2.05.07,3.15.07.62,0,1.35-.06,2-.06s.91.12,1.56.13,3.76-.06,4.74-.11c.41,0,.3-.11.81-.12a22,22,0,0,0,2.75.07A9.31,9.31,0,0,0,253,62c1.25,0,1.3.16,2.75.12a5.4,5.4,0,0,0-1.18-.06A7.42,7.42,0,0,1,257,62c4.93,0,9.35-.06,15.36,0,1.85,0,5.25,0,7.88,0,.7,0,.82.07,1.56.07a22.53,22.53,0,0,1,4.33.07,31.21,31.21,0,0,1,4.74-.11,6,6,0,0,1-1.19.06c-.14.1,2.19.11,1.58-.06a19,19,0,0,0,3.14.13c0-.06-.48-.05-.78-.06,1.6-.14,4.85,0,7.09,0a43.73,43.73,0,0,0,5.88.25c-.23-.12-2,0-1.54-.24,2.26.06,2.63-.16,5.13-.11,1.47,0,3,.14,4.71.14a5.79,5.79,0,0,1-1.19,0c.84.17,2.63,0,1.6-.17a3.85,3.85,0,0,1,1.56.12c2.34-.17,6.15,0,9.07-.09-1.36.18,1.67.24,2.35.12-.22-.22-2,.16-1.56-.12l11,0c-.12.1.36.1.38.18l1.2-.18c1.7,0,3.47,0,5.12,0,2.85,0,5.93.07,9.05.08l2.37,0c3.31,0,9.17.08,13.39,0,1.28,0,2.36-.1,3.56-.11,2.56,0,5,0,7.48,0l9.07-.1c.71,0,.82.07,1.57.07S392,62,392.49,62a15.86,15.86,0,0,0,3.16-.05l10.24,0c0,.1-.5.12-.42.24h-3.16c-.85,0-.2.21-.43.3.87,0,.58-.11,1.2-.12,1,0,.35.1.77.12a6.33,6.33,0,0,0,1.19-.06A11.69,11.69,0,0,0,407,62.57Zm-205.18-.5a9.25,9.25,0,0,0-2.35-.07A9.74,9.74,0,0,0,201.82,62.07Zm-16.64.85c-.74-.07-1.85-.08-2.75-.13-.25.22,2,.36,2.33.31C183.63,63.06,185.38,63,185.18,62.92Zm3.86.67a11.13,11.13,0,0,0-3.14-.13A25,25,0,0,0,189,63.59Zm13.41-.14a15.41,15.41,0,0,0-3.55,0C200.26,63.4,201.26,63.6,202.45,63.45Zm10-1.3c-.53-.13-3.53.06-2.77.12C210,62.14,212.19,62.3,212.45,62.15Zm26.66,1.1a13.1,13.1,0,0,0-2.77,0A10.36,10.36,0,0,0,239.11,63.25Zm11.82-.09c-.1-.14-1.07.06-1.19.12h3.54C253.68,63.07,251.74,63.2,250.93,63.16Zm47.72-.41a5.53,5.53,0,0,0-2,.18C297.66,62.92,298.68,62.92,298.65,62.75Zm2-.53c-1.46.06-4.63-.26-5.13,0,1.51.08.6,0,1.19,0C298,62,300.48,62.61,300.68,62.22Zm8.68-.1c-.74-.11-2.43,0-2.39.17A9,9,0,0,0,309.36,62.12Zm.77.12c1.15,0,1.19.14,2.35.13C313,62.17,310.51,62.12,310.13,62.24Zm16.77,1.43h-1.57C324.67,63.94,327.34,63.88,326.9,63.67Zm5.91,0c-2.09.07-1.18-.3-3.12-.25,0,.19,1.33.19,1.94.3.46.2-1.28,0-.82.24A5.06,5.06,0,0,0,332.81,63.63Zm12.53.63h1.58C347.26,64,345.06,64,345.34,64.26Zm2.44-.59a11.61,11.61,0,0,0-2.38.11,2.43,2.43,0,0,1,.78.12C347.18,63.9,347.71,63.82,347.78,63.67Zm20.42.53a13.07,13.07,0,0,0,2.32.37c.66-.21-1.1-.19-1.55-.24-.12,0,.11-.1,0-.12l-.78-.07c-.51,0-1,0-1.57-.06C366.22,64.26,367.5,64.19,368.2,64.2Zm-2.78.18h-2C362.83,64.55,366,64.56,365.42,64.38ZM361.93,64c.3.3,2,0,2.73.24-.11-.14,1.14-.06,1.2-.17C364.37,63.93,363.67,64,361.93,64Zm-3.22.53a11.26,11.26,0,0,0,2-.12c.41,0,2.09.21,2,0C361.93,64.22,358.65,64.24,358.71,64.48Zm-6.28-.14c1,0,2,0,2-.23C353.46,64.14,352.39,64.15,352.43,64.34Zm40.38-1.75c-.15-.11-.11-.26-1.15-.24-.71.12-.91.17-.44.36A13.5,13.5,0,0,0,392.81,62.59Zm5.56-.34a2.35,2.35,0,0,1-.78-.13c.42,0,1,0,.41-.06-.87.14-1.34-.05-2.76,0-.17.25,1.42.16,2.35.12C397.46,62.28,398.1,62.35,398.37,62.25Zm-238.7-.12c-1.92,0-2.22.13-4,.23-1.07-.1-1.9-.23-2.72-.37a34,34,0,0,1,4.38-.35,13.47,13.47,0,0,1-2.79.24c-.13.15.53.19,1.56.18.31-.3,5-.64,5.53-.17a11.71,11.71,0,0,0-2,0c1.62.28,4.73-.11,5.9.14l0-.24c-1.48,0-1.9.06-3.16.05-.76-.35,3.75-.3,3.95-.11a22.07,22.07,0,0,1,3.15,0A11.93,11.93,0,0,0,168,62c-.74,0-.25-.2-1.16-.18-.57,0-.16.18-.81.18a8.86,8.86,0,0,0,1.57.06,13,13,0,0,1-3.58.29C162.67,62.33,161.12,62.13,159.67,62.13Zm.3.78h-1.18c1-.14-.58-.12-.36-.3C159.67,62.6,159.76,62.76,160,62.91Zm6.73-.34c1.52,0,1.4,0,2.36.07C169,62.73,166.13,62.76,166.7,62.57Z"/><text class="cls-3" transform="translate(21.46 49.13)">METAL MATCH</text></svg>